<svg xmlns="http://www.w3.org/2000/svg" xmlns:xlink="http://www.w3.org/1999/xlink" width="400" height="365.728" viewBox="0 0 400 365.728">
  <defs>
    <clipPath id="clip-path">
      <rect id="Rectángulo_384419" data-name="Rectángulo 384419" width="119.962" height="32.745" fill="#b9dfb7"/>
    </clipPath>
    <clipPath id="clip-path-2">
      <rect id="Rectángulo_384420" data-name="Rectángulo 384420" width="67.635" height="104.454" fill="#6debff"/>
    </clipPath>
    <clipPath id="clip-path-3">
      <rect id="Rectángulo_384421" data-name="Rectángulo 384421" width="67.635" height="104.454" fill="#dbe5f3"/>
    </clipPath>
  </defs>
  <g id="Grupo_1083892" data-name="Grupo 1083892" transform="translate(-180 -7481)">
    <path id="Trazado_832677" data-name="Trazado 832677" d="M243.812,430.7a64.248,64.248,0,0,1-41.265-113.5L92.134,380.947a64.259,64.259,0,0,1,58.433,114.274l.166.287L275.781,422.2l-.01-.016a63.93,63.93,0,0,1-31.96,8.521" transform="translate(136.886 7332.566)" fill="#6debff"/>
    <path id="Trazado_832678" data-name="Trazado 832678" d="M320.7,20.3a64.256,64.256,0,1,0,64.256,64.256A64.257,64.257,0,0,0,320.7,20.3m0,116.527a52.27,52.27,0,1,1,52.27-52.27,52.27,52.27,0,0,1-52.27,52.27" transform="translate(59.998 7471.501)" fill="#0c5e46"/>
    <path id="Trazado_832679" data-name="Trazado 832679" d="M278.972,95.1a52.27,52.27,0,1,1,52.27,52.27,52.27,52.27,0,0,1-52.27-52.27" transform="translate(49.455 7460.959)" fill="#b9dfb7"/>
    <g id="Grupo_1082706" data-name="Grupo 1082706" transform="translate(320.717 7481)" opacity="0.7">
      <g id="Grupo_1082705" data-name="Grupo 1082705" transform="translate(0)">
        <g id="Grupo_1082704" data-name="Grupo 1082704" clip-path="url(#clip-path)">
          <path id="Trazado_832680" data-name="Trazado 832680" d="M377.468,2.1a2.1,2.1,0,1,1-2.1-2.1,2.1,2.1,0,0,1,2.1,2.1" transform="translate(-315.386)" fill="#b9dfb7"/>
          <path id="Trazado_832681" data-name="Trazado 832681" d="M359.55,3a2.1,2.1,0,1,1-2.357-1.808A2.1,2.1,0,0,1,359.55,3" transform="translate(-307.01 -0.549)" fill="#b9dfb7"/>
          <path id="Trazado_832682" data-name="Trazado 832682" d="M341.906,6.229a2.1,2.1,0,1,1-2.574-1.485,2.1,2.1,0,0,1,2.574,1.485" transform="translate(-298.778 -2.186)" fill="#b9dfb7"/>
          <path id="Trazado_832683" data-name="Trazado 832683" d="M324.833,11.735a2.1,2.1,0,1,1-2.745-1.137,2.1,2.1,0,0,1,2.745,1.137" transform="translate(-290.83 -4.884)" fill="#b9dfb7"/>
          <path id="Trazado_832684" data-name="Trazado 832684" d="M308.624,19.421a2.1,2.1,0,1,1-2.87-.769,2.1,2.1,0,0,1,2.87.769" transform="translate(-283.302 -8.596)" fill="#b9dfb7"/>
          <path id="Trazado_832685" data-name="Trazado 832685" d="M293.558,29.158a2.1,2.1,0,1,1-2.945-.388,2.1,2.1,0,0,1,2.945.388" transform="translate(-276.323 -13.26)" fill="#b9dfb7"/>
          <path id="Trazado_832686" data-name="Trazado 832686" d="M279.892,40.778a2.1,2.1,0,1,1-2.971,0,2.1,2.1,0,0,1,2.971,0" transform="translate(-270.013 -18.794)" fill="#b9dfb7"/>
          <path id="Trazado_832687" data-name="Trazado 832687" d="M267.859,54.082a2.1,2.1,0,1,1-2.946.388,2.1,2.1,0,0,1,2.946-.388" transform="translate(-264.479 -25.105)" fill="#b9dfb7"/>
          <path id="Trazado_832688" data-name="Trazado 832688" d="M279.892,40.778a2.1,2.1,0,1,1-2.971,0,2.1,2.1,0,0,1,2.971,0" transform="translate(-270.013 -18.794)" fill="#b9dfb7"/>
          <path id="Trazado_832689" data-name="Trazado 832689" d="M267.859,54.082a2.1,2.1,0,1,1-2.946.388,2.1,2.1,0,0,1,2.946-.388" transform="translate(-264.479 -25.105)" fill="#b9dfb7"/>
          <path id="Trazado_832690" data-name="Trazado 832690" d="M391.181,3a2.1,2.1,0,1,0,2.357-1.808A2.1,2.1,0,0,0,391.181,3" transform="translate(-323.761 -0.549)" fill="#b9dfb7"/>
          <path id="Trazado_832691" data-name="Trazado 832691" d="M408.828,6.229A2.1,2.1,0,1,0,411.4,4.744a2.1,2.1,0,0,0-2.573,1.485" transform="translate(-331.993 -2.186)" fill="#b9dfb7"/>
          <path id="Trazado_832692" data-name="Trazado 832692" d="M425.9,11.735a2.1,2.1,0,1,0,2.744-1.137,2.1,2.1,0,0,0-2.744,1.137" transform="translate(-339.941 -4.884)" fill="#b9dfb7"/>
          <path id="Trazado_832693" data-name="Trazado 832693" d="M442.107,19.421a2.1,2.1,0,1,0,2.87-.769,2.1,2.1,0,0,0-2.87.769" transform="translate(-347.468 -8.596)" fill="#b9dfb7"/>
          <path id="Trazado_832694" data-name="Trazado 832694" d="M457.174,29.158a2.1,2.1,0,1,0,2.945-.388,2.1,2.1,0,0,0-2.945.388" transform="translate(-354.448 -13.26)" fill="#b9dfb7"/>
          <path id="Trazado_832695" data-name="Trazado 832695" d="M470.841,40.778a2.1,2.1,0,1,0,2.971,0,2.1,2.1,0,0,0-2.971,0" transform="translate(-360.758 -18.794)" fill="#b9dfb7"/>
          <path id="Trazado_832696" data-name="Trazado 832696" d="M482.875,54.082a2.1,2.1,0,1,0,2.945.388,2.1,2.1,0,0,0-2.945-.388" transform="translate(-366.292 -25.105)" fill="#b9dfb7"/>
        </g>
      </g>
    </g>
    <path id="Trazado_832697" data-name="Trazado 832697" d="M585.884,435.059A64.256,64.256,0,1,0,609.4,522.835a64.256,64.256,0,0,0-23.519-87.776m13.132,81.779a52.262,52.262,0,1,1-19.129-71.392,52.262,52.262,0,0,1,19.129,71.392" transform="translate(-49.057 7281.448)" fill="#b0c0d2"/>
    <path id="Trazado_832698" data-name="Trazado 832698" d="M538.176,546.519a52.262,52.262,0,1,1,71.391-19.129,52.262,52.262,0,0,1-71.391,19.129" transform="translate(-59.607 7270.896)" fill="#dbe5f3"/>
    <path id="Trazado_832699" data-name="Trazado 832699" d="M69.425,456A52.262,52.262,0,1,1,50.3,527.39,52.262,52.262,0,0,1,69.425,456" transform="translate(159.744 7270.896)" fill="#6debff"/>
    <g id="Grupo_1082709" data-name="Grupo 1082709" transform="translate(180 7742.274)" opacity="0.7">
      <g id="Grupo_1082708" data-name="Grupo 1082708">
        <g id="Grupo_1082707" data-name="Grupo 1082707" clip-path="url(#clip-path-2)">
          <path id="Trazado_832700" data-name="Trazado 832700" d="M19.421,612.389a2.1,2.1,0,1,1-.769,2.87,2.1,2.1,0,0,1,.769-2.87" transform="translate(-8.596 -547.71)" fill="#6debff"/>
          <path id="Trazado_832701" data-name="Trazado 832701" d="M29.158,627.456a2.1,2.1,0,1,1-.388,2.945,2.1,2.1,0,0,1,.388-2.945" transform="translate(-13.26 -554.689)" fill="#6debff"/>
          <path id="Trazado_832702" data-name="Trazado 832702" d="M40.777,641.123a2.1,2.1,0,1,1,0,2.971,2.1,2.1,0,0,1,0-2.971" transform="translate(-18.794 -561)" fill="#6debff"/>
          <path id="Trazado_832703" data-name="Trazado 832703" d="M54.081,653.156a2.1,2.1,0,1,1,.388,2.945,2.1,2.1,0,0,1-.388-2.945" transform="translate(-25.104 -566.534)" fill="#6debff"/>
          <path id="Trazado_832704" data-name="Trazado 832704" d="M68.842,663.349a2.1,2.1,0,1,1,.769,2.869,2.1,2.1,0,0,1-.769-2.869" transform="translate(-32.083 -571.196)" fill="#6debff"/>
          <path id="Trazado_832705" data-name="Trazado 832705" d="M84.807,671.528a2.1,2.1,0,1,1,1.137,2.744,2.1,2.1,0,0,1-1.137-2.744" transform="translate(-39.61 -574.908)" fill="#6debff"/>
          <path id="Trazado_832706" data-name="Trazado 832706" d="M101.7,677.554a2.1,2.1,0,1,1,1.485,2.573,2.1,2.1,0,0,1-1.485-2.573" transform="translate(-47.558 -577.606)" fill="#6debff"/>
          <path id="Trazado_832707" data-name="Trazado 832707" d="M119.242,681.322a2.1,2.1,0,1,1,1.808,2.357,2.1,2.1,0,0,1-1.808-2.357" transform="translate(-55.791 -579.244)" fill="#6debff"/>
          <path id="Trazado_832708" data-name="Trazado 832708" d="M101.7,677.554a2.1,2.1,0,1,1,1.485,2.573,2.1,2.1,0,0,1-1.485-2.573" transform="translate(-47.558 -577.606)" fill="#6debff"/>
          <path id="Trazado_832709" data-name="Trazado 832709" d="M119.242,681.322a2.1,2.1,0,1,1,1.808,2.357,2.1,2.1,0,0,1-1.808-2.357" transform="translate(-55.791 -579.244)" fill="#6debff"/>
          <path id="Trazado_832710" data-name="Trazado 832710" d="M13.342,600.063a2.1,2.1,0,1,0-2.745-1.137,2.1,2.1,0,0,0,2.745,1.137" transform="translate(-4.884 -540.182)" fill="#6debff"/>
          <path id="Trazado_832711" data-name="Trazado 832711" d="M7.317,583.166a2.1,2.1,0,1,0-2.573-1.485,2.1,2.1,0,0,0,2.573,1.485" transform="translate(-2.186 -532.234)" fill="#6debff"/>
          <path id="Trazado_832712" data-name="Trazado 832712" d="M3.548,565.628a2.1,2.1,0,1,0-2.357-1.808,2.1,2.1,0,0,0,2.357,1.808" transform="translate(-0.549 -524.002)" fill="#6debff"/>
          <path id="Trazado_832713" data-name="Trazado 832713" d="M2.1,547.748a2.1,2.1,0,1,0-2.1-2.1,2.1,2.1,0,0,0,2.1,2.1" transform="translate(0 -515.627)" fill="#6debff"/>
          <path id="Trazado_832714" data-name="Trazado 832714" d="M3,529.832a2.1,2.1,0,1,0-1.808-2.357A2.1,2.1,0,0,0,3,529.832" transform="translate(-0.549 -507.252)" fill="#6debff"/>
          <path id="Trazado_832715" data-name="Trazado 832715" d="M6.229,512.187a2.1,2.1,0,1,0-1.485-2.573,2.1,2.1,0,0,0,1.485,2.573" transform="translate(-2.186 -499.019)" fill="#6debff"/>
          <path id="Trazado_832716" data-name="Trazado 832716" d="M11.734,495.114a2.1,2.1,0,1,0-1.137-2.745,2.1,2.1,0,0,0,1.137,2.745" transform="translate(-4.884 -491.071)" fill="#6debff"/>
        </g>
      </g>
    </g>
    <g id="Grupo_1082712" data-name="Grupo 1082712" transform="translate(512.365 7742.274)" opacity="0.7">
      <g id="Grupo_1082711" data-name="Grupo 1082711" transform="translate(0)">
        <g id="Grupo_1082710" data-name="Grupo 1082710" clip-path="url(#clip-path-3)">
          <path id="Trazado_832717" data-name="Trazado 832717" d="M726.591,616.028a2.1,2.1,0,1,1,2.869-.769,2.1,2.1,0,0,1-2.869.769" transform="translate(-671.881 -547.71)" fill="#dbe5f3"/>
          <path id="Trazado_832718" data-name="Trazado 832718" d="M734.77,600.063a2.1,2.1,0,1,1,2.745-1.137,2.1,2.1,0,0,1-2.745,1.137" transform="translate(-675.593 -540.182)" fill="#dbe5f3"/>
          <path id="Trazado_832719" data-name="Trazado 832719" d="M740.8,583.166a2.1,2.1,0,1,1,2.572-1.485,2.1,2.1,0,0,1-2.572,1.485" transform="translate(-678.291 -532.234)" fill="#dbe5f3"/>
          <path id="Trazado_832720" data-name="Trazado 832720" d="M744.564,565.628a2.1,2.1,0,1,1,2.357-1.808,2.1,2.1,0,0,1-2.357,1.808" transform="translate(-679.929 -524.002)" fill="#dbe5f3"/>
          <path id="Trazado_832721" data-name="Trazado 832721" d="M746.013,547.748a2.1,2.1,0,1,1,2.1-2.1,2.1,2.1,0,0,1-2.1,2.1" transform="translate(-680.478 -515.627)" fill="#dbe5f3"/>
          <path id="Trazado_832722" data-name="Trazado 832722" d="M745.113,529.832a2.1,2.1,0,1,1,1.808-2.357,2.1,2.1,0,0,1-1.808,2.357" transform="translate(-679.928 -507.252)" fill="#dbe5f3"/>
          <path id="Trazado_832723" data-name="Trazado 832723" d="M741.883,512.187a2.1,2.1,0,1,1,1.485-2.573,2.1,2.1,0,0,1-1.485,2.573" transform="translate(-678.291 -499.019)" fill="#dbe5f3"/>
          <path id="Trazado_832724" data-name="Trazado 832724" d="M736.378,495.114a2.1,2.1,0,1,1,1.137-2.745,2.1,2.1,0,0,1-1.137,2.745" transform="translate(-675.593 -491.071)" fill="#dbe5f3"/>
          <path id="Trazado_832725" data-name="Trazado 832725" d="M741.883,512.187a2.1,2.1,0,1,1,1.485-2.573,2.1,2.1,0,0,1-1.485,2.573" transform="translate(-678.291 -499.019)" fill="#dbe5f3"/>
          <path id="Trazado_832726" data-name="Trazado 832726" d="M736.378,495.114a2.1,2.1,0,1,1,1.137-2.745,2.1,2.1,0,0,1-1.137,2.745" transform="translate(-675.593 -491.071)" fill="#dbe5f3"/>
          <path id="Trazado_832727" data-name="Trazado 832727" d="M718.955,627.456a2.1,2.1,0,1,0,.388,2.945,2.1,2.1,0,0,0-.388-2.945" transform="translate(-667.218 -554.689)" fill="#dbe5f3"/>
          <path id="Trazado_832728" data-name="Trazado 832728" d="M707.336,641.123a2.1,2.1,0,1,0,0,2.971,2.1,2.1,0,0,0,0-2.971" transform="translate(-661.684 -561)" fill="#dbe5f3"/>
          <path id="Trazado_832729" data-name="Trazado 832729" d="M694.031,653.156a2.1,2.1,0,1,0-.388,2.945,2.1,2.1,0,0,0,.388-2.945" transform="translate(-655.374 -566.534)" fill="#dbe5f3"/>
          <path id="Trazado_832730" data-name="Trazado 832730" d="M679.27,663.349a2.1,2.1,0,1,0-.769,2.869,2.1,2.1,0,0,0,.769-2.869" transform="translate(-648.395 -571.196)" fill="#dbe5f3"/>
          <path id="Trazado_832731" data-name="Trazado 832731" d="M663.3,671.528a2.1,2.1,0,1,0-1.137,2.744,2.1,2.1,0,0,0,1.137-2.744" transform="translate(-640.866 -574.908)" fill="#dbe5f3"/>
          <path id="Trazado_832732" data-name="Trazado 832732" d="M646.408,677.554a2.1,2.1,0,1,0-1.485,2.573,2.1,2.1,0,0,0,1.485-2.573" transform="translate(-632.919 -577.606)" fill="#dbe5f3"/>
          <path id="Trazado_832733" data-name="Trazado 832733" d="M628.871,681.322a2.1,2.1,0,1,0-1.808,2.357,2.1,2.1,0,0,0,1.808-2.357" transform="translate(-624.687 -579.244)" fill="#dbe5f3"/>
        </g>
      </g>
    </g>
    <path id="Trazado_832734" data-name="Trazado 832734" d="M140.652,458.58a64.256,64.256,0,1,0-23.519,87.775,64.257,64.257,0,0,0,23.519-87.775m-29.517,77.388a52.262,52.262,0,1,1,19.129-71.391,52.262,52.262,0,0,1-19.129,71.391" transform="translate(170.296 7281.447)" fill="#03386e"/>
    <path id="Trazado_832735" data-name="Trazado 832735" d="M384.955,141.071a64.256,64.256,0,1,1-128.512,0V284.025a64.256,64.256,0,0,1,107.421-47.6L384.955,248.6Z" transform="translate(59.998 7414.986)" fill="#b9dfb7"/>
    <path id="Trazado_832736" data-name="Trazado 832736" d="M530.028,383.662,420.27,320.293a64.246,64.246,0,0,1-11.2,103.333l.01.016-32.094,18.816,92.252,54.5.06-.1c-.1-.059-.21-.11-.312-.169a64.253,64.253,0,0,1,61.047-113.021" transform="translate(3.592 7331.119)" fill="#dbe5f3"/>
    <path id="Trazado_832737" data-name="Trazado 832737" d="M328.3,328.58a40.561,40.561,0,0,1,57.762,19.454l7.6,2.363,3.263-7.015a52.283,52.283,0,0,0-80.567-20.645l7.314,1.331.006,7.629a41.078,41.078,0,0,1,4.622-3.117" transform="translate(31.961 7335.246)" fill="#b9dfb7"/>
    <path id="Trazado_832738" data-name="Trazado 832738" d="M310.794,416.774a40.565,40.565,0,0,1-12.033-59.752l-1.754-7.763-7.707.683a52.284,52.284,0,0,0,22.4,80.095l-2.5-7,6.6-3.82a41.118,41.118,0,0,1-5.01-2.444" transform="translate(49.564 7317.565)" fill="#6debff"/>
    <path id="Trazado_832739" data-name="Trazado 832739" d="M408.694,402.941a40.562,40.562,0,0,1-45.729,40.3l-5.847,5.4,4.445,6.334a52.282,52.282,0,0,0,58.161-59.451l-4.809,5.668-6.61-3.809a40.968,40.968,0,0,1,.388,5.561" transform="translate(12.887 7295.917)" fill="#dbe5f3"/>
    <path id="Trazado_838061" data-name="Trazado 838061" d="M19.468,6.585H15.628V17H12.543V6.585H8.772V4.2h10.7Zm4.983,10.591a4.889,4.889,0,0,1-3.542-1.305,4.507,4.507,0,0,1-1.354-3.4v-.246A5.84,5.84,0,0,1,20.1,9.652a3.955,3.955,0,0,1,1.578-1.727,4.763,4.763,0,0,1,2.461-.611A4.117,4.117,0,0,1,27.3,8.558a4.887,4.887,0,0,1,1.16,3.467v1.151H22.571a2.135,2.135,0,0,0,.694,1.257,2.066,2.066,0,0,0,1.389.457,2.662,2.662,0,0,0,2.2-.984l1.354,1.6a3.784,3.784,0,0,1-1.569,1.217A5.3,5.3,0,0,1,24.452,17.176ZM24.118,9.6q-1.3,0-1.547,1.723h2.988v-.229a1.467,1.467,0,0,0-.36-1.1A1.434,1.434,0,0,0,24.118,9.6Zm-.035-6.108h3.129l-2.443,2.76-2.417,0Zm9.589,11.4a1.317,1.317,0,0,0,.967-.338,1.241,1.241,0,0,0,.334-.945H37.75a3.288,3.288,0,0,1-1.121,2.566,4.168,4.168,0,0,1-2.887,1,4.22,4.22,0,0,1-3.27-1.3,5.125,5.125,0,0,1-1.2-3.6v-.123A5.792,5.792,0,0,1,29.809,9.6a3.872,3.872,0,0,1,1.534-1.7,4.573,4.573,0,0,1,2.373-.593A4.116,4.116,0,0,1,36.66,8.343a3.647,3.647,0,0,1,1.09,2.786H34.972A1.626,1.626,0,0,0,34.612,10a1.244,1.244,0,0,0-.967-.4q-1.151,0-1.345,1.468a10.357,10.357,0,0,0-.062,1.283,4.068,4.068,0,0,0,.343,1.986A1.187,1.187,0,0,0,33.672,14.891Zm8.051-7.4.1,1.116a3.225,3.225,0,0,1,2.716-1.292,2.713,2.713,0,0,1,2.219.888,4.226,4.226,0,0,1,.76,2.672V17H44.544V11a1.6,1.6,0,0,0-.29-1.059A1.342,1.342,0,0,0,43.2,9.6a1.413,1.413,0,0,0-1.292.686V17H38.945V7.49ZM52.278,17H49.307V7.49h2.971ZM49.132,5.038A1.322,1.322,0,0,1,49.589,4a1.943,1.943,0,0,1,2.373,0,1.322,1.322,0,0,1,.457,1.037,1.322,1.322,0,0,1-.457,1.037,1.943,1.943,0,0,1-2.373,0A1.322,1.322,0,0,1,49.132,5.038Zm8.991,9.853a1.317,1.317,0,0,0,.967-.338,1.241,1.241,0,0,0,.334-.945H62.2a3.288,3.288,0,0,1-1.121,2.566,4.168,4.168,0,0,1-2.887,1,4.22,4.22,0,0,1-3.27-1.3,5.125,5.125,0,0,1-1.2-3.6v-.123A5.792,5.792,0,0,1,54.26,9.6a3.872,3.872,0,0,1,1.534-1.7,4.573,4.573,0,0,1,2.373-.593,4.116,4.116,0,0,1,2.944,1.028,3.647,3.647,0,0,1,1.09,2.786H59.424A1.626,1.626,0,0,0,59.063,10a1.244,1.244,0,0,0-.967-.4q-1.151,0-1.345,1.468a10.357,10.357,0,0,0-.062,1.283,4.068,4.068,0,0,0,.343,1.986A1.187,1.187,0,0,0,58.123,14.891ZM68.81,17a3.344,3.344,0,0,1-.281-.853,2.754,2.754,0,0,1-2.285,1.028,3.374,3.374,0,0,1-2.285-.813,2.588,2.588,0,0,1-.94-2.043,2.66,2.66,0,0,1,1.143-2.338,5.821,5.821,0,0,1,3.322-.791H68.4v-.5q0-1.316-1.134-1.316a.927.927,0,0,0-1.055,1.042H63.247A2.655,2.655,0,0,1,64.42,8.175a4.931,4.931,0,0,1,2.993-.86,4.323,4.323,0,0,1,2.874.888,3.086,3.086,0,0,1,1.081,2.435v4.21a4.311,4.311,0,0,0,.4,2V17Zm-1.854-1.934a1.652,1.652,0,0,0,.918-.237,1.487,1.487,0,0,0,.523-.536V12.772h-.861q-1.547,0-1.547,1.389a.848.848,0,0,0,.272.655A.986.986,0,0,0,66.956,15.066Z" transform="translate(341.451 7557.22)" fill="#12263f"/>
    <path id="Trazado_838062" data-name="Trazado 838062" d="M30.8,14.609H26.574L25.836,17h-3.3L27.234,4.2h2.9L34.863,17H31.549Zm-3.489-2.382h2.751l-1.38-4.438Zm14.1-2.057-.976-.07a1.752,1.752,0,0,0-1.793.879V17H35.68V7.49h2.777l.1,1.222a2.294,2.294,0,0,1,2.083-1.4,2.888,2.888,0,0,1,.826.105Zm4.957-5.045V7.49h1.564V9.547H46.367V13.9a1.111,1.111,0,0,0,.193.747,1.037,1.037,0,0,0,.765.211,4.345,4.345,0,0,0,.738-.053v2.118a5.466,5.466,0,0,1-1.67.255,3.1,3.1,0,0,1-2.259-.721,2.954,2.954,0,0,1-.729-2.188V9.547H42.193V7.49h1.213V5.126Zm7.33,12.05a4.889,4.889,0,0,1-3.542-1.305,4.507,4.507,0,0,1-1.354-3.4v-.246a5.84,5.84,0,0,1,.541-2.575A3.955,3.955,0,0,1,50.92,7.925a4.763,4.763,0,0,1,2.461-.611,4.117,4.117,0,0,1,3.164,1.244,4.887,4.887,0,0,1,1.16,3.467v1.151H51.817a2.135,2.135,0,0,0,.694,1.257,2.066,2.066,0,0,0,1.389.457,2.662,2.662,0,0,0,2.2-.984l1.354,1.6a3.784,3.784,0,0,1-1.569,1.217A5.3,5.3,0,0,1,53.7,17.176ZM53.363,9.6q-1.3,0-1.547,1.723H54.8v-.229a1.467,1.467,0,0,0-.36-1.1A1.434,1.434,0,0,0,53.363,9.6Z" transform="translate(465.129 7787.253)" fill="#12263f"/>
    <path id="Trazado_838063" data-name="Trazado 838063" d="M21.354,12.667a4.673,4.673,0,0,1-.721,2.36,4.35,4.35,0,0,1-1.85,1.586,6.3,6.3,0,0,1-2.72.563,5.025,5.025,0,0,1-3.973-1.644,6.786,6.786,0,0,1-1.45-4.641v-.633a7.746,7.746,0,0,1,.655-3.292,4.961,4.961,0,0,1,1.885-2.18,5.26,5.26,0,0,1,2.848-.769,5.516,5.516,0,0,1,3.744,1.226A4.844,4.844,0,0,1,21.38,8.624H18.3a2.292,2.292,0,0,0-.589-1.679,2.422,2.422,0,0,0-1.687-.51A1.843,1.843,0,0,0,14.34,7.3a5.536,5.536,0,0,0-.562,2.751v.905a6.126,6.126,0,0,0,.514,2.927,1.882,1.882,0,0,0,1.771.879,2.369,2.369,0,0,0,1.626-.5,2.126,2.126,0,0,0,.6-1.591ZM25.8,17H22.83V7.49H25.8ZM22.654,5.038A1.322,1.322,0,0,1,23.112,4a1.943,1.943,0,0,1,2.373,0,1.322,1.322,0,0,1,.457,1.037,1.322,1.322,0,0,1-.457,1.037,1.943,1.943,0,0,1-2.373,0A1.322,1.322,0,0,1,22.654,5.038Zm9.571,12.138a4.889,4.889,0,0,1-3.542-1.305,4.507,4.507,0,0,1-1.354-3.4v-.246a5.84,5.84,0,0,1,.541-2.575,3.955,3.955,0,0,1,1.578-1.727,4.763,4.763,0,0,1,2.461-.611,4.117,4.117,0,0,1,3.164,1.244,4.887,4.887,0,0,1,1.16,3.467v1.151H30.345a2.135,2.135,0,0,0,.694,1.257,2.066,2.066,0,0,0,1.389.457,2.662,2.662,0,0,0,2.2-.984l1.354,1.6a3.784,3.784,0,0,1-1.569,1.217A5.3,5.3,0,0,1,32.226,17.176ZM31.892,9.6q-1.3,0-1.547,1.723h2.988v-.229a1.467,1.467,0,0,0-.36-1.1A1.434,1.434,0,0,0,31.892,9.6ZM40.145,7.49l.1,1.116a3.225,3.225,0,0,1,2.716-1.292,2.713,2.713,0,0,1,2.219.888,4.226,4.226,0,0,1,.76,2.672V17H42.966V11a1.6,1.6,0,0,0-.29-1.059A1.342,1.342,0,0,0,41.621,9.6a1.413,1.413,0,0,0-1.292.686V17H37.367V7.49Zm11.452,7.4a1.317,1.317,0,0,0,.967-.338,1.241,1.241,0,0,0,.334-.945h2.777a3.288,3.288,0,0,1-1.121,2.566,4.168,4.168,0,0,1-2.887,1,4.22,4.22,0,0,1-3.27-1.3,5.125,5.125,0,0,1-1.2-3.6v-.123A5.792,5.792,0,0,1,47.734,9.6a3.872,3.872,0,0,1,1.534-1.7,4.573,4.573,0,0,1,2.373-.593,4.116,4.116,0,0,1,2.944,1.028,3.647,3.647,0,0,1,1.09,2.786H52.9A1.626,1.626,0,0,0,52.537,10a1.244,1.244,0,0,0-.967-.4q-1.151,0-1.345,1.468a10.357,10.357,0,0,0-.062,1.283,4.068,4.068,0,0,0,.343,1.986A1.187,1.187,0,0,0,51.6,14.891ZM60.052,17H57.081V7.49h2.971ZM56.905,5.038A1.322,1.322,0,0,1,57.363,4a1.943,1.943,0,0,1,2.373,0,1.322,1.322,0,0,1,.457,1.037,1.322,1.322,0,0,1-.457,1.037,1.943,1.943,0,0,1-2.373,0A1.322,1.322,0,0,1,56.905,5.038ZM67.233,17a3.344,3.344,0,0,1-.281-.853,2.754,2.754,0,0,1-2.285,1.028,3.374,3.374,0,0,1-2.285-.813,2.588,2.588,0,0,1-.94-2.043,2.66,2.66,0,0,1,1.143-2.338,5.821,5.821,0,0,1,3.322-.791h.914v-.5q0-1.316-1.134-1.316a.927.927,0,0,0-1.055,1.042H61.669a2.655,2.655,0,0,1,1.173-2.239,4.931,4.931,0,0,1,2.993-.86,4.323,4.323,0,0,1,2.874.888,3.086,3.086,0,0,1,1.081,2.435v4.21a4.311,4.311,0,0,0,.4,2V17Zm-1.854-1.934a1.652,1.652,0,0,0,.918-.237,1.487,1.487,0,0,0,.523-.536V12.772h-.861q-1.547,0-1.547,1.389a.848.848,0,0,0,.272.655A.986.986,0,0,0,65.378,15.066Z" transform="translate(214.631 7786.872)" fill="#12263f"/>
    <g id="Grupo_1016848" data-name="Grupo 1016848" transform="translate(362.121 7589.875)">
      <ellipse id="Elipse_5840" data-name="Elipse 5840" cx="18.451" cy="18.451" rx="18.451" ry="18.451" transform="translate(0)" fill="#eba325" opacity="0.3"/>
      <ellipse id="Elipse_5841" data-name="Elipse 5841" cx="11.203" cy="11.203" rx="11.203" ry="11.203" transform="translate(7.249 7.249)" fill="#eba325"/>
      <text id="_" data-name="+" transform="translate(15.156 20.544)" fill="#12263f" font-size="11" font-family="Roboto-Regular, Roboto"><tspan x="0" y="0">+</tspan></text>
    </g>
    <g id="Grupo_1082713" data-name="Grupo 1082713" transform="translate(442.603 7723.824)">
      <ellipse id="Elipse_5840-2" data-name="Elipse 5840" cx="18.451" cy="18.451" rx="18.451" ry="18.451" transform="translate(0)" fill="#eba325" opacity="0.3"/>
      <ellipse id="Elipse_5841-2" data-name="Elipse 5841" cx="11.203" cy="11.203" rx="11.203" ry="11.203" transform="translate(7.249 7.249)" fill="#eba325"/>
      <text id="_2" data-name="+" transform="translate(15.157 20.544)" fill="#12263f" font-size="11" font-family="Roboto-Regular, Roboto"><tspan x="0" y="0">+</tspan></text>
    </g>
    <g id="Grupo_1082714" data-name="Grupo 1082714" transform="translate(280.496 7723.823)">
      <ellipse id="Elipse_5840-3" data-name="Elipse 5840" cx="18.451" cy="18.451" rx="18.451" ry="18.451" transform="translate(0)" fill="#eba325" opacity="0.3"/>
      <ellipse id="Elipse_5841-3" data-name="Elipse 5841" cx="11.203" cy="11.203" rx="11.203" ry="11.203" transform="translate(7.248 7.249)" fill="#eba325"/>
      <text id="_3" data-name="+" transform="translate(15.156 20.544)" fill="#12263f" font-size="11" font-family="Roboto-Regular, Roboto"><tspan x="0" y="0">+</tspan></text>
    </g>
    <g id="Grupo_1082731" data-name="Grupo 1082731" transform="translate(364.591 7518.739)">
      <path id="Trazado_836277" data-name="Trazado 836277" d="M391.695,1170.016c-.361-.93-.7-1.816-1.056-2.694a.374.374,0,0,0-.289-.152c-.738-.012-1.476,0-2.215-.008-.532,0-.764-.233-.765-.763q0-2.649,0-5.3c0-.525.236-.754.772-.756.717,0,1.434-.008,2.15,0a.356.356,0,0,0,.407-.284c.288-.769.607-1.527.942-2.276a.315.315,0,0,0-.077-.432c-.515-.5-1.018-1.01-1.523-1.518-.411-.415-.417-.725-.013-1.129q1.859-1.864,3.722-3.723a.659.659,0,0,1,1.083-.005c.572.563,1.138,1.132,1.707,1.7a.18.18,0,0,0,.037.02c.506-.23,1.014-.472,1.533-.691a8.291,8.291,0,0,1,.967-.336.339.339,0,0,0,.3-.395c-.019-.727-.009-1.455-.006-2.183,0-.513.236-.754.74-.755q2.664,0,5.328,0c.507,0,.741.24.745.751,0,.392,0,.784,0,1.182.5-.348.955-.723,1.461-1.005a6.915,6.915,0,0,1,5.937-.483.652.652,0,0,1,.259,1.173c-.753.76-1.513,1.514-2.268,2.272a1.639,1.639,0,0,0,0,2.492c.083.084.166.167.25.25a1.636,1.636,0,0,0,2.47-.01c.751-.747,1.5-1.5,2.248-2.247.49-.489,1-.381,1.22.278a7,7,0,0,1-1.317,7.062c-.065.08-.132.159-.24.289.448,0,.838,0,1.228,0,.527,0,.757.237.758.771q0,2.633,0,5.266c0,.551-.229.778-.781.78-.728,0-1.455,0-2.183,0a.3.3,0,0,0-.347.23c-.307.8-.64,1.582-.979,2.365a.265.265,0,0,0,.055.356c.528.516,1.049,1.04,1.568,1.564a.676.676,0,0,1,0,1.13q-1.848,1.853-3.7,3.7a.676.676,0,0,1-1.13-.007c-.516-.513-1.035-1.024-1.541-1.547-.137-.141-.234-.136-.408-.059q-1.156.509-2.334.969c-.17.066-.232.13-.23.312.01.749.007,1.5,0,2.247a.654.654,0,0,1-.75.745q-2.664,0-5.328,0a.648.648,0,0,1-.734-.728c0-.749,0-1.5-.008-2.248a.377.377,0,0,0-.147-.293c-.878-.358-1.764-.7-2.7-1.058l-1.6,1.6c-.487.487-.762.488-1.243.008q-1.8-1.8-3.608-3.61c-.453-.453-.453-.743,0-1.2C390.627,1171.083,391.186,1170.525,391.695,1170.016Zm8.96-20.379c0,.741,0,1.456,0,2.171,0,.647-.118.8-.747.958a10.943,10.943,0,0,0-2.834,1.169c-.62.363-.758.348-1.276-.171-.5-.5-.992-1-1.456-1.467l-3.019,3c.507.508,1.029,1.029,1.548,1.552.407.41.435.609.144,1.1a11.193,11.193,0,0,0-1.235,2.98c-.143.57-.313.7-.9.7h-2.21v4.249h2.2c.6,0,.768.125.917.716a11.087,11.087,0,0,0,1.175,2.868c.365.629.349.759-.169,1.277l-1.467,1.465,3.011,3.01c.5-.5,1.02-1.024,1.541-1.545.412-.412.6-.441,1.1-.15a11.474,11.474,0,0,0,3.009,1.247c.544.139.672.314.672.885,0,.735,0,1.47,0,2.216H404.9c0-.744,0-1.469,0-2.194,0-.606.124-.771.713-.919a11.066,11.066,0,0,0,2.922-1.207c.553-.324.72-.3,1.175.152.512.514,1.023,1.029,1.518,1.526l3.007-3.019c-.518-.517-1.056-1.051-1.591-1.587a.682.682,0,0,1-.124-1.024,11.445,11.445,0,0,0,1.262-3.038c.138-.546.314-.675.882-.676h2.221v-4.249c-.388,0-.76.011-1.131,0a3.566,3.566,0,0,0-2.134.384.74.74,0,0,1-.242.083c-.769.16-1.538.317-2.311.475a8.36,8.36,0,1,1-16.633,1.464,8.139,8.139,0,0,1,2.27-5.988,8.276,8.276,0,0,1,7.333-2.564.6.6,0,0,0,.023-.107,7.106,7.106,0,0,1,.773-3.181.43.43,0,0,0,.06-.18c0-.788,0-1.576,0-2.378Zm11.621.089c-.325-.039-.555-.079-.786-.093a5.774,5.774,0,0,0-5.811,7.671.917.917,0,0,1-.253,1.086c-2.233,2.215-4.45,4.446-6.68,6.664a.371.371,0,0,0-.091.495,4.56,4.56,0,0,0,2.3,2.316.407.407,0,0,0,.549-.094c2.206-2.226,4.43-4.435,6.637-6.662a.932.932,0,0,1,1.085-.265,6.179,6.179,0,0,0,1.625.323,5.741,5.741,0,0,0,6.033-5.325,13.024,13.024,0,0,0-.038-1.5l-.136-.036c-.559.574-1.1,1.167-1.681,1.718a2.786,2.786,0,0,1-2.422.746,3.343,3.343,0,0,1-1.926-1.123,2.925,2.925,0,0,1,0-4.335C411.18,1150.809,411.691,1150.307,412.276,1149.727Zm-9.488,21.134c.5-.067,1-.1,1.489-.208a7.036,7.036,0,0,0,5.509-7.706c-.06-.6-.06-.6-.563-.736a.629.629,0,0,0-.743.638,10.231,10.231,0,0,1,.014,1.63,5.769,5.769,0,1,1-4.993-6.456c.188.022.373.1.566-.082a.664.664,0,0,0,.227-.8.456.456,0,0,0-.427-.368,7.384,7.384,0,0,0-2.331.033,7.085,7.085,0,0,0,1.251,14.057Zm-4.485-7.329,4.261-4.256A4.419,4.419,0,0,0,398.3,1163.532Zm4.615,4.7a4.388,4.388,0,0,0,4.3-4.307Z" transform="translate(-387.368 -1148.334)" fill="#12263f"/>
      <path id="Trazado_836278" data-name="Trazado 836278" d="M623.31,1233.915a.707.707,0,0,1-.41.673.59.59,0,0,1-.681-.126c-.341-.324-.669-.661-1-.993-.5-.5-1-1-1.495-1.5a.65.65,0,1,1,.9-.917c.8.8,1.608,1.6,2.4,2.406A2.26,2.26,0,0,1,623.31,1233.915Z" transform="translate(-599.543 -1223.717)" fill="#12263f"/>
    </g>
    <g id="Grupo_1082732" data-name="Grupo 1082732" transform="translate(490.516 7747.79)">
      <path id="Trazado_836279" data-name="Trazado 836279" d="M866.59,1359.479c.391.078.788.132,1.171.237a5.085,5.085,0,0,1,3.694,4.023,13.457,13.457,0,0,1,.108,5.21,1,1,0,0,1-.025.135,1,1,0,0,0,.284,1.083,1.97,1.97,0,0,1,.325,2.3,2.116,2.116,0,0,1-1.951,1.283c-.193.01-.386,0-.6,0-.052.287-.089.557-.152.821a6.177,6.177,0,0,1-1.306,2.573.784.784,0,0,0-.171.452c-.018.72,0,1.441-.013,2.161a.39.39,0,0,0,.236.4,23.617,23.617,0,0,1,2.077,1.2,10.7,10.7,0,0,0,3.736,1.25,8.522,8.522,0,0,1,2.466.793,4.759,4.759,0,0,1,2.453,4.142c.048,2.137.015,4.276.013,6.414,0,.462-.2.657-.679.657q-2.984,0-5.968,0H849.036c-.695,0-.833-.141-.833-.848q0-2.967,0-5.934a4.927,4.927,0,0,1,4.05-5.02q1.555-.343,3.1-.714a2.508,2.508,0,0,0,.63-.252c.986-.553,1.963-1.123,2.949-1.675a.418.418,0,0,0,.249-.428c-.014-.72,0-1.441-.01-2.161a.616.616,0,0,0-.118-.369,6.084,6.084,0,0,1-1.481-3.33.461.461,0,0,0-.041-.1,7.828,7.828,0,0,1-.979-.077,2.176,2.176,0,0,1-1.37-3.4.887.887,0,0,0,.146-.467c.01-1.692-.018-3.385.02-5.076a6.549,6.549,0,0,1,.286-1.848,3.294,3.294,0,0,1,3.56-2.02,1.956,1.956,0,0,0,.932-.11,17.815,17.815,0,0,1,4.858-1.254.844.844,0,0,0,.163-.048Zm-.418,27.366c-.278.692-.553,1.342-.8,2a.751.751,0,0,0,.009.509c.561,1.3,1.148,2.587,1.711,3.885a.393.393,0,0,0,.435.271c1.68-.009,3.361-.005,5.041-.005h.331v-.368c0-.754,0-1.509,0-2.263,0-.408.206-.653.537-.659s.556.246.559.672c0,.389,0,.777,0,1.166v1.427h3.833c0-2.058.049-4.093-.016-6.125a3.684,3.684,0,0,0-2.8-3.384c-1.072-.276-2.156-.5-3.231-.765a.473.473,0,0,0-.554.174c-1.088,1.265-2.192,2.517-3.291,3.772-.323.369-.519.4-.953.156C866.728,1387.167,866.472,1387.017,866.172,1386.845Zm-11.933,6.628a.576.576,0,0,0,.107.031c1.795,0,3.589.007,5.384,0a.4.4,0,0,0,.28-.214c.6-1.32,1.187-2.644,1.772-3.97a.449.449,0,0,0,.056-.289c-.276-.721-.569-1.437-.855-2.149a.5.5,0,0,0-.1.022q-.344.191-.687.385c-.5.283-.659.256-1.029-.168-1.1-1.256-2.2-2.509-3.293-3.771a.4.4,0,0,0-.468-.142c-1,.242-2,.466-3,.7a3.818,3.818,0,0,0-3.107,3.886q0,2.692,0,5.384v.322h3.842v-2.478c0-.08,0-.161,0-.24a.549.549,0,0,1,.538-.554.54.54,0,0,1,.554.572C854.245,1391.681,854.239,1392.571,854.239,1393.473Zm14.272-26.179c-.972.206-1.9.385-2.822.6a11.393,11.393,0,0,1-5.159.153c-.63-.141-1.247-.343-1.9-.525v.334c0,1.748,0,3.5,0,5.245a6.453,6.453,0,0,0,.061.853,4.932,4.932,0,0,0,9.752-.009,6.845,6.845,0,0,0,.061-.887C868.513,1371.153,868.511,1369.246,868.511,1367.293Zm1.841,2.058a.655.655,0,0,0,.055-.13,13.494,13.494,0,0,0,.082-4.841,4.789,4.789,0,0,0-1.341-2.684,4.42,4.42,0,0,0-3.151-1.119,13.367,13.367,0,0,0-4.647.921,5.737,5.737,0,0,1-2.637.5,1.916,1.916,0,0,0-2.125,1.512,4.784,4.784,0,0,0-.145,1.151c-.016,1.486-.007,2.973-.006,4.459,0,.1.014.192.021.272l1.076-.057c0-.883-.017-1.75.013-2.615a.905.905,0,0,1,.281-.572c.217-.2.472-.042.7.068a9.317,9.317,0,0,0,5.774.815c1.517-.271,3.02-.619,4.529-.932.5-.1.774.118.776.624,0,.663,0,1.326,0,1.99v.635Zm-10.074,8.929c0,.559-.015,1.072.009,1.583a.848.848,0,0,0,.188.48c.915,1.067,1.845,2.122,2.771,3.179.1.117.208.23.313.346a1.141,1.141,0,0,0,.11-.091q1.538-1.753,3.073-3.507c.044-.051.109-.111.11-.168.008-.6,0-1.191,0-1.816A6.169,6.169,0,0,1,860.278,1378.28Zm7.254,2.756-3.1,3.545c.935.535,1.841,1.057,2.755,1.564.054.03.207-.045.268-.112.415-.455.818-.922,1.223-1.385.568-.649,1.134-1.3,1.724-1.975Zm-10.788,1.641,3.1,3.545,2.868-1.639-3.1-3.546Zm9.269,10.823c-.42-.948-.814-1.845-1.215-2.738-.163-.363-.25-.859-.534-1.04s-.775-.037-1.174-.059a.339.339,0,0,0-.376.254c-.484,1.109-.98,2.213-1.471,3.319-.035.079-.055.165-.088.265Zm-4.075-7.207c.239.6.464,1.172.691,1.742.213.535.214.534.789.534.877,0,.877,0,1.206-.824l.58-1.452c-.515-.295-.985-.573-1.467-.829a.414.414,0,0,0-.335,0C862.921,1385.724,862.45,1386,861.938,1386.293Zm7.688-13.661a1.332,1.332,0,0,0,1.467-.513,1.022,1.022,0,0,0-.023-1.163,1.344,1.344,0,0,0-1.444-.479Zm-12.109-2.156a1.335,1.335,0,0,0-1.463.516,1.009,1.009,0,0,0,0,1.132,1.335,1.335,0,0,0,1.463.506Z" transform="translate(-848.202 -1359.479)" fill="#12263f"/>
    </g>
    <g id="Grupo_1082733" data-name="Grupo 1082733" transform="translate(240.104 7750.629)">
      <path id="Trazado_836280" data-name="Trazado 836280" d="M1427,1342.934a3.508,3.508,0,0,1-1.691-.759,14.383,14.383,0,0,1-.941-1.141.861.861,0,0,0-.312-.279,2.1,2.1,0,0,1-1.468-2.071c0-.919-.009-1.839,0-2.758a2.674,2.674,0,0,0-1.175-2.328,10.484,10.484,0,0,1-3.661-4.688,10.36,10.36,0,0,1,2.4-11.184c.26-.249.533-.272.744-.065a.511.511,0,0,1-.074.769,8.907,8.907,0,0,0-2.615,4.793,9.2,9.2,0,0,0,3.516,9.375,4.212,4.212,0,0,1,1.8,2.69h3.964c.076,0,.152,0,.227,0,.333.018.53.2.529.49s-.194.475-.533.477c-1.092,0-2.184,0-3.277,0h-.861c0,.913-.032,1.8.012,2.678a1.048,1.048,0,0,0,1.077.937q2.79.018,5.581,0a1.085,1.085,0,0,0,1.1-1.064c.019-.832,0-1.665,0-2.551h-.9c-.206,0-.411,0-.617,0-.378,0-.6-.188-.6-.488s.234-.478.612-.48c.506,0,1.012,0,1.541,0a4.056,4.056,0,0,1,1.873-2.742,6.941,6.941,0,0,0,1.209-1.123,9.424,9.424,0,0,0-11.965-14.316c-.037.022-.073.047-.11.068a.494.494,0,0,1-.709-.133.48.48,0,0,1,.2-.693,10.076,10.076,0,0,1,2.829-1.262,10.354,10.354,0,0,1,12.959,8.055,10.127,10.127,0,0,1-3.808,10.179c-.183.152-.383.284-.565.436a2.551,2.551,0,0,0-.97,2c-.011.952,0,1.9,0,2.855a2.1,2.1,0,0,1-1.5,2.145.447.447,0,0,0-.237.183,3.411,3.411,0,0,1-2.59,1.945.325.325,0,0,0-.085.044Zm2.508-2.064H1425.4a2.485,2.485,0,0,0,4.107,0Z" transform="translate(-1412.398 -1309.709)" fill="#12263f"/>
      <path id="Trazado_836281" data-name="Trazado 836281" d="M1480.624,1379.483a2.521,2.521,0,0,1-.14.32c-.08.128-.177.245-.268.366-.543.724-.546.725-.154,1.518a.331.331,0,0,0,.213.144c.361.067.724.12,1.088.171a.5.5,0,0,1,.476.552c0,.616.007,1.233,0,1.849,0,.349-.142.5-.5.565s-.707.1-1.055.168a.467.467,0,0,0-.242.2,1.037,1.037,0,0,0,.2,1.513,1.773,1.773,0,0,1,.235.309.481.481,0,0,1-.05.674q-.672.681-1.353,1.354a.5.5,0,0,1-.726.038c-.241-.183-.494-.352-.723-.549-.185-.159-.358-.227-.57-.067a.136.136,0,0,1-.058.027c-.6.079-.694.5-.739,1.008-.082.934-.124.952-1.068.952-.465,0-.93,0-1.4,0-.371,0-.523-.143-.578-.514a1.743,1.743,0,0,1-.048-.32,1.022,1.022,0,0,0-.874-1.2c-.159-.034-.269-.071-.408.041-.269.217-.551.418-.828.625a.5.5,0,0,1-.724-.055c-.435-.436-.875-.868-1.308-1.307a.491.491,0,0,1-.06-.747c.2-.281.427-.546.614-.836.06-.092.031-.242.042-.366,0-.009-.013-.018-.014-.028-.1-.712-.6-.872-1.218-.88a2.656,2.656,0,0,1-.353-.048.491.491,0,0,1-.455-.536q-.008-.941,0-1.881a.488.488,0,0,1,.454-.536c.331-.047.662-.1.995-.139.2-.022.35-.085.376-.312a.191.191,0,0,1,.038-.089c.358-.474.145-.836-.179-1.235-.618-.76-.6-.776.1-1.475.321-.321.645-.64.965-.962a.5.5,0,0,1,.723-.057c.285.214.564.439.861.634a.509.509,0,0,0,.34.032,1.013,1.013,0,0,0,.911-1.191,1.622,1.622,0,0,1,.054-.384.493.493,0,0,1,.534-.456c.638,0,1.276,0,1.914,0a.493.493,0,0,1,.526.465,1.588,1.588,0,0,1,.053.384,1.012,1.012,0,0,0,.919,1.184.5.5,0,0,0,.339-.038c.3-.2.575-.421.861-.635a.484.484,0,0,1,.7.045c.454.449.908.9,1.351,1.356A1.633,1.633,0,0,1,1480.624,1379.483Zm.243,3.433c-.384-.058-.744-.125-1.106-.163a.6.6,0,0,1-.547-.466,9.741,9.741,0,0,0-.469-1.132.619.619,0,0,1,.07-.745c.223-.275.427-.567.6-.8l-.8-.843c-.272.2-.557.4-.824.618a.629.629,0,0,1-.773.063,6.84,6.84,0,0,0-1.1-.457.617.617,0,0,1-.486-.568c-.044-.351-.1-.7-.148-1.056h-1.151c-.052.371-.1.724-.149,1.077a.611.611,0,0,1-.472.547,8.5,8.5,0,0,0-1.133.468.618.618,0,0,1-.745-.066c-.276-.223-.566-.426-.816-.612l-.846.789c.207.277.4.553.611.809a.649.649,0,0,1,.067.829,3.065,3.065,0,0,0-.382.887.815.815,0,0,1-.853.709c-.886.094-.877.111-.866,1,0,.214.08.279.278.3.279.024.555.088.834.114a.6.6,0,0,1,.547.466,10.541,10.541,0,0,0,.47,1.132.611.611,0,0,1-.051.72c-.227.286-.44.584-.619.823l.794.849c.282-.212.573-.418.851-.64a.6.6,0,0,1,.717-.057,7.069,7.069,0,0,0,1.1.459.651.651,0,0,1,.521.613c.037.341.094.679.143,1.02h1.152c.05-.362.1-.7.144-1.047a.62.62,0,0,1,.48-.574,7.943,7.943,0,0,0,1.132-.469.6.6,0,0,1,.718.05c.286.226.583.438.838.627l.848-.788c-.227-.3-.444-.6-.668-.889a.56.56,0,0,1-.068-.632c.191-.421.337-.864.546-1.275a.792.792,0,0,1,.434-.363c.307-.092.64-.092.956-.158a.315.315,0,0,0,.208-.206C1480.88,1383.566,1480.867,1383.253,1480.867,1382.916Z" transform="translate(-1459.659 -1367.356)" fill="#12263f"/>
      <path id="Trazado_836282" data-name="Trazado 836282" d="M1347.649,1462.307c-.453,0-.907,0-1.36,0a.488.488,0,1,1,0-.969q1.36-.011,2.721,0a.488.488,0,1,1,0,.968C1348.556,1462.311,1348.1,1462.307,1347.649,1462.307Z" transform="translate(-1345.739 -1446.791)" fill="#12263f"/>
      <path id="Trazado_836283" data-name="Trazado 836283" d="M1751.853,1462.307c-.453,0-.907,0-1.36,0a.488.488,0,1,1-.005-.969q1.36-.011,2.721,0a.488.488,0,1,1,.005.969C1752.76,1462.311,1752.306,1462.307,1751.853,1462.307Z" transform="translate(-1723.656 -1446.791)" fill="#12263f"/>
      <path id="Trazado_836284" data-name="Trazado 836284" d="M1570.691,1239.619c0,.442,0,.884,0,1.326-.005.374-.2.6-.491.594s-.476-.224-.478-.608q-.006-1.31,0-2.62c0-.377.193-.6.492-.592s.473.221.478.606C1570.7,1238.756,1570.691,1239.187,1570.691,1239.619Z" transform="translate(-1555.153 -1237.719)" fill="#12263f"/>
      <path id="Trazado_836285" data-name="Trazado 836285" d="M1697.453,1306.352a2.051,2.051,0,0,1-.389-.351.421.421,0,0,1,.113-.554q.707-.712,1.419-1.419c.191-.19.376-.387.575-.569a.482.482,0,0,1,.671-.016.47.47,0,0,1,.01.694q-1,1.018-2.015,2.012A1.688,1.688,0,0,1,1697.453,1306.352Z" transform="translate(-1674.158 -1299.049)" fill="#12263f"/>
      <path id="Trazado_836286" data-name="Trazado 836286" d="M1411.755,1302.305a2.539,2.539,0,0,1,.42.264q.959.939,1.9,1.9a.484.484,0,0,1,.062.74.49.49,0,0,1-.743-.052c-.645-.636-1.282-1.28-1.924-1.919a.454.454,0,0,1-.121-.583A1.744,1.744,0,0,1,1411.755,1302.305Z" transform="translate(-1407.026 -1298.105)" fill="#12263f"/>
      <path id="Trazado_836287" data-name="Trazado 836287" d="M1637.3,1278.717c-.215.5-.376.949-.6,1.363a.377.377,0,0,1-.57.1.637.637,0,0,1-.236-.5,6.716,6.716,0,0,1,.446-1.174.4.4,0,0,1,.552-.2C1637.049,1278.387,1637.156,1278.571,1637.3,1278.717Z" transform="translate(-1617.021 -1275.63)" fill="#12263f"/>
      <path id="Trazado_836288" data-name="Trazado 836288" d="M1499.756,1280.5c-.138.141-.252.354-.407.39a.59.59,0,0,1-.522-.171,5.245,5.245,0,0,1-.475-1.226.46.46,0,0,1,.8-.355A13.314,13.314,0,0,1,1499.756,1280.5Z" transform="translate(-1488.424 -1276.312)" fill="#12263f"/>
      <path id="Trazado_836289" data-name="Trazado 836289" d="M1737.607,1390.76a1.164,1.164,0,0,1,.307-.332,6.921,6.921,0,0,1,.958-.386.478.478,0,0,1,.656.292.472.472,0,0,1-.323.614c-.3.127-.6.25-.9.355C1737.932,1391.432,1737.613,1391.227,1737.607,1390.76Z" transform="translate(-1712.126 -1380.102)" fill="#12263f"/>
      <path id="Trazado_836290" data-name="Trazado 836290" d="M1388.263,1391.358c-.5-.216-.946-.378-1.359-.6a.394.394,0,0,1-.111-.55.416.416,0,0,1,.505-.256,10.292,10.292,0,0,1,1.172.452.386.386,0,0,1,.191.526A1.916,1.916,0,0,1,1388.263,1391.358Z" transform="translate(-1384.065 -1380.036)" fill="#12263f"/>
      <path id="Trazado_836291" data-name="Trazado 836291" d="M1531.844,1443.594a3.148,3.148,0,1,1,3.173-3.138A3.162,3.162,0,0,1,1531.844,1443.594Zm.015-.973a2.175,2.175,0,1,0-2.179-2.161A2.184,2.184,0,0,0,1531.859,1442.62Z" transform="translate(-1516.808 -1424.319)" fill="#12263f"/>
    </g>
  </g>
</svg>
