<svg id="Grupo_1083862" data-name="Grupo 1083862" xmlns="http://www.w3.org/2000/svg" xmlns:xlink="http://www.w3.org/1999/xlink" width="86.008" height="80.274" viewBox="0 0 86.008 80.274">
  <defs>
    <clipPath id="clip-path">
      <rect id="Rectángulo_385098" data-name="Rectángulo 385098" width="86.008" height="80.274" fill="#fff"/>
    </clipPath>
  </defs>
  <g id="Grupo_1083861" data-name="Grupo 1083861" clip-path="url(#clip-path)">
    <path id="Trazado_837973" data-name="Trazado 837973" d="M82.977.438a8.139,8.139,0,0,0-1.732,3.555,7.161,7.161,0,0,0-.163,1.549q0,9.576,0,19.152c0,.584.006.467-.471.467q-5.876,0-11.752,0c-1.166,0-1.645.477-1.645,1.653q0,20.918.008,41.835a2.308,2.308,0,0,1-.313,1.432,1.749,1.749,0,0,1-1.4.715c-.463.022-.928,0-1.392,0l-32.062,0a1.874,1.874,0,0,1-2.073-2.087q0-30.222.025-60.444a7.524,7.524,0,0,1,4.208-6.92A7.811,7.811,0,0,1,38,.434q22.247.01,44.493,0Zm-21.249,45.7a8.593,8.593,0,0,0-.133-1.956,6.547,6.547,0,0,0-5.953-5.027,5.706,5.706,0,0,1-2.184-.426,4.042,4.042,0,0,1,.735-7.492A3.885,3.885,0,0,1,58.223,32.7a4.212,4.212,0,0,1,.763,2.517,1.368,1.368,0,0,0,2.72.086,5.07,5.07,0,0,0-.12-1.887,6.515,6.515,0,0,0-4.427-4.74c-.625-.212-.622-.213-.6-.877a10.475,10.475,0,0,0-.01-2,1.379,1.379,0,0,0-1.332-1.26,1.317,1.317,0,0,0-1.45,1.4c-.018.746,0,1.494.009,2.24a.344.344,0,0,1-.306.4A6.837,6.837,0,0,0,51.2,40.629a7.076,7.076,0,0,0,4.068,1.308,3.813,3.813,0,0,1,3.633,3.05,7.475,7.475,0,0,1,.033,2.1,3.241,3.241,0,0,1-2.5,2.711,8.346,8.346,0,0,1-2.234.041,2.8,2.8,0,0,1-1.01-.267,3.446,3.446,0,0,1-1.939-3.015,1.44,1.44,0,0,0-1.29-1.3,1.4,1.4,0,0,0-1.445,1.122,3.578,3.578,0,0,0,.15,1.674A5.9,5.9,0,0,0,53.257,52.5c.5.119.5.1.516.628a15.784,15.784,0,0,0,.056,2.3,1.327,1.327,0,0,0,2.054.852,1.649,1.649,0,0,0,.711-1.46c.007-.645-.016-1.29-.036-1.935-.006-.194.02-.319.254-.351A5.585,5.585,0,0,0,60.52,50.3a5.761,5.761,0,0,0,1.208-4.17" transform="translate(-21.813 -0.316)" fill="#fff"/>
    <path id="Trazado_837974" data-name="Trazado 837974" d="M214.786,127.572q0,12,0,24.005a2.929,2.929,0,0,1-.1,1.108A1.809,1.809,0,0,1,213,153.9c-.124.008-.249,0-.373,0H179.343c-.17,0-.34,0-.509-.011a1.756,1.756,0,0,1-1.806-1.878c-.022-.5-.038-1-.039-1.493q0-22.919,0-45.837a9.841,9.841,0,0,1,.108-2.131,1.6,1.6,0,0,1,1.429-1.3,6.06,6.06,0,0,1,.88-.059q16.521,0,33.043,0a5.615,5.615,0,0,1,.745.035,1.684,1.684,0,0,1,1.572,1.657c.015.169.016.339.016.509q0,12.087,0,24.175m-18.838-9.806q6.621,0,13.242,0a1.249,1.249,0,0,0,1.4-1.406q0-4.905,0-9.811a1.394,1.394,0,0,0-1.432-1.475c-.508-.015-1.018.013-1.527.013q-11.8,0-23.6,0c-.475,0-.951-.032-1.425-.013a1.3,1.3,0,0,0-1.36,1.273q-.007,5.075,0,10.15a1.234,1.234,0,0,0,.309.8,1.5,1.5,0,0,0,1.288.466q6.553,0,13.106,0M185.16,133.051v0c.475,0,.951,0,1.426,0a1.388,1.388,0,1,0,.006-2.775c-.905-.014-1.811-.009-2.716-.007a2.364,2.364,0,0,0-.438.039,1.384,1.384,0,0,0,.195,2.737c.509.016,1.019,0,1.528,0m21.457,15.762c.521,0,1.042.01,1.563,0a1.359,1.359,0,0,0,1.255-1.209,1.27,1.27,0,0,0-1.072-1.513,20.809,20.809,0,0,0-3.355-.008,1.219,1.219,0,0,0-1.155,1.433,1.331,1.331,0,0,0,1.3,1.3c.486.014.973,0,1.46,0m-21.431-10.67h0c-.487,0-.974-.013-1.46,0a1.448,1.448,0,0,0-1.394,1.327,1.393,1.393,0,0,0,1.2,1.408,3.9,3.9,0,0,0,.812.026,22.33,22.33,0,0,0,2.611-.055,1.4,1.4,0,0,0,1.058-1.447,1.5,1.5,0,0,0-1.534-1.263c-.43,0-.86,0-1.29,0m10.729-12.958v-.009c.508,0,1.019.027,1.525-.008a1.2,1.2,0,0,0,1.125-.732,1.35,1.35,0,0,0-1.158-1.99,28.243,28.243,0,0,0-2.98-.023,1.339,1.339,0,0,0-1.347,1.4,1.4,1.4,0,0,0,1.445,1.356c.463.013.927,0,1.39,0m.042,7.861v0c.5,0,1,0,1.494,0a1.088,1.088,0,0,0,.665-.217,1.414,1.414,0,0,0,.519-1.595,1.287,1.287,0,0,0-1.257-.953q-1.442-.036-2.885-.008a1.382,1.382,0,1,0,0,2.765c.486.016.973,0,1.46,0m-10.79,15.77v0c.464,0,.93-.024,1.392.005a1.479,1.479,0,0,0,1.461-1.368,1.386,1.386,0,0,0-1.335-1.385,27.463,27.463,0,0,0-3.087.018,1.4,1.4,0,0,0-1.266,1.356,1.445,1.445,0,0,0,1.342,1.369c.5.016,1,0,1.493,0m10.739-10.674h0c-.486,0-.973-.005-1.459,0a1.464,1.464,0,0,0-1.368,1.272,1.3,1.3,0,0,0,1.123,1.448,17.716,17.716,0,0,0,3.451-.028.946.946,0,0,0,.745-.421,1.492,1.492,0,0,0,.129-1.574,1.35,1.35,0,0,0-1.3-.7h-1.323m10.772-5.1v.007c.5,0,.995.008,1.492,0a1.338,1.338,0,0,0,1.226-1.035,1.38,1.38,0,0,0-1.39-1.737c-.927-.022-1.854-.021-2.78,0a1.3,1.3,0,0,0-1.373,1.357,1.333,1.333,0,0,0,1.368,1.411c.486.016.972,0,1.458,0m-.049,5.1c-.475,0-.95-.007-1.424,0a1.376,1.376,0,0,0-1.347,1.226c-.065.85.307,1.413,1.117,1.492a17.82,17.82,0,0,0,3.449-.008,1.074,1.074,0,0,0,.945-.858,1.393,1.393,0,0,0-1.383-1.85c-.451-.023-.9,0-1.357,0m-.018-12.971v0c.475,0,.95.01,1.425,0a1.387,1.387,0,0,0,1.392-1.3,1.245,1.245,0,0,0-1.209-1.429,25.8,25.8,0,0,0-3.15.01,1.225,1.225,0,0,0-1.211,1.481,1.344,1.344,0,0,0,1.4,1.243c.452.012.9,0,1.357,0m-21.5-2.721c-.508,0-1.021-.041-1.525.008a1.336,1.336,0,0,0-1.034,2.039,1.278,1.278,0,0,0,1.142.677c.961.009,1.923.01,2.884-.008a1.365,1.365,0,0,0,.16-2.725,10.364,10.364,0,0,0-1.627.009m10.829,26.354v.009c.486,0,.973.009,1.459,0a1.331,1.331,0,0,0,1.3-1.334,1.293,1.293,0,0,0-1.193-1.391,27.125,27.125,0,0,0-3.287,0,1.028,1.028,0,0,0-.758.4,1.332,1.332,0,0,0-.256,1.454,1.372,1.372,0,0,0,1.272.868c.486.014.972,0,1.458,0" transform="translate(-128.783 -73.633)" fill="#fff"/>
    <path id="Trazado_837975" data-name="Trazado 837975" d="M22.745,269.033q11.154,0,22.309-.008c.339,0,.417.1.4.422-.079,2.059-.042,4.118-.025,6.178,0,.3-.047.405-.38.4q-18.471-.014-36.943-.009a8.4,8.4,0,0,1-7.729-5.479,9.222,9.222,0,0,1-.364-1.163c-.051-.239,0-.351.284-.344.679.016,1.358,0,2.037,0H22.745Z" transform="translate(0 -195.755)" fill="#fff"/>
    <path id="Trazado_837976" data-name="Trazado 837976" d="M232.283,12.35c-1.391,0-2.783-.005-4.174.005-.241,0-.3-.072-.3-.307q.009-3.444,0-6.888A5.156,5.156,0,0,1,231.478.2a5.01,5.01,0,0,1,6.377,4.118,25.219,25.219,0,0,1,.1,3.049c.008.984.011,1.968,0,2.952a1.9,1.9,0,0,1-.775,1.778,1.476,1.476,0,0,1-.826.255c-1.357-.005-2.715,0-4.073,0" transform="translate(-165.762 0)" fill="#fff"/>
    <path id="Trazado_837977" data-name="Trazado 837977" d="M214.479,132.823H204.121c-.136,0-.272,0-.407-.005-.809-.045-1.116-.354-1.12-1.169-.008-1.562,0-3.124,0-4.686,0-.068,0-.136,0-.2a1.012,1.012,0,0,1,1.1-1.106c.418-.013.838,0,1.256,0l19.9,0a4.6,4.6,0,0,1,.643.029,1.077,1.077,0,0,1,1.012,1.151q.014,2.411,0,4.822a1.058,1.058,0,0,1-1.053,1.133c-.259.022-.52.026-.78.026q-5.094,0-10.189,0Z" transform="translate(-147.413 -91.427)" fill="#fff"/>
  </g>
</svg>
