<svg xmlns="http://www.w3.org/2000/svg" width="107" height="107" viewBox="0 0 107 107">
  <g id="Grupo_1083900" data-name="Grupo 1083900" transform="translate(-285 -765.563)">
    <g id="Grupo_156312" data-name="Grupo 156312" transform="translate(-3.668 -3682.437)">
      <circle id="Elipse_5845" data-name="Elipse 5845" cx="53.5" cy="53.5" r="53.5" transform="translate(288.668 4448)" fill="#6debff"/>
    </g>
    <g id="Grupo_1083450" data-name="Grupo 1083450" transform="translate(941.453 331.465)">
      <path id="Trazado_837285" data-name="Trazado 837285" d="M-602.725,500.841q0,6.492,0,12.984c0,2.711-1.6,4.183-4.288,3.958a33.191,33.191,0,0,1-29.423-26.325,33.186,33.186,0,0,1,19.61-37.266,33.29,33.29,0,0,1,43.286,17.333,34.819,34.819,0,0,1,2.693,10.537,3.547,3.547,0,0,1-2.931,3.813,8.066,8.066,0,0,1-1.264.081q-12.949.007-25.9,0c-1.5,0-1.784.283-1.784,1.755Q-602.725,494.279-602.725,500.841Zm14.549-17.251q6.739,0,13.478,0c1.063,0,1.568-.518,1.471-1.505a31.147,31.147,0,0,0-3.257-11.235,30.9,30.9,0,0,0-31.476-16.612A29.518,29.518,0,0,0-623.4,460.92c-8.138,6.859-11.928,15.657-11.214,26.3a29.34,29.34,0,0,0,7.262,17.537,30.246,30.246,0,0,0,20.414,10.659c1.414.15,1.833-.212,1.833-1.646q0-13.09,0-26.18c0-2.6,1.4-3.992,4.016-3.993Q-594.633,483.588-588.176,483.59Z" transform="translate(0)" fill="#03386e"/>
      <path id="Trazado_837286" data-name="Trazado 837286" d="M-543.3,562.426q0-6.564,0-13.127c0-2.64,1.4-4.029,4.065-4.029,8.7,0,17.409.05,26.113-.028a3.9,3.9,0,0,1,4.119,4.667,33.163,33.163,0,0,1-8.3,18.772,32.444,32.444,0,0,1-20.1,10.711c-.558.08-1.121.125-1.68.2a3.552,3.552,0,0,1-4.206-3.682c-.02-3.2-.005-6.4-.006-9.6Zm17.2-14.786q-6.668,0-13.335,0c-1.072,0-1.509.424-1.509,1.5q-.008,13.335,0,26.671c0,1.081.53,1.569,1.606,1.429,1.442-.188,2.894-.368,4.31-.691a30.7,30.7,0,0,0,23.662-27.067c.124-1.425-.253-1.839-1.681-1.839Z" transform="translate(-57.053 -56.957)" fill="#03386e"/>
      <path id="Trazado_837287" data-name="Trazado 837287" d="M-588.77,494.569c-.175,2.11-.4,2.6-1.27,2.5-1.6-.186-1.008-1.517-1.167-2.315a18.875,18.875,0,0,1-2.138-1.455,4.231,4.231,0,0,1-1.385-3.21,1.135,1.135,0,0,1,1.064-1.252,1.159,1.159,0,0,1,1.281,1.042c.03.161.027.328.051.491a2.378,2.378,0,0,0,2.3,2,2.388,2.388,0,0,0,2.362-2.017,2.343,2.343,0,0,0-1.658-2.617,4.3,4.3,0,0,0-.9-.128,4.722,4.722,0,0,1-4.457-4,4.685,4.685,0,0,1,2.935-5.085c.456-.179.626-.4.566-.869a3.309,3.309,0,0,1,.006-.775,1.2,1.2,0,0,1,1.174-1.1c.6,0,1.241.476,1.154,1.09-.163,1.156.433,1.574,1.339,2.047a4.323,4.323,0,0,1,2.217,3.422c.14.975-.258,1.627-1.011,1.716s-1.23-.407-1.353-1.434a2.353,2.353,0,0,0-2.068-2.085,2.357,2.357,0,0,0-2.5,1.551,2.343,2.343,0,0,0,1.854,3.125c.51.078,1.037.082,1.534.206a4.7,4.7,0,0,1,3.558,4.244,4.736,4.736,0,0,1-2.94,4.7C-588.4,494.429-588.571,494.493-588.77,494.569Z" transform="translate(-25.762 -14.703)" fill="#03386e"/>
      <path id="Trazado_837288" data-name="Trazado 837288" d="M-610.677,542.3c3.245,0,6.49-.02,9.734.023a1.923,1.923,0,0,1,1.273.537,1.1,1.1,0,0,1-.679,1.759,2.771,2.771,0,0,1-.7.059q-9.629,0-19.257,0c-.118,0-.235,0-.353,0a1.225,1.225,0,0,1-1.29-1.212,1.2,1.2,0,0,1,1.325-1.163C-617.307,542.3-613.992,542.3-610.677,542.3Z" transform="translate(-9.222 -55.166)" fill="#03386e"/>
      <path id="Trazado_837289" data-name="Trazado 837289" d="M-550.047,477.941q0,4.8,0,9.592a3.75,3.75,0,0,1-.025.7,1.1,1.1,0,0,1-1.069.955,1.067,1.067,0,0,1-1.18-.8,3.251,3.251,0,0,1-.089-.906q-.007-9.521,0-19.043c0-1.158.394-1.736,1.181-1.745s1.186.566,1.186,1.723Q-550.046,473.18-550.047,477.941Z" transform="translate(-51.514 -9.182)" fill="#03386e"/>
      <path id="Trazado_837290" data-name="Trazado 837290" d="M-512.643,561.61a5.56,5.56,0,0,1-.611,1q-6.389,6.42-12.806,12.813a1.18,1.18,0,0,1-1.752.106,1.191,1.191,0,0,1,.117-1.8q6.374-6.386,12.755-12.765a1.142,1.142,0,0,1,1.455-.331A4.147,4.147,0,0,1-512.643,561.61Z" transform="translate(-66.261 -66.228)" fill="#03386e"/>
      <path id="Trazado_837291" data-name="Trazado 837291" d="M-503.959,588.22a3.513,3.513,0,0,1,3.526-3.539,3.533,3.533,0,0,1,3.56,3.514,3.564,3.564,0,0,1-3.57,3.588A3.543,3.543,0,0,1-503.959,588.22Zm4.7-.03a1.177,1.177,0,0,0-1.181-1.149,1.176,1.176,0,0,0-1.151,1.182,1.163,1.163,0,0,0,1.22,1.175A1.157,1.157,0,0,0-499.257,588.19Z" transform="translate(-80.987 -80.945)" fill="#03386e"/>
      <path id="Trazado_837292" data-name="Trazado 837292" d="M-527.672,564.534a3.546,3.546,0,0,1-3.564-3.517,3.571,3.571,0,0,1,3.589-3.571,3.545,3.545,0,0,1,3.519,3.56A3.524,3.524,0,0,1-527.672,564.534Zm1.182-3.519a1.181,1.181,0,0,0-1.149-1.185,1.158,1.158,0,0,0-1.212,1.109,1.173,1.173,0,0,0,1.172,1.228A1.192,1.192,0,0,0-526.49,561.015Z" transform="translate(-64.396 -64.379)" fill="#03386e"/>
    </g>
  </g>
</svg>
