<svg xmlns="http://www.w3.org/2000/svg" width="107" height="107" viewBox="0 0 107 107">
  <g id="Grupo_1083902" data-name="Grupo 1083902" transform="translate(-285 -1074.563)">
    <g id="Grupo_156312" data-name="Grupo 156312" transform="translate(-3.668 -3373.437)">
      <circle id="Elipse_5845" data-name="Elipse 5845" cx="53.5" cy="53.5" r="53.5" transform="translate(288.668 4448)" fill="#6debff"/>
    </g>
    <g id="Grupo_1083449" data-name="Grupo 1083449" transform="translate(957.453 852.294)">
      <path id="Trazado_837276" data-name="Trazado 837276" d="M-581.215,268.769a11.312,11.312,0,0,1,.846,1.986c.191.942.721,1.093,1.563,1.061,1.468-.055,1.722.237,1.729,1.7.005,1.045.011,2.091,0,3.136-.015,1.177-.336,1.591-1.465,1.485s-1.731.251-1.916,1.348a.4.4,0,0,1-.058.173c-.8,1.033-.514,1.807.45,2.591.7.569.637,1.16,0,1.824-.853.885-1.726,1.751-2.605,2.611-.726.71-1.219.694-1.972-.02a.509.509,0,0,1-.065-.065c-.6-.83-1.3-1.153-2.2-.418a.565.565,0,0,1-.256.1c-1.2.2-1.633.857-1.478,2.1.115.922-.389,1.334-1.333,1.347-1.2.018-2.4.014-3.6,0-1.049-.011-1.507-.4-1.419-1.462.09-1.084-.169-1.768-1.328-1.923a.92.92,0,0,1-.422-.178c-.864-.67-1.48-.385-2.144.384-.8.927-1.306.887-2.156.05q-1.216-1.2-2.414-2.412c-.794-.808-.792-1.277.035-2.1a12.559,12.559,0,0,1,1-.822c-.411-1.014-.717-1.846-1.1-2.643a1.037,1.037,0,0,0-.653-.439,5.266,5.266,0,0,0-1.01-.022c-.993-.033-1.336-.358-1.349-1.335-.017-1.26,0-2.521,0-3.781,0-.723.351-1.33,1.068-1.2,1.657.3,2.212-.623,2.528-1.954.026-.11.074-.214.174-.494a15.789,15.789,0,0,1-12.841,1.383c.361.652.719,1.325,1.107,1.98a1.007,1.007,0,0,0,.448.38c2.736,1.163,3.205,3.469,1.128,5.579-.171.174-.333.357-.515.551.367.82.757,1.614,1.081,2.434a3.26,3.26,0,0,1-.874,4.007,20.086,20.086,0,0,0-1.89,1.89,3.229,3.229,0,0,1-3.924.886c-.829-.317-1.625-.72-2.7-1.2a6.271,6.271,0,0,1-.7.95,3.022,3.022,0,0,1-5.054-1.058,1.539,1.539,0,0,0-1-1.027c-1.486-.527-2.115-1.768-2.035-3.707-1.871-.462-3.768-.839-5.608-1.4a13.022,13.022,0,0,1-9.436-13.2,13.239,13.239,0,0,1,10.6-12.331,13,13,0,0,1,7.85.8c.226.1.449.2.678.288a.387.387,0,0,0,.163-.008c.307-7.571,3.741-13.035,11.083-15.361a14.373,14.373,0,0,1,16.186,4.6c4.692,5.476,5.08,11.614,1.78,18.124.7-.245,1.356-.439,1.975-.712.155-.068.254-.386.278-.6.046-.395.013-.8.02-1.2a1.07,1.07,0,0,1,1.127-1.187c1.352-.03,2.705-.036,4.057,0a1.065,1.065,0,0,1,1.14,1.268,1.682,1.682,0,0,0,1.575,2.206.2.2,0,0,1,.085.034c.9.658,1.582.489,2.295-.389s1.266-.827,2.084-.022,1.662,1.642,2.476,2.479c.713.732.712,1.23-.009,1.973C-580.472,268.16-580.864,268.461-581.215,268.769Zm-22.658-1.344c-.4-.81.1-1.345.658-1.88.775-.745,1.5-1.548,2.3-2.261a1.609,1.609,0,0,1,1.118-.449c.559.09.7-.2.886-.56a13.22,13.22,0,0,0,1.282-8.928A13.315,13.315,0,0,0-613.044,242.9a13.316,13.316,0,0,0-10.8,14.908,1.407,1.407,0,0,0,.34.8,14.676,14.676,0,0,1,4.07,6.987,1.615,1.615,0,0,0,.431.772A13.147,13.147,0,0,0-603.872,267.425Zm-18.9,6.832c.656-.677,1.307-1.286,1.875-1.966a1.447,1.447,0,0,0,.34-1.035c-.354-1.836-.681-3.688-1.211-5.476-1.462-4.931-5.038-7.944-9.685-8.3A11.006,11.006,0,0,0-643.11,266a10.71,10.71,0,0,0,6.668,12.576,58.367,58.367,0,0,0,7.039,1.738.773.773,0,0,0,.6-.083c.6-.546,1.16-1.136,1.757-1.733-2.207-2.206-4.314-4.313-6.423-6.417-.107-.107-.245-.268-.364-.264-.548.017-1.224-.093-1.6.185a1.622,1.622,0,0,0-.458,1.425,1.928,1.928,0,0,0,1.131,1.008,1.6,1.6,0,0,0,1.172-.308c.63-.4,1.2-.512,1.721.089.47.537.3,1.158-.41,1.73a3.7,3.7,0,0,1-5.745-1.709,3.661,3.661,0,0,1,1.432-4.219,3.605,3.605,0,0,1,4.576.4c1.965,1.9,3.885,3.849,5.8,5.8a3.665,3.665,0,0,1,.486.9l.274-.326,1.159-1.014c-.679-.645-1.29-1.206-1.878-1.789-1.592-1.58-3.209-3.137-4.751-4.765a3.609,3.609,0,0,1,.082-5.075,3.65,3.65,0,0,1,5.008-.183,3.657,3.657,0,0,1,.518,4.989c-.546.711-1.19.913-1.727.489-.666-.528-.6-1.111-.114-1.762a1.429,1.429,0,0,0-.207-2.119,1.447,1.447,0,0,0-1.926.155,1.406,1.406,0,0,0,.066,2.066C-627.114,269.933-624.977,272.051-622.773,274.257Zm40.653-7.244-.278-.169-1.289-1.315c-.216.205-.44.41-.656.622-.927.913-1.12.884-2.239.322a22.11,22.11,0,0,0-3.142-1.258c-.722-.232-1.112-.6-1.094-1.363.011-.446,0-.893,0-1.316h-1.99c0,.379,0,.683,0,.986-.009,1.3-.1,1.4-1.384,1.756a6.925,6.925,0,0,0-1.809.66c-1.464.917-2.829,1.5-3.907-.58l-1.546,1.587c.327.24.635.448.922.68a1.389,1.389,0,0,1,.256,2.1,10.376,10.376,0,0,0-1.03,2.152c-.713,2.032-.688,2.04-2.767,2.169-.052,0-.1.055-.233.133v1.774c.36,0,.574,0,.788,0,1.584.017,1.628.068,2.062,1.617a5.713,5.713,0,0,0,.649,1.713c1.017,1.469,1.309,2.783-.731,3.9l1.205,1c.117.1.235.19.387.313.236-.225.458-.431.673-.644.974-.965,1.122-.934,2.306-.333a19.1,19.1,0,0,0,3.058,1.225,1.309,1.309,0,0,1,1.124,1.431c-.015.42,0,.842,0,1.341.425,0,.727.006,1.028,0s.592-.027.941-.043c0-.385,0-.688,0-.992.006-1.282.154-1.382,1.371-1.786a22.2,22.2,0,0,0,3.112-1.339,1.289,1.289,0,0,1,1.736.205c.309.323.637.628.943.929l1.541-1.448a7.8,7.8,0,0,1-.872-.643c-.894-.88-.852-1.091-.276-2.24A20.807,20.807,0,0,0-582.009,277a1.264,1.264,0,0,1,1.3-1.052c.451-.009.9,0,1.4,0v-1.939c-.376,0-.7,0-1.034,0-1.2-.011-1.366-.2-1.745-1.329a24.982,24.982,0,0,0-1.313-3.121c-.327-.659-.432-1.222.16-1.736C-582.893,267.525-582.5,267.282-582.12,267.013Zm-34.4,6.407c-.266-.3-.467-.741-.731-.784a1.457,1.457,0,0,0-1.108.332c-3.194,3.144-6.353,6.325-9.528,9.49-.443.441-.7.9-.19,1.425s.974.277,1.417-.165q4.757-4.752,9.522-9.5A8.492,8.492,0,0,0-616.518,273.419Zm-8.07,13.68a10.046,10.046,0,0,0,.836-.663q2.192-2.169,4.365-4.357c1.714-1.714,3.438-3.419,5.127-5.158a1.253,1.253,0,0,0,.333-.948.936.936,0,0,0-.69-.6,1.63,1.63,0,0,0-1,.478q-4.712,4.662-9.384,9.364c-.13.13-.323.252-.36.407a1.307,1.307,0,0,0-.016.84C-625.237,286.72-624.9,286.865-624.588,287.1Zm4.846-1.288c.279.135.575.29.88.426,1.313.583,1.435.558,2.456-.462l1.167-1.167c1.224-1.225,1.232-1.259.506-2.833-.109-.238-.246-.463-.339-.636Z" transform="translate(-7.033)" fill="#03386e"/>
      <path id="Trazado_837277" data-name="Trazado 837277" d="M-598.593,339.8c-1.962-1.118-3.961-2.175-5.868-3.379a8.754,8.754,0,0,1-2.516-2.222,3.376,3.376,0,0,1,2.379-5.426,8.518,8.518,0,0,1,5.508,1.063c3.507,1.838,6.98,3.738,10.46,5.627.618.336,1.2.738,1.9,1.171.631-1.516,1.895-1.66,3.3-1.595,1.35.062,2.7.006,4.057.035a2.394,2.394,0,0,1,2.595,2.593q.03,7.286.012,14.573a2.38,2.38,0,0,1-2.56,2.616c-1.721.019-3.445.026-5.162-.062a2.649,2.649,0,0,1-1.573-.608,2.04,2.04,0,0,0-1.541-.585c-6.608-.029-13.217-.13-19.824-.091a10.841,10.841,0,0,1-6.271-1.76q-8.356-5.568-16.666-11.205a22.252,22.252,0,0,1-2.076-1.531,2.862,2.862,0,0,1-1.208-3.154,3.089,3.089,0,0,1,2.89-2.089c1.054-.1,2.125-.021,3.3-.021.874-1.756,2.686-2.432,5.323-1.661a9.138,9.138,0,0,1,2.458,1.216c1.939,1.3,3.881,2.607,5.716,4.047,2.119,1.663,4.648,2.314,7.1,3.166a2.824,2.824,0,0,0,1.1.028c2.358-.182,4.715-.379,7.073-.57Zm11.728,11.583c0-.425,0-.757,0-1.088q-.007-3.873-.014-7.746c0-3.479.029-3.529-3.014-5.232-3.4-1.9-6.843-3.734-10.3-5.537a6.016,6.016,0,0,0-4.076-.813c-1.25.264-1.643,1.17-.846,2.162a7.047,7.047,0,0,0,1.762,1.437c2.281,1.441,4.613,2.8,6.878,4.269a1.828,1.828,0,0,1,1.046,1.991c-.237.913-1.1.732-1.759.858a76.7,76.7,0,0,1-17.058,1.251,7.509,7.509,0,0,1-3.13-.9c-3.338-1.765-6.584-3.7-9.923-5.464a7.888,7.888,0,0,0-2.9-.676c-.417-.039-.88.4-1.321.62a5.453,5.453,0,0,0,.892,1.1c1.862,1.356,3.734,2.7,5.653,3.977,4.4,2.921,8.822,5.8,13.244,8.688a6.71,6.71,0,0,0,3.773.982c6.3.015,12.6.075,18.9.117C-588.352,351.385-587.654,351.381-586.864,351.381Zm7.816-14.067h-5.565v15.334c1.616,0,3.174-.036,4.729.015.742.025.925-.23.92-.945-.034-4.514-.022-9.027-.029-13.541C-578.994,337.909-579.027,337.641-579.049,337.314Zm-33.919,3.431c-2.738-1.937-5.31-3.821-7.958-5.59a8.3,8.3,0,0,0-2.773-1.091c-.46-.1-1.032.3-1.553.468.334.4.592.933,1.015,1.179,2.546,1.477,5.155,2.845,7.69,4.341A5.765,5.765,0,0,0-612.968,340.745Z" transform="translate(-12.794 -43.092)" fill="#03386e"/>
      <path id="Trazado_837278" data-name="Trazado 837278" d="M-657.829,274.575c.429.148.637.2.829.289,1.255.571,2.51,1.142,3.758,1.727.663.311,1.05.809.711,1.549s-.957.771-1.63.46c-1.308-.6-2.644-1.155-3.9-1.852a1.541,1.541,0,0,1-.584-1.25C-658.614,275.149-658.087,274.846-657.829,274.575Z" transform="translate(-0.654 -16.684)" fill="#03386e"/>
      <path id="Trazado_837279" data-name="Trazado 837279" d="M-631.4,258.833c-.328.309-.625.815-.992.873a1.391,1.391,0,0,1-1.2-.523,39.72,39.72,0,0,1-1.66-4.577,1.333,1.333,0,0,1,.62-1.138,1.31,1.31,0,0,1,1.237.314C-632.675,255.37-632.094,257.018-631.4,258.833Z" transform="translate(-12.073 -6.355)" fill="#03386e"/>
      <path id="Trazado_837280" data-name="Trazado 837280" d="M-659.094,307.515c-.333-.328-.832-.594-.884-.93-.061-.39.159-1.1.449-1.224a41.089,41.089,0,0,1,4.654-1.689,1.363,1.363,0,0,1,1.125.636,1.236,1.236,0,0,1-.274,1.176C-655.636,306.209-657.3,306.815-659.094,307.515Z" transform="translate(0 -30.884)" fill="#03386e"/>
      <path id="Trazado_837281" data-name="Trazado 837281" d="M-634.45,322.992a8.566,8.566,0,0,1-.264.825c-.577,1.252-1.17,2.5-1.744,3.75-.317.691-.831,1.034-1.545.721s-.793-.942-.475-1.626c.607-1.305,1.157-2.643,1.856-3.9a1.549,1.549,0,0,1,1.255-.6C-635.018,322.2-634.714,322.736-634.45,322.992Z" transform="translate(-10.413 -39.919)" fill="#03386e"/>
      <path id="Trazado_837282" data-name="Trazado 837282" d="M-585.879,265.233a4.021,4.021,0,0,0,2.45,3.58,1.1,1.1,0,0,1,.761,1.225c-.021.864.471,1.438,1.137,1.366a1.093,1.093,0,0,0,1.05-1.348c-.086-.707.223-.987.84-1.268a4.244,4.244,0,0,0,2.387-4.31c-.181-2.044-.952-2.963-3.007-3.56-.678-.2-1.372-.34-2.041-.561a1.753,1.753,0,0,1-1.346-1.856,2.113,2.113,0,0,1,1.474-2.009c1.351-.422,2.476.383,2.755,2.018.124.73.507,1.156,1.228,1.068a1.1,1.1,0,0,0,.969-1.337,4.093,4.093,0,0,0-2.388-3.575,1.184,1.184,0,0,1-.861-1.363,1.01,1.01,0,0,0-1.038-1.238,1.038,1.038,0,0,0-1.14,1.243,1.222,1.222,0,0,1-.859,1.371,4.323,4.323,0,0,0-2.334,4.609c.161,1.717,1.058,2.69,3.02,3.259.677.2,1.375.331,2.037.567a1.777,1.777,0,0,1,1.254,2.246,2.04,2.04,0,0,1-2.02,1.675c-1.169,0-1.856-.659-2.127-2.084-.132-.695-.47-1.15-1.233-1.077C-585.628,263.942-585.881,264.431-585.879,265.233Z" transform="translate(-36.184 -5.694)" fill="#03386e"/>
      <path id="Trazado_837283" data-name="Trazado 837283" d="M-585.879,265.233c0-.8.251-1.29.969-1.359.763-.073,1.1.382,1.233,1.077.272,1.426.958,2.089,2.127,2.084a2.04,2.04,0,0,0,2.02-1.675,1.777,1.777,0,0,0-1.254-2.246c-.662-.236-1.36-.37-2.037-.567-1.962-.569-2.859-1.542-3.02-3.259a4.323,4.323,0,0,1,2.334-4.609,1.222,1.222,0,0,0,.859-1.371,1.038,1.038,0,0,1,1.14-1.243,1.01,1.01,0,0,1,1.038,1.238,1.184,1.184,0,0,0,.861,1.363,4.093,4.093,0,0,1,2.388,3.575,1.1,1.1,0,0,1-.969,1.337c-.721.088-1.1-.338-1.228-1.068-.279-1.636-1.4-2.44-2.755-2.018a2.113,2.113,0,0,0-1.474,2.009,1.753,1.753,0,0,0,1.346,1.856c.669.221,1.363.364,2.041.561,2.055.6,2.826,1.515,3.007,3.56a4.244,4.244,0,0,1-2.387,4.31c-.617.281-.926.56-.84,1.268a1.093,1.093,0,0,1-1.05,1.348c-.665.072-1.158-.5-1.137-1.366a1.1,1.1,0,0,0-.761-1.225A4.021,4.021,0,0,1-585.879,265.233Z" transform="translate(-36.184 -5.694)" fill="#03386e"/>
      <path id="Trazado_837284" data-name="Trazado 837284" d="M-540.133,300.271a8.067,8.067,0,0,1-8.06,8.1,8.062,8.062,0,0,1-8.045-8.115,8.043,8.043,0,0,1,8.009-8.053A8.065,8.065,0,0,1-540.133,300.271Zm-2.218.03a5.868,5.868,0,0,0-5.824-5.885,5.852,5.852,0,0,0-5.861,5.843,5.854,5.854,0,0,0,5.819,5.888A5.872,5.872,0,0,0-542.352,300.3Z" transform="translate(-50.656 -25.291)" fill="#03386e"/>
    </g>
  </g>
</svg>
