<svg xmlns="http://www.w3.org/2000/svg" width="107" height="107" viewBox="0 0 107 107">
  <g id="Grupo_1083899" data-name="Grupo 1083899" transform="translate(-285 -598.563)">
    <g id="Grupo_156312" data-name="Grupo 156312" transform="translate(-3.668 -3849.437)">
      <path id="Elipse_5845" data-name="Elipse 5845" d="M53.5,0A53.5,53.5,0,1,1,0,53.5,53.5,53.5,0,0,1,53.5,0Z" transform="translate(288.668 4448)" fill="#6debff"/>
    </g>
    <g id="Grupo_1083451" data-name="Grupo 1083451" transform="translate(1207.453 218.294)">
      <path id="Trazado_837293" data-name="Trazado 837293" d="M-847.711,457.143c0,1.448,0,2.865,0,4.282a5.672,5.672,0,0,1-5.929,5.933q-19.041.007-38.082,0a5.671,5.671,0,0,1-5.918-5.945c0-.591-.006-1.182,0-1.772.012-.935.412-1.346,1.335-1.355,1.036-.011,2.073,0,3.156,0v-2.271c-1.9,0-3.784.026-5.667-.008a5.526,5.526,0,0,1-4.631-2.46,5.327,5.327,0,0,1-1-3.124q-.009-17.088,0-34.177a5.619,5.619,0,0,1,5.6-5.609c1.886-.027,3.772-.005,5.739-.005,0-1.751-.01-3.445.006-5.138a9.56,9.56,0,0,1,.131-1.689,5.637,5.637,0,0,1,5.233-4.51c.283-.013.567-.01.851-.01h42.054c3.854,0,6.193,2.329,6.195,6.166q0,4.112,0,8.225c0,1.113-.378,1.492-1.486,1.493-2.5,0-5,0-7.548,0v17.05a12.466,12.466,0,0,1,9.464,6.034,12.387,12.387,0,0,1,1.766,7.109A12.628,12.628,0,0,1-847.711,457.143Zm-43.116-46.514h.835q6.772,0,13.543,0a5.679,5.679,0,0,1,6.041,6.033q0,16.661,0,33.322a5.686,5.686,0,0,1-6.048,6.028q-6.807,0-13.615,0h-.721v2.269h12.081q10.211,0,20.422,0c1.117,0,1.492.375,1.5,1.48,0,.685-.017,1.372.008,2.056a3.41,3.41,0,0,0,3.218,3.266,3.334,3.334,0,0,0,3.538-2.98c.115-1.642.024-3.3.024-5a12.476,12.476,0,0,1-8-4.022,12.178,12.178,0,0,1-3.271-8.382,12.042,12.042,0,0,1,2.378-7.354,12.516,12.516,0,0,1,8.913-5.126v-.883q0-13.045-.005-26.091a6.093,6.093,0,0,1,.893-3.3,2.823,2.823,0,0,0,.156-.353.8.8,0,0,0-.121-.029q-19.251,0-38.5,0a3.314,3.314,0,0,0-3.255,3.213C-890.865,406.691-890.827,408.605-890.827,410.629Zm-11.353,22.62q0,8.33,0,16.659c0,2.455,1.366,3.835,3.8,3.835q10.954,0,21.908,0a3.445,3.445,0,0,0,3.8-3.765q0-16.659,0-33.318a3.441,3.441,0,0,0-3.8-3.762q-10.954,0-21.908,0c-2.441,0-3.8,1.37-3.8,3.834Q-902.182,424.991-902.181,433.249Zm43.124,11.4a10.227,10.227,0,0,0,10.156,10.23,10.242,10.242,0,0,0,10.267-10.123,10.229,10.229,0,0,0-10.088-10.3A10.223,10.223,0,0,0-859.057,444.648Zm.011,15.955H-895.33c-.412,3.014,1.568,4.542,4.073,4.523,10.8-.082,21.606-.035,32.409-.035h.924A6.5,6.5,0,0,1-859.046,460.6Zm18.106-55.99a3.318,3.318,0,0,0-3.46-3.059,3.35,3.35,0,0,0-3.289,3.173c-.055,2.687-.015,5.375-.015,8.126h6.787" fill="#03386e"/>
      <path id="Trazado_837294" data-name="Trazado 837294" d="M-837.213,418.842h-10.779a4.27,4.27,0,0,1-.707-.024,1.11,1.11,0,0,1-.941-1.155,1.088,1.088,0,0,1,.959-1.067,3.784,3.784,0,0,1,.708-.022h21.63a4.043,4.043,0,0,1,.637.014,1.1,1.1,0,0,1,1.011,1.094,1.115,1.115,0,0,1-1.029,1.149,5.379,5.379,0,0,1-.638.012Z" transform="translate(-33.24 -10.482)" fill="#03386e"/>
      <path id="Trazado_837295" data-name="Trazado 837295" d="M-804.293,436.148c-2.151,0-4.3,0-6.453,0-.894,0-1.413-.426-1.413-1.133s.517-1.132,1.412-1.133q6.525,0,13.049,0c.895,0,1.414.425,1.414,1.132s-.521,1.132-1.414,1.134Q-801,436.153-804.293,436.148Z" transform="translate(-55.971 -20.981)" fill="#03386e"/>
      <path id="Trazado_837296" data-name="Trazado 837296" d="M-804.273,447.68q-3.227,0-6.453,0c-.9,0-1.42-.409-1.434-1.113-.014-.729.517-1.154,1.462-1.154q6.489,0,12.977,0c.9,0,1.421.408,1.435,1.111.015.726-.521,1.154-1.464,1.156Q-801.011,447.684-804.273,447.68Z" transform="translate(-55.971 -27.975)" fill="#03386e"/>
      <path id="Trazado_837297" data-name="Trazado 837297" d="M-804.237,459.211c-2.2,0-4.4.005-6.595,0-.851,0-1.383-.5-1.329-1.214.05-.656.538-1.048,1.351-1.05q4.326-.008,8.652,0c1.489,0,2.978,0,4.468,0,.889,0,1.41.436,1.4,1.144s-.527,1.121-1.425,1.123Q-800.975,459.217-804.237,459.211Z" transform="translate(-55.969 -34.967)" fill="#03386e"/>
      <path id="Trazado_837298" data-name="Trazado 837298" d="M-804.286,470.745q-3.227,0-6.453,0c-.9,0-1.416-.419-1.421-1.126s.513-1.139,1.4-1.14q6.524-.005,13.048,0c.9,0,1.416.419,1.422,1.125s-.517,1.14-1.406,1.142C-799.889,470.748-802.088,470.745-804.286,470.745Z" transform="translate(-55.971 -41.962)" fill="#03386e"/>
      <path id="Trazado_837299" data-name="Trazado 837299" d="M-805.844,480.007c1.584,0,3.168,0,4.751,0,.89,0,1.41.434,1.4,1.142s-.527,1.123-1.423,1.124q-4.822.005-9.645,0c-.889,0-1.409-.435-1.4-1.144s.523-1.12,1.423-1.122C-809.107,480-807.475,480.007-805.844,480.007Z" transform="translate(-55.971 -48.955)" fill="#03386e"/>
      <path id="Trazado_837300" data-name="Trazado 837300" d="M-808.237,539.934c-.875,0-1.749.009-2.623,0a1.156,1.156,0,0,1-1.3-1.1c-.018-.69.492-1.155,1.312-1.16q2.659-.014,5.318,0a1.152,1.152,0,0,1,1.3,1.1c.018.687-.5,1.152-1.314,1.162C-806.441,539.942-807.339,539.934-808.237,539.934Z" transform="translate(-55.971 -83.921)" fill="#03386e"/>
      <path id="Trazado_837301" data-name="Trazado 837301" d="M-808.7,491.536c.709,0,1.418-.015,2.127,0a1.132,1.132,0,0,1,1.208,1.122,1.122,1.122,0,0,1-1.194,1.135q-2.2.029-4.4,0a1.123,1.123,0,0,1-1.207-1.122,1.125,1.125,0,0,1,1.193-1.135C-810.211,491.52-809.454,491.536-808.7,491.536Z" transform="translate(-55.971 -55.944)" fill="#03386e"/>
      <path id="Trazado_837302" data-name="Trazado 837302" d="M-809.943,505.319c-.378,0-.758.023-1.134-.006a1.121,1.121,0,0,1-1.084-1.1,1.106,1.106,0,0,1,1.1-1.148c.779-.032,1.56-.032,2.339,0a1.1,1.1,0,0,1,1.085,1.094,1.124,1.124,0,0,1-1.1,1.152C-809.137,505.343-809.541,505.32-809.943,505.319Z" transform="translate(-55.971 -62.927)" fill="#03386e"/>
      <path id="Trazado_837303" data-name="Trazado 837303" d="M-809.872,514.61c.4,0,.806-.03,1.2.007a1.1,1.1,0,0,1,1.03,1.144,1.048,1.048,0,0,1-1.01,1.086,20.508,20.508,0,0,1-2.48.005,1.1,1.1,0,0,1-1.033-1.142,1.136,1.136,0,0,1,1.083-1.1c.047,0,.094,0,.142,0h1.064Z" transform="translate(-55.971 -69.934)" fill="#03386e"/>
      <path id="Trazado_837304" data-name="Trazado 837304" d="M-809.923,528.385c-.378,0-.758.022-1.134,0a1.123,1.123,0,0,1-1.1-1.151,1.1,1.1,0,0,1,1.083-1.1c.779-.033,1.56-.033,2.339,0a1.109,1.109,0,0,1,1.105,1.148,1.142,1.142,0,0,1-1.084,1.1,1.3,1.3,0,0,1-.142,0h-1.064Z" transform="translate(-55.971 -76.914)" fill="#03386e"/>
      <path id="Trazado_837305" data-name="Trazado 837305" d="M-880.434,439.645q5.461,0,10.922,0c1.207,0,1.56.353,1.561,1.56q0,3.05,0,6.1c0,1.017-.4,1.416-1.419,1.417q-11.064,0-22.127,0c-1.017,0-1.414-.4-1.416-1.418q-.008-3.12,0-6.24c0-1.018.4-1.414,1.417-1.416Q-885.965,439.641-880.434,439.645Zm10.183,2.32h-20.362v4.449h20.362Z" transform="translate(-6.995 -24.478)" fill="#03386e"/>
      <path id="Trazado_837306" data-name="Trazado 837306" d="M-889.512,468.471c.709,0,1.418-.012,2.127,0a1.13,1.13,0,0,1,1.263,1.21q.029,2.2,0,4.4a1.11,1.11,0,0,1-1.207,1.192q-2.2.028-4.4,0a1.108,1.108,0,0,1-1.19-1.207q-.028-2.2,0-4.4a1.111,1.111,0,0,1,1.206-1.192C-890.978,468.456-890.244,468.471-889.512,468.471Zm-1.109,4.5h2.19v-2.177h-2.19Z" transform="translate(-6.987 -41.956)" fill="#03386e"/>
      <path id="Trazado_837307" data-name="Trazado 837307" d="M-863.047,471.837c0,.733.014,1.466,0,2.2a1.131,1.131,0,0,1-1.24,1.234q-2.163.025-4.326,0a1.125,1.125,0,0,1-1.233-1.239q-.024-2.162,0-4.325a1.121,1.121,0,0,1,1.238-1.232q2.162-.024,4.325,0a1.13,1.13,0,0,1,1.235,1.238C-863.034,470.419-863.047,471.128-863.047,471.837Zm-4.494-1.089v2.207h2.169v-2.207Z" transform="translate(-20.978 -41.953)" fill="#03386e"/>
      <path id="Trazado_837308" data-name="Trazado 837308" d="M-843.318,475.274c-.733,0-1.466.012-2.2,0a1.145,1.145,0,0,1-1.266-1.28q-.02-2.127,0-4.254a1.138,1.138,0,0,1,1.278-1.266q2.127-.02,4.255,0a1.14,1.14,0,0,1,1.267,1.278q.021,2.127,0,4.254a1.146,1.146,0,0,1-1.28,1.268C-841.947,475.285-842.632,475.274-843.318,475.274Zm-1.161-4.506v2.193h2.181v-2.193Z" transform="translate(-34.969 -41.954)" fill="#03386e"/>
      <path id="Trazado_837309" data-name="Trazado 837309" d="M-889.471,491.536c.686,0,1.371-.01,2.056,0a1.145,1.145,0,0,1,1.3,1.25q.024,2.162,0,4.325a1.126,1.126,0,0,1-1.248,1.225q-2.163.023-4.326,0a1.125,1.125,0,0,1-1.223-1.248q-.022-2.162,0-4.325a1.127,1.127,0,0,1,1.247-1.224C-890.937,491.523-890.2,491.536-889.471,491.536Zm1.048,4.5v-2.19H-890.6v2.19Z" transform="translate(-6.988 -55.945)" fill="#03386e"/>
      <path id="Trazado_837310" data-name="Trazado 837310" d="M-863.047,494.983c0,.685.01,1.371,0,2.056a1.148,1.148,0,0,1-1.253,1.295q-2.163.024-4.325,0a1.125,1.125,0,0,1-1.223-1.249q-.022-2.162,0-4.325a1.122,1.122,0,0,1,1.248-1.222q2.163-.022,4.325,0a1.13,1.13,0,0,1,1.225,1.248C-863.034,493.518-863.047,494.25-863.047,494.983Zm-4.509,1.051h2.2v-2.185h-2.2Z" transform="translate(-20.978 -55.941)" fill="#03386e"/>
      <path id="Trazado_837311" data-name="Trazado 837311" d="M-889.59,521.4c-.709,0-1.419.016-2.127,0a1.115,1.115,0,0,1-1.2-1.2q-.029-2.2,0-4.4a1.106,1.106,0,0,1,1.2-1.2q2.2-.029,4.4,0a1.108,1.108,0,0,1,1.2,1.2q.03,2.2,0,4.4a1.116,1.116,0,0,1-1.2,1.2C-888.077,521.418-888.834,521.4-889.59,521.4Zm1.172-2.3v-2.2h-2.19v2.2Z" transform="translate(-6.987 -69.928)" fill="#03386e"/>
      <path id="Trazado_837312" data-name="Trazado 837312" d="M-863.046,518.017c0,.685.009,1.371,0,2.056-.013.89-.422,1.32-1.292,1.327q-2.127.02-4.255,0a1.142,1.142,0,0,1-1.255-1.29q-.019-2.127,0-4.254a1.139,1.139,0,0,1,1.288-1.255q2.127-.019,4.255,0a1.145,1.145,0,0,1,1.257,1.289C-863.036,516.6-863.046,517.308-863.046,518.017Zm-2.3,1.089v-2.2h-2.186v2.2Z" transform="translate(-20.979 -69.929)" fill="#03386e"/>
      <path id="Trazado_837313" data-name="Trazado 837313" d="M-843.318,514.6c.709,0,1.419-.016,2.127,0a1.113,1.113,0,0,1,1.2,1.2q.03,2.2,0,4.4a1.11,1.11,0,0,1-1.2,1.2q-2.2.029-4.4,0a1.109,1.109,0,0,1-1.2-1.2q-.029-2.2,0-4.4a1.112,1.112,0,0,1,1.194-1.2C-844.831,514.584-844.074,514.6-843.318,514.6Zm-1.153,2.3v2.181h2.187V516.9Z" transform="translate(-34.967 -69.932)" fill="#03386e"/>
      <path id="Trazado_837314" data-name="Trazado 837314" d="M-839.979,494.962c0,.709.013,1.418,0,2.127a1.132,1.132,0,0,1-1.23,1.244q-2.162.026-4.325,0a1.124,1.124,0,0,1-1.243-1.229q-.025-2.162,0-4.325a1.123,1.123,0,0,1,1.228-1.243q2.162-.025,4.325,0a1.13,1.13,0,0,1,1.245,1.228C-839.965,493.5-839.98,494.229-839.979,494.962Zm-2.3-1.109h-2.207v2.176h2.207Z" transform="translate(-34.968 -55.941)" fill="#03386e"/>
      <path id="Trazado_837315" data-name="Trazado 837315" d="M-771.315,496.833c.162-.88-.37-2.314,1.212-2.281,1.455.031.985,1.376,1.105,2.193.729.364,1.449.654,2.093,1.063a2.8,2.8,0,0,1,1.275,2.04,1.19,1.19,0,0,1-.929,1.444,1.16,1.16,0,0,1-1.313-1,1.463,1.463,0,0,0-.164-.457c-.72-1.043-3.541-1.031-4.24.006a.557.557,0,0,0,.243.888,12.3,12.3,0,0,0,1.86.575,16.942,16.942,0,0,1,2.587.62,2.939,2.939,0,0,1,1.962,2.856,3.121,3.121,0,0,1-2.015,2.765,14.349,14.349,0,0,1-1.377.517c0,.368.018.768,0,1.166a1.134,1.134,0,0,1-1.1,1.153,1.134,1.134,0,0,1-1.153-1.176c-.018-.375,0-.752,0-1.112a17.479,17.479,0,0,1-1.705-.732,3.106,3.106,0,0,1-1.681-2.323,1.183,1.183,0,0,1,.93-1.441,1.157,1.157,0,0,1,1.312,1,1.546,1.546,0,0,0,.125.4c.645,1.087,3.566,1.115,4.281.05a.557.557,0,0,0-.246-.887,12.3,12.3,0,0,0-1.86-.574,17.277,17.277,0,0,1-2.587-.622,2.946,2.946,0,0,1-1.961-2.787,3.087,3.087,0,0,1,1.955-2.8A13.2,13.2,0,0,1-771.315,496.833Z" transform="translate(-78.699 -57.777)" fill="#03386e"/>
    </g>
  </g>
</svg>
