<svg xmlns="http://www.w3.org/2000/svg" width="107" height="107" viewBox="0 0 107 107">
  <g id="Grupo_1083901" data-name="Grupo 1083901" transform="translate(-285 -921.563)">
    <g id="Grupo_156312" data-name="Grupo 156312" transform="translate(-3.668 -3526.437)">
      <circle id="Elipse_5845" data-name="Elipse 5845" cx="53.5" cy="53.5" r="53.5" transform="translate(288.668 4448)" fill="#6debff"/>
    </g>
    <g id="Grupo_1083452" data-name="Grupo 1083452" transform="translate(639.453 626.294)">
      <path id="Trazado_837316" data-name="Trazado 837316" d="M-278.855,325.951l-9.719,5.624q-3.239,1.874-6.479,3.745c-.816.47-1.085.395-1.559-.425q-2.138-3.7-4.269-7.4c-.124-.214-.255-.425-.42-.7-1.055.606-2.088,1.2-3.118,1.792q-11.4,6.592-22.8,13.185c-1.079.624-1.214.581-1.85-.529-.7-1.214-1.4-2.424-2.082-3.643-.423-.751-.35-1.012.406-1.449q15.477-8.964,30.958-17.92c.74-.428,1.024-.353,1.454.388q2.086,3.6,4.156,7.2c.174.3.351.6.574.98l11.422-6.6-1.971-3.437a2.578,2.578,0,0,1-.363-.65,1.466,1.466,0,0,1,0-.951.994.994,0,0,1,.84-.261c2.312.381,4.616.805,6.923,1.217,1.693.3,3.388.6,5.078.912.98.183,1.147.477.816,1.39-1.366,3.78-2.728,7.561-4.127,11.329-.12.323-.482.753-.752.769s-.675-.357-.86-.658C-277.372,328.6-278.079,327.312-278.855,325.951Zm-48.994,14.457c.261-.146.436-.242.608-.341l25.32-14.659c1.033-.6,1.209-.554,1.813.492q1.89,3.277,3.779,6.556c.259.448.527.892.812,1.375.267-.142.486-.25.7-.372q7.643-4.422,15.284-8.847c1.126-.652,1.237-.623,1.909.533l1.692,2.9,3.5-9.685-10.116-1.769c.657,1.137,1.243,2.143,1.821,3.154.474.829.41,1.09-.411,1.566q-6.02,3.49-12.047,6.969c-.817.471-1.087.394-1.561-.429q-2.132-3.7-4.257-7.4c-.134-.232-.281-.457-.439-.713l-30.231,17.488Z" transform="translate(-0.625)" fill="#03386e"/>
      <path id="Trazado_837317" data-name="Trazado 837317" d="M-230.063,394.511c0-4.953.01-9.905-.017-14.858a2.5,2.5,0,0,0-.4-1.3,10.049,10.049,0,0,1-.029-11.23,9.977,9.977,0,0,1,10.4-4.187,10.015,10.015,0,0,1,7.693,8.08,10.01,10.01,0,0,1-1.605,7.362,2.533,2.533,0,0,0-.4,1.3q-.033,14.82-.017,29.64c0,1.256-.069,1.325-1.308,1.325q-6.55,0-13.1,0c-1.068,0-1.217-.147-1.218-1.2Q-230.065,401.977-230.063,394.511Zm14.145-14.075a10.018,10.018,0,0,1-6.339,2.264,10.108,10.108,0,0,1-6.28-2.23V409.1h12.619Zm-14.807-7.711a8.529,8.529,0,0,0,8.56,8.49,8.562,8.562,0,0,0,8.421-8.564,8.523,8.523,0,0,0-8.535-8.436A8.488,8.488,0,0,0-230.725,372.724Z" transform="translate(-58.596 -27.942)" fill="#03386e"/>
      <path id="Trazado_837318" data-name="Trazado 837318" d="M-280.172,413.364c0-3.278.018-6.556-.02-9.833a2.811,2.811,0,0,0-.436-1.44,10.071,10.071,0,0,1,.008-11.172,9.973,9.973,0,0,1,10.469-4.181,10.028,10.028,0,0,1,7.637,8.14,9.662,9.662,0,0,1-1.57,7.147,2.666,2.666,0,0,0-.472,1.6q.021,9.833.008,19.666c0,1.15-.108,1.26-1.226,1.26q-6.627,0-13.254,0c-.973,0-1.142-.165-1.143-1.126Q-280.176,418.393-280.172,413.364Zm1.51,9.661h12.6V404.349c-5.461,2.9-7.118,2.9-12.6-.005Zm-2.18-26.625a8.566,8.566,0,0,0,8.306,8.605,8.569,8.569,0,0,0,8.68-8.385,8.55,8.55,0,0,0-8.425-8.634A8.527,8.527,0,0,0-280.842,396.4Z" transform="translate(-29.315 -41.843)" fill="#03386e"/>
      <path id="Trazado_837319" data-name="Trazado 837319" d="M-322.538,435.478q-3.332,0-6.664,0c-.963,0-1.131-.165-1.132-1.141,0-4.053.012-8.106-.021-12.159a2.66,2.66,0,0,0-.424-1.373,10.048,10.048,0,0,1,.069-11.294,9.979,9.979,0,0,1,10.521-4.04,10.019,10.019,0,0,1,7.544,8.308,10.057,10.057,0,0,1-1.591,7.013,2.834,2.834,0,0,0-.435,1.439c-.034,4.028-.018,8.056-.02,12.084,0,1.006-.162,1.163-1.183,1.164Q-319.207,435.481-322.538,435.478Zm8.513-20.266a8.542,8.542,0,0,0-8.466-8.519,8.558,8.558,0,0,0-8.517,8.548,8.572,8.572,0,0,0,8.508,8.486A8.557,8.557,0,0,0-314.025,415.212Zm-14.817,18.74h12.614V423.02c-4.233,2.909-8.4,2.891-12.614-.03Z" transform="translate(0 -52.773)" fill="#03386e"/>
      <path id="Trazado_837320" data-name="Trazado 837320" d="M-212.195,371.68v3.649a3.386,3.386,0,0,1,2.587,3.39,3.345,3.345,0,0,1-2.562,3.276c-.219.615.31,1.668-.8,1.666s-.586-1.053-.8-1.638l-.146.154c-.66-.61-1.354-1.189-1.964-1.847a2.079,2.079,0,0,1-.389-1.035c-.091-.537-.212-1.2.56-1.318.729-.113.73.524.9,1.027a8.671,8.671,0,0,0,.785,1.409l.3-.106c0-1.131.01-2.262-.015-3.391,0-.114-.2-.269-.335-.326A3.256,3.256,0,0,1-216.3,373.3a3.289,3.289,0,0,1,2.421-3.165.768.768,0,0,0,.13-.082c.18-.612-.292-1.7.838-1.663,1,.032.573,1.026.728,1.686a3.4,3.4,0,0,1,2.173,1.73,5.147,5.147,0,0,1,.4,1.5.632.632,0,0,1-.684.782,1.064,1.064,0,0,1-.721-.661A2.2,2.2,0,0,0-212.195,371.68Zm-.008,8.684a1.81,1.81,0,0,0,1.122-1.915,1.67,1.67,0,0,0-1.122-1.438Zm-1.558-5.279v-3.38a1.74,1.74,0,0,0-1.086,1.635A1.788,1.788,0,0,0-213.76,375.085Z" transform="translate(-67.876 -31.261)" fill="#03386e"/>
      <path id="Trazado_837321" data-name="Trazado 837321" d="M-263.848,393.845c.194-.591-.293-1.643.765-1.661,1.142-.02.594,1.087.828,1.7a3.393,3.393,0,0,1,2.54,2.99c.057.5-.027.941-.611,1.01-.569.068-.778-.294-.835-.819a1.874,1.874,0,0,0-1.094-1.588v3.684a3.422,3.422,0,0,1,2.478,2.522,3.263,3.263,0,0,1-1.893,3.82.874.874,0,0,0-.66,1.042c.054.5-.125.922-.712.929-.635.007-.788-.446-.751-.972a.847.847,0,0,0-.627-.991,3.116,3.116,0,0,1-1.978-2.771c-.047-.494.049-.932.641-.988.535-.05.74.294.8.781a1.879,1.879,0,0,0,1.155,1.642c0-1.193.012-2.3-.016-3.411,0-.132-.2-.316-.349-.379a3.275,3.275,0,0,1-2.231-3.3,3.266,3.266,0,0,1,2.428-3.155A.613.613,0,0,0-263.848,393.845Zm1.575,6.927v3.389a1.776,1.776,0,0,0,1.09-1.689A1.749,1.749,0,0,0-262.273,400.772Zm-1.568-5.294a1.828,1.828,0,0,0-1.08,1.782,1.79,1.79,0,0,0,1.08,1.629Z" transform="translate(-38.611 -45.166)" fill="#03386e"/>
      <path id="Trazado_837322" data-name="Trazado 837322" d="M-312.482,414.169v3.677c.2.081.412.148.606.245a3.25,3.25,0,0,1,1.973,3.1,3.134,3.134,0,0,1-1.95,3.024c-.475.214-.717.419-.661.964.053.513-.091,1-.719,1.009-.692.012-.788-.506-.74-1.047a.732.732,0,0,0-.557-.876,3.189,3.189,0,0,1-2.06-2.722c-.07-.52,0-1,.625-1.069.575-.068.764.311.822.832a1.784,1.784,0,0,0,1.106,1.548v-3.521a10.262,10.262,0,0,1-1.688-1.2,3.312,3.312,0,0,1,1.182-5.344c.446-.188.618-.395.57-.866-.054-.543.057-1.062.742-1.045s.756.554.72,1.084a.708.708,0,0,0,.534.82,3.173,3.173,0,0,1,2.072,2.942c.027.451-.124.805-.625.858a.678.678,0,0,1-.8-.686A1.982,1.982,0,0,0-312.482,414.169Zm-1.567,3.42V414.17a1.848,1.848,0,0,0-1.094,1.693A1.83,1.83,0,0,0-314.049,417.589Zm1.58,5.322a1.921,1.921,0,0,0,1.09-1.946,1.712,1.712,0,0,0-1.09-1.486Z" transform="translate(-9.264 -56.091)" fill="#03386e"/>
    </g>
  </g>
</svg>
