<svg id="Grupo_1084062" data-name="Grupo 1084062" xmlns="http://www.w3.org/2000/svg" xmlns:xlink="http://www.w3.org/1999/xlink" width="65" height="64.983" viewBox="0 0 65 64.983">
  <defs>
    <clipPath id="clip-path">
      <rect id="Rectángulo_385140" data-name="Rectángulo 385140" width="65" height="64.983" fill="none"/>
    </clipPath>
  </defs>
  <g id="Grupo_1084061" data-name="Grupo 1084061" clip-path="url(#clip-path)">
    <path id="Trazado_838184" data-name="Trazado 838184" d="M30.426,195.434a19.726,19.726,0,0,1-5.894-1.087,26.65,26.65,0,0,1-17.82-17.973c-.368-1.135-.07-.985-1.342-.993-1.474-.008-2.949,0-4.423,0H0l5.687-8.808c.229-.321.465-.638.686-.965q1.129-1.67,2.25-3.345a4.693,4.693,0,0,1-.062.785,10.556,10.556,0,0,0-.41,1.433c-.135,1.427-.251,2.859-.277,4.291a23.119,23.119,0,0,0,1.443,8.212,24.429,24.429,0,0,0,5.337,8.663,23.753,23.753,0,0,0,7.814,5.493c1.09.478,2.256.779,3.388,1.161l.184.162c.229.174.45.36.689.52q1.844,1.231,3.7,2.451" transform="translate(0 -136.144)" fill="#04c0f9"/>
    <path id="Trazado_838185" data-name="Trazado 838185" d="M166.163,239.567q-1.849-1.224-3.7-2.451c-.239-.159-.46-.346-.689-.52.233.052.464.115.7.154a38.517,38.517,0,0,0,4,.623,22.471,22.471,0,0,0,4.238-.153,28.884,28.884,0,0,0,5.155-1.033,24.131,24.131,0,0,0,11.967-8.508,23.016,23.016,0,0,0,4.069-8.295l.461-.65,2.622-3.872a21.161,21.161,0,0,1-1.569,7.334,26.66,26.66,0,0,1-17.637,16.411c-.254.08-.508.162-.83.264v6.388l-8.8-5.693" transform="translate(-135.738 -180.277)" fill="#d9101a"/>
    <path id="Trazado_838186" data-name="Trazado 838186" d="M38.267,26.118q-1.125,1.673-2.25,3.345c-.221.327-.457.644-.686.965a24.694,24.694,0,0,1,2.752-9.992A26.641,26.641,0,0,1,54.589,6.667c.253-.077.5-.167.8-.266V0l8.857,5.726,4.362,2.939a2.223,2.223,0,0,1-.4-.025A24.71,24.71,0,0,0,59.817,8a25.866,25.866,0,0,0-6.36,1.458,24,24,0,0,0-8.239,5.117,23.708,23.708,0,0,0-5.559,7.859c-.487,1.114-.8,2.306-1.185,3.462l-.206.221" transform="translate(-29.644)" fill="#f9c603"/>
    <path id="Trazado_838187" data-name="Trazado 838187" d="M219.315,38.514l-4.362-2.939a40.361,40.361,0,0,1,4.885.8c8.982,2.585,15.1,8.322,18.411,17.051.133.35.229.713.342,1.071s.222.709.344,1.1h6.418l-5.743,8.835-2.622,3.872a5.244,5.244,0,0,1-.036-.755c.165-1.771.382-3.539.5-5.313a21.3,21.3,0,0,0-.138-2.387,19.044,19.044,0,0,0-1.218-5.669,24.56,24.56,0,0,0-7.26-10.558,24.859,24.859,0,0,0-6.076-3.817c-1.063-.465-2.2-.751-3.311-1.118Z" transform="translate(-180.353 -29.849)" fill="#11d291"/>
    <path id="Trazado_838188" data-name="Trazado 838188" d="M190.95,221.429a23.016,23.016,0,0,1-4.069,8.295,24.131,24.131,0,0,1-11.967,8.508,28.884,28.884,0,0,1-5.155,1.033,22.473,22.473,0,0,1-4.238.153,38.477,38.477,0,0,1-4-.623c-.235-.039-.466-.1-.7-.154l-.184-.162,4.134-2.7c.209-.117.426-.222.626-.352q3.874-2.517,7.745-5.038c.236-.154.482-.292.843-.508v4.89c.241-.072.4-.108.541-.165a20.677,20.677,0,0,0,12.366-12.2,44.887,44.887,0,0,0,1.353-5.108l2.709,4.129" transform="translate(-134.776 -182.322)" fill="#ef4626"/>
    <path id="Trazado_838189" data-name="Trazado 838189" d="M71.014,188.443l-4.134,2.7c-1.132-.382-2.3-.683-3.388-1.161a23.758,23.758,0,0,1-7.814-5.493,24.429,24.429,0,0,1-5.337-8.663,23.113,23.113,0,0,1-1.443-8.212c.027-1.432.142-2.865.277-4.291a10.581,10.581,0,0,1,.41-1.434,4.676,4.676,0,0,0,.062-.785l.206-.221,2.709,4.1c.117.209.222.425.352.625q2.519,3.879,5.042,7.755c.153.235.289.481.511.852H53.622a2.015,2.015,0,0,0,.021.246,2.913,2.913,0,0,0,.1.307,21.033,21.033,0,0,0,10.673,11.719,22.558,22.558,0,0,0,6.6,1.956" transform="translate(-41.024 -134.988)" fill="#03cffa"/>
    <path id="Trazado_838190" data-name="Trazado 838190" d="M238.609,85.183,235.9,81.054l-5.963-9.213h4.928c-.067-.221-.1-.349-.144-.472a20.99,20.99,0,0,0-10.762-11.826,23,23,0,0,0-6.525-1.925l4.1-2.7c1.106.367,2.248.653,3.311,1.118a24.863,24.863,0,0,1,6.076,3.817,24.561,24.561,0,0,1,7.261,10.558,19.046,19.046,0,0,1,1.218,5.669,21.3,21.3,0,0,1,.138,2.387c-.118,1.774-.335,3.542-.5,5.313a5.2,5.2,0,0,0,.036.755l-.461.65" transform="translate(-182.435 -46.076)" fill="#07e29c"/>
    <path id="Trazado_838191" data-name="Trazado 838191" d="M85.119,49.941l-4.1,2.7q-3.617,2.329-7.233,4.657c-.619.4-1.242.791-2,1.274V53.641c-.478.174-.858.3-1.226.449a21.037,21.037,0,0,0-9.754,8.089A21.649,21.649,0,0,0,57.561,71.1L54.852,67c.39-1.156.7-2.348,1.185-3.462A23.7,23.7,0,0,1,61.6,55.678a24,24,0,0,1,8.239-5.117A25.865,25.865,0,0,1,76.2,49.1a24.709,24.709,0,0,1,8.39.639,2.224,2.224,0,0,0,.4.025l.134.174" transform="translate(-46.023 -41.102)" fill="#fcd304"/>
    <path id="Trazado_838192" data-name="Trazado 838192" d="M140.3,121.58a12.921,12.921,0,1,1,0,25.768l-.633-.058-.508-.071c-.156-.146-.288-.373-.471-.428a12.475,12.475,0,0,1-6.375-4.461,12.287,12.287,0,0,1-2.622-6.667,12.906,12.906,0,0,1,1.092-6.552,13.047,13.047,0,0,1,3.514-4.6,12.546,12.546,0,0,1,4.465-2.41c.162-.049.276-.258.412-.392l.043-.013.024.038,1.059-.156m.643,3.392c-.421.049-.843.1-1.264.149a8.606,8.606,0,0,0-5.866,3.419,9.246,9.246,0,0,0-1.392,9.426,9.436,9.436,0,0,0,8.522,5.99,9.335,9.335,0,0,0,8.475-4.662,9.477,9.477,0,0,0-.516-10.468,9.379,9.379,0,0,0-7.959-3.854" transform="translate(-108.777 -101.964)" fill="#fda614"/>
    <path id="Trazado_838193" data-name="Trazado 838193" d="M132.079,122.678c-.136.134-.25.343-.412.392a12.548,12.548,0,0,0-4.466,2.41,13.046,13.046,0,0,0-3.514,4.6,12.906,12.906,0,0,0-1.092,6.552,12.288,12.288,0,0,0,2.622,6.667,12.473,12.473,0,0,0,6.375,4.461c.183.055.315.281.471.428a12.548,12.548,0,0,1-10.036-8.257,12.966,12.966,0,0,1,9.494-17.194c.183-.035.372-.039.558-.057" transform="translate(-101.678 -102.931)" fill="#ee9c0e"/>
    <path id="Trazado_838194" data-name="Trazado 838194" d="M190.342,121.863l-1.059.156,1.059-.156" transform="translate(-158.816 -102.247)" fill="#ee9c0e"/>
    <path id="Trazado_838195" data-name="Trazado 838195" d="M191.927,281.589l.633.058-.633-.058" transform="translate(-161.034 -236.263)" fill="#ee9c0e"/>
    <path id="Trazado_838196" data-name="Trazado 838196" d="M161.146,142.933a9.379,9.379,0,0,1,7.959,3.854,9.477,9.477,0,0,1,.516,10.468,9.335,9.335,0,0,1-8.475,4.662c-.278-.153-.551-.319-.836-.457a16.636,16.636,0,0,1-2.5-1.219,9.538,9.538,0,0,1-2.89-12.466,9.342,9.342,0,0,1,5.846-4.529c.144-.038.253-.206.378-.313m1.28,6.164a2.223,2.223,0,0,1,.542-.042c.514.106.689.509.852.958.174.481.492.836,1.091.693a.893.893,0,0,0,.714-1.152,3.712,3.712,0,0,0-.611-1.36,3.4,3.4,0,0,0-2.516-1.157c-.19-1.431-.369-1.714-1.049-1.705-.654.009-.806.258-1.028,1.719-1.723.457-3.175,1.261-3.126,3.347.047,1.982,1.515,2.579,3.163,2.9v2.487c-.228,0-.482.076-.574-.014a4.766,4.766,0,0,1-.759-.956c-.262-.441-.519-.821-1.117-.67a.9.9,0,0,0-.7,1.16,3.759,3.759,0,0,0,.618,1.357,3.436,3.436,0,0,0,2.517,1.15c.161,1.385.33,1.673.972,1.7.675.03.85-.238,1.106-1.738.26-.07.545-.131.819-.224,1.409-.478,2.863-2.044,2.121-3.894a3.348,3.348,0,0,0-2.412-2.041c-.319-.085-.634-.137-.625-.582.013-.636,0-1.273,0-1.941" transform="translate(-128.976 -119.926)" fill="#fdd202"/>
    <path id="Trazado_838197" data-name="Trazado 838197" d="M151.759,142.934c-.125.107-.235.275-.378.313a9.342,9.342,0,0,0-5.846,4.529,9.538,9.538,0,0,0,2.89,12.466,16.624,16.624,0,0,0,2.5,1.219c.286.138.558.3.836.457a9.436,9.436,0,0,1-8.522-5.99,9.246,9.246,0,0,1,1.392-9.426,8.606,8.606,0,0,1,5.866-3.419c.421-.053.842-.1,1.264-.149" transform="translate(-119.589 -119.927)" fill="#f9c500"/>
    <path id="Trazado_838198" data-name="Trazado 838198" d="M180.949,161.6c0,.667.01,1.3,0,1.941-.009.444.306.5.625.582a3.349,3.349,0,0,1,2.412,2.042c.742,1.85-.712,3.416-2.121,3.894-.274.093-.56.154-.82.224-.256,1.5-.43,1.769-1.105,1.738-.641-.029-.811-.318-.972-1.7a3.436,3.436,0,0,1-2.517-1.15,3.757,3.757,0,0,1-.618-1.357.9.9,0,0,1,.7-1.16c.6-.151.856.229,1.117.67a4.767,4.767,0,0,0,.759.956c.092.09.346.014.574.014v-2.487c-1.648-.323-3.116-.921-3.163-2.9-.05-2.086,1.4-2.89,3.126-3.347.222-1.462.373-1.71,1.028-1.719.68-.009.858.274,1.049,1.705a3.4,3.4,0,0,1,2.516,1.157,3.714,3.714,0,0,1,.611,1.36.893.893,0,0,1-.714,1.152c-.6.143-.917-.212-1.092-.693-.163-.449-.338-.852-.851-.958a2.224,2.224,0,0,0-.542.043m.036,6.675c.92-.189,1.283-.541,1.266-1.15-.019-.677-.394-1.012-1.266-1.111Zm-2.024-4.528v-2.159c-.949.2-1.3.584-1.235,1.311.051.587.392.831,1.235.848" transform="translate(-147.499 -132.432)" fill="#fe7300"/>
    <path id="Trazado_838199" data-name="Trazado 838199" d="M208.033,210.913v-2.261c.872.1,1.247.434,1.266,1.111.017.609-.346.961-1.266,1.15" transform="translate(-174.547 -175.066)" fill="#fdce01"/>
    <path id="Trazado_838200" data-name="Trazado 838200" d="M188.984,183.311c-.842-.017-1.184-.261-1.235-.848-.063-.727.286-1.115,1.235-1.311Z" transform="translate(-157.523 -151.993)" fill="#fdcf01"/>
  </g>
</svg>
