<svg id="Grupo_1084060" data-name="Grupo 1084060" xmlns="http://www.w3.org/2000/svg" xmlns:xlink="http://www.w3.org/1999/xlink" width="64.173" height="70.95" viewBox="0 0 64.173 70.95">
  <defs>
    <clipPath id="clip-path">
      <rect id="Rectángulo_385139" data-name="Rectángulo 385139" width="64.173" height="70.95" fill="none"/>
    </clipPath>
  </defs>
  <g id="Grupo_1084059" data-name="Grupo 1084059" clip-path="url(#clip-path)">
    <path id="Trazado_838150" data-name="Trazado 838150" d="M25.507,70.931c-7.633,0-15.266-.011-22.9.021-1.222,0-1.638-.918-2.2-1.657A3.047,3.047,0,0,1,0,67.367Q.022,35.29,0,3.213A4.136,4.136,0,0,1,1.679.185,1.492,1.492,0,0,1,2.609.007q11.449-.01,22.9,0,0,14.407,0,28.814l-1.967.013-.178-.141c-.006-.178-.016-.356-.016-.534q0-7.526,0-15.052c0-.942-.016-.957-.933-.961-1.306-.005-2.612.008-3.918-.006-.526-.006-.914.059-.695.741a1.5,1.5,0,0,1,.016.443q0,7.748-.011,15.5l-4.437.008q0-6.185-.006-12.37c0-.938,0-.94-.894-.942q-1.869,0-3.738,0c-.9,0-.9,0-.9.935q-.007,6.185-.011,12.37c-.562.013-1.124.032-1.686.036-1.1.008-1.613.332-1.642,1.054-.031.764.5,1.139,1.642,1.139q9.019,0,18.038,0c.384,0,.768.025,1.152.038a.391.391,0,0,0,.012.127l.17.15q0,19.781.009,39.562M8.533,35.782a3.514,3.514,0,0,0-.63.308,8.627,8.627,0,0,0-3.6,7.1,8.235,8.235,0,0,0,2.646,6.364,8.638,8.638,0,0,0,9.525,1.877A5.09,5.09,0,0,0,19.3,49.409a4.886,4.886,0,0,0,.661-.551A8.549,8.549,0,0,0,21.909,42a7.61,7.61,0,0,0-2.493-4.939,1.687,1.687,0,0,0-.2-.285,8.723,8.723,0,0,0-7.441-2.307,6.045,6.045,0,0,0-3.238,1.316M16.555,64.31c-1.6,0-3.207-.005-4.81,0-.863,0-1.347.385-1.371,1.051-.024.687.5,1.116,1.409,1.118q4.721.009,9.443,0c.862,0,1.285-.392,1.281-1.125s-.351-1.035-1.231-1.042c-1.574-.011-3.148,0-4.721,0M16.5,57.6c1.543,0,3.085,0,4.627,0,.971,0,1.39-.348,1.378-1.1-.011-.724-.46-1.068-1.424-1.07q-4.627,0-9.255,0c-.928,0-1.444.392-1.454,1.071s.5,1.1,1.411,1.1c1.572.006,3.144,0,4.716,0m0,4.441c1.631,0,3.263.014,4.894-.007a1.03,1.03,0,0,0,1.112-1.107.972.972,0,0,0-1.067-1.05c-3.322-.018-6.644-.023-9.966.016a1.334,1.334,0,0,0-.922.541c-.5.739.059,1.584,1.055,1.6,1.631.026,3.263.007,4.894.006M9.987,4.454c-1.421,0-2.843-.013-4.264.006a1.108,1.108,0,0,0-1.244,1.1c-.011.64.457,1.063,1.247,1.066q4.264.015,8.529,0c.82,0,1.251-.374,1.273-1.038.023-.7-.43-1.121-1.276-1.128-1.421-.012-2.843,0-4.264,0M8.32,11.073c.919,0,1.839.02,2.757-.006a1.146,1.146,0,0,0,1.168-1.1,1.138,1.138,0,0,0-1.2-1.065q-2.712-.025-5.425,0A1.079,1.079,0,0,0,4.48,10a1.09,1.09,0,0,0,1.171,1.069c.889.021,1.779,0,2.668,0M5.911,57.59v0c.384,0,.77.017,1.153,0a1.109,1.109,0,0,0,1.12-1.032,1.084,1.084,0,0,0-1.036-1.118,23.887,23.887,0,0,0-2.395,0,1.025,1.025,0,0,0-1,1.031,1.04,1.04,0,0,0,1.008,1.117c.382.031.769.006,1.153.006m.007,4.442c.414,0,.831.033,1.241-.008a1.1,1.1,0,0,0,1.026-1.131,1.086,1.086,0,0,0-1.042-1.016c-.8-.032-1.6-.035-2.394,0a1.022,1.022,0,0,0-1,1.036,1.044,1.044,0,0,0,1.015,1.112c.382.031.769.006,1.153,0m.035,4.444v.007H7.017a1.082,1.082,0,0,0,.177-.01,1.129,1.129,0,0,0,.99-1.081,1.083,1.083,0,0,0-1.075-1.069c-.8-.027-1.6-.034-2.394.008a1,1,0,0,0-.965,1.062,1.042,1.042,0,0,0,.962,1.076c.41.04.827.008,1.241.008" transform="translate(0 -0.003)" fill="#eceaf0"/>
    <path id="Trazado_838151" data-name="Trazado 838151" d="M142.165,70.928q0-19.781-.009-39.562l-.169-.15a.386.386,0,0,1-.013-.127l.183-.078c.235.023.469.065.7.065q9.434.005,18.868,0a3.655,3.655,0,0,0,.445-.01,1.079,1.079,0,0,0,1.043-1.2,1.039,1.039,0,0,0-1.126-1.008c-.711-.026-1.423-.022-2.135-.032l-.077-.307a6.763,6.763,0,0,0,.071-.7q.006-10.634,0-21.268a3.908,3.908,0,0,0-.119-.68.407.407,0,0,0-.024-.173c-.069-.049-.138-.141-.207-.141q-2.47-.013-4.94,0c-.069,0-.137.093-.205.142l-.015.185V28.508l-.03.312-4.422.01c0-.208-.008-.415-.008-.623q0-9.21,0-18.42c0-.88-.006-.884-.867-.887-1.246,0-2.491,0-3.737,0-1.041,0-1.041,0-1.042,1.069q0,9.432-.009,18.865l-2.173.064.015-.08q0-14.407,0-28.814Q153.6,0,165.041,0a2.314,2.314,0,0,1,2.6,2.469q0,18.56,0,37.12c0,.178-.014.356-.021.533a4.238,4.238,0,0,1-.3-.323,12.111,12.111,0,0,0-12.352-5.019,11.155,11.155,0,0,0-6.409,3.349,11.509,11.509,0,0,0-3.7,7.826A12.378,12.378,0,0,0,161.6,58.525a29.5,29.5,0,0,0,2.993-1.51l2.524,2.533a9.263,9.263,0,0,1-.728.769c-.343.292-.384.515-.024.842.457.414.86.888,1.286,1.336q-.005,2.892-.011,5.785a2.355,2.355,0,0,1-2.609,2.65q-11.436,0-22.872,0" transform="translate(-116.658 0)" fill="#d6d1e1"/>
    <path id="Trazado_838152" data-name="Trazado 838152" d="M178.939,197.51a11.155,11.155,0,0,1,6.409-3.349,12.111,12.111,0,0,1,12.353,5.019,4.2,4.2,0,0,0,.3.323,14.589,14.589,0,0,1,1.793,4.608,12.176,12.176,0,0,1-1.185,7.923c-.2.394-.431.776-.648,1.164l-1.547,1.792c-.133-.05-.3-.065-.394-.157-.945-.952-1.877-1.917-2.813-2.878.367-.5.772-.973,1.094-1.5a7.863,7.863,0,0,0-8.517-11.726,8.768,8.768,0,0,0-3.8,2c-.964-.94-1.931-1.876-2.886-2.825-.092-.092-.106-.263-.156-.4" transform="translate(-147.032 -159.379)" fill="#5da8f0"/>
    <path id="Trazado_838153" data-name="Trazado 838153" d="M292.209,314.436c.42-.351.834-.962,1.264-.973.374-.01.772.651,1.149,1.027q3.714,3.707,7.419,7.422a3.475,3.475,0,0,1,.726,4.372,5.5,5.5,0,0,1-.744.851c-.207-.248-.4-.513-.622-.741q-4.9-4.909-9.8-9.81c-.229-.229-.432-.483-.647-.725l1.257-1.423" transform="translate(-239.072 -257.57)" fill="#223244"/>
    <path id="Trazado_838154" data-name="Trazado 838154" d="M279.8,326.9c.215.242.418.5.647.725q4.9,4.907,9.8,9.81c.227.228.416.493.622.741a3.4,3.4,0,0,1-4.926-.125c-2.117-2.081-4.2-4.195-6.3-6.291-.229-.229-.481-.436-.722-.654-.427-.448-.83-.921-1.286-1.336-.36-.327-.319-.55.024-.842a9.264,9.264,0,0,0,.727-.769l1.265-1.225q.075-.019.152-.034" transform="translate(-227.919 -268.61)" fill="#2f4560"/>
    <path id="Trazado_838155" data-name="Trazado 838155" d="M279.407,306.3q-.077.016-.152.034l-2.353-2.545c0-.056,0-.112.006-.168l1.546-1.792a1.944,1.944,0,0,0,.851,1.81c.472.389.907.824,1.359,1.239l-1.257,1.423" transform="translate(-227.527 -248.007)" fill="#b1acca"/>
    <path id="Trazado_838156" data-name="Trazado 838156" d="M39.129,248.419a5.091,5.091,0,0,1-2.822,2.021,8.638,8.638,0,0,1-9.525-1.877,8.236,8.236,0,0,1-2.646-6.364l8.707.039a1.758,1.758,0,0,1,.376.225q2.96,2.973,5.91,5.956" transform="translate(-19.83 -199.012)" fill="#4eb1fc"/>
    <path id="Trazado_838157" data-name="Trazado 838157" d="M99.526,84.752q.006-7.748.011-15.5a1.5,1.5,0,0,0-.016-.443c-.219-.682.169-.746.695-.741,1.306.013,2.612,0,3.918.006.917,0,.933.019.933.961q0,7.526,0,15.052c0,.178.01.356.016.534a1.194,1.194,0,0,0-.025.144l-5.534-.015" transform="translate(-81.725 -55.933)" fill="#fdc72e"/>
    <path id="Trazado_838158" data-name="Trazado 838158" d="M43.807,100.3q.005-6.185.011-12.37c0-.93,0-.933.9-.935q1.869,0,3.738,0c.891,0,.893,0,.894.942q0,6.185.006,12.37l-5.553-.008" transform="translate(-35.996 -71.483)" fill="#fb545c"/>
    <path id="Trazado_838159" data-name="Trazado 838159" d="M79.264,220.167q-2.953-2.98-5.91-5.956a1.758,1.758,0,0,0-.376-.225.186.186,0,0,1,.037-.106,5.652,5.652,0,0,0,.769-.54q2.81-2.751,5.6-5.524a7.611,7.611,0,0,1,2.493,4.939,8.548,8.548,0,0,1-1.949,6.861,4.875,4.875,0,0,1-.661.551" transform="translate(-59.965 -170.76)" fill="#2dd62d"/>
    <path id="Trazado_838160" data-name="Trazado 838160" d="M58.738,195.408q-2.8,2.765-5.6,5.524a5.639,5.639,0,0,1-.769.54l-4.516-7.341a6.045,6.045,0,0,1,3.238-1.316,8.721,8.721,0,0,1,7.441,2.307,1.7,1.7,0,0,1,.2.285" transform="translate(-39.322 -158.352)" fill="#fdc72e"/>
    <path id="Trazado_838161" data-name="Trazado 838161" d="M28.467,161.617l5.553.008,4.437-.008,5.534.015.2,0,1.967-.013-.015.079q0,1.057.007,2.113l-.183.078c-.384-.013-.768-.037-1.152-.038q-9.019,0-18.038,0c-1.137,0-1.673-.375-1.642-1.139.029-.722.54-1.046,1.642-1.054.562,0,1.124-.024,1.686-.036" transform="translate(-20.656 -132.798)" fill="#425b72"/>
    <path id="Trazado_838162" data-name="Trazado 838162" d="M28.374,200.66,32.89,208a.188.188,0,0,0-.036.106l-8.707-.039a8.627,8.627,0,0,1,3.6-7.1,3.51,3.51,0,0,1,.63-.308" transform="translate(-19.841 -164.88)" fill="#fb545c"/>
    <path id="Trazado_838163" data-name="Trazado 838163" d="M64.355,360.637c1.574,0,3.148-.008,4.721,0,.88.006,1.227.315,1.231,1.042s-.419,1.123-1.281,1.125q-4.721.012-9.443,0c-.91,0-1.433-.431-1.409-1.118.023-.666.507-1.047,1.371-1.051,1.6-.007,3.207,0,4.81,0" transform="translate(-47.8 -296.329)" fill="#919191"/>
    <path id="Trazado_838164" data-name="Trazado 838164" d="M64.3,312.967c-1.572,0-3.144,0-4.716,0-.912,0-1.421-.409-1.411-1.1s.526-1.07,1.454-1.071q4.627-.007,9.255,0c.964,0,1.413.345,1.424,1.07.012.754-.407,1.1-1.378,1.1-1.542.007-3.085,0-4.627,0" transform="translate(-47.802 -255.374)" fill="#919191"/>
    <path id="Trazado_838165" data-name="Trazado 838165" d="M64.257,337.87c-1.631,0-3.263.02-4.894-.007-1-.016-1.557-.861-1.055-1.6a1.335,1.335,0,0,1,.923-.541c3.321-.039,6.644-.035,9.965-.016a.972.972,0,0,1,1.067,1.05,1.03,1.03,0,0,1-1.112,1.107c-1.631.021-3.263.007-4.894.007" transform="translate(-47.758 -275.835)" fill="#919191"/>
    <path id="Trazado_838166" data-name="Trazado 838166" d="M30.627,24.945c1.421,0,2.843-.009,4.264,0,.846.007,1.3.423,1.276,1.128-.021.664-.453,1.035-1.273,1.038q-4.264.013-8.529,0c-.79,0-1.258-.426-1.247-1.066a1.108,1.108,0,0,1,1.244-1.1c1.421-.019,2.843-.005,4.264-.006" transform="translate(-20.64 -20.493)" fill="#919191"/>
    <path id="Trazado_838167" data-name="Trazado 838167" d="M28.966,52.039c-.889,0-1.779.016-2.668,0a1.09,1.09,0,0,1-1.171-1.069,1.079,1.079,0,0,1,1.143-1.094q2.712-.027,5.425,0a1.085,1.085,0,1,1,.029,2.161c-.918.026-1.838.007-2.757.007" transform="translate(-20.646 -40.968)" fill="#919191"/>
    <path id="Trazado_838168" data-name="Trazado 838168" d="M23.185,312.9c-.384,0-.771.025-1.153-.006a1.041,1.041,0,0,1-1.008-1.117,1.025,1.025,0,0,1,1-1.031,23.937,23.937,0,0,1,2.395,0,1.084,1.084,0,0,1,1.036,1.118,1.109,1.109,0,0,1-1.12,1.032c-.383.021-.769,0-1.153,0v0" transform="translate(-17.274 -255.315)" fill="#929292"/>
    <path id="Trazado_838169" data-name="Trazado 838169" d="M23.191,337.825c-.384,0-.771.026-1.153,0a1.044,1.044,0,0,1-1.016-1.112,1.022,1.022,0,0,1,1-1.036c.8-.038,1.6-.035,2.395,0a1.087,1.087,0,0,1,1.042,1.016,1.1,1.1,0,0,1-1.026,1.132c-.41.041-.827.008-1.241.009" transform="translate(-17.273 -275.795)" fill="#929292"/>
    <path id="Trazado_838170" data-name="Trazado 838170" d="M23.231,362.766c-.414,0-.831.032-1.241-.008a1.042,1.042,0,0,1-.962-1.076,1,1,0,0,1,.965-1.062c.8-.042,1.6-.035,2.394-.008a1.083,1.083,0,0,1,1.075,1.069,1.129,1.129,0,0,1-.99,1.081,1.081,1.081,0,0,1-.177.01H23.231v-.007" transform="translate(-17.278 -296.293)" fill="#929292"/>
    <path id="Trazado_838171" data-name="Trazado 838171" d="M131.074,161.04l-.2,0a1.254,1.254,0,0,1,.025-.144l.178.141" transform="translate(-107.534 -132.209)" fill="#d6d1e1"/>
    <path id="Trazado_838172" data-name="Trazado 838172" d="M142.048,175.062l.17.15-.17-.15" transform="translate(-116.719 -143.847)" fill="#f6f6f6"/>
    <path id="Trazado_838173" data-name="Trazado 838173" d="M179.209,231.326q0,.084-.006.168l-1.436,1.237a29.485,29.485,0,0,1-2.993,1.51,12.378,12.378,0,0,1-16.735-12.568,11.509,11.509,0,0,1,3.7-7.826c.05.134.063.305.156.4.955.949,1.922,1.885,2.886,2.825,0,.056,0,.112-.005.168a7.473,7.473,0,0,0-2.044,7.3,7.864,7.864,0,0,0,9.14,5.9,6.981,6.981,0,0,0,3.965-2.133l.169,0c.936.961,1.868,1.926,2.813,2.878.091.092.261.107.394.157" transform="translate(-129.829 -175.715)" fill="#82bbf3"/>
    <path id="Trazado_838174" data-name="Trazado 838174" d="M211.875,54.091q0-11.311,0-22.623l.015-.185c.068-.05.137-.142.205-.142q2.47-.012,4.94,0c.069,0,.138.092.207.141l.024.173a3.911,3.911,0,0,1,.119.68q.01,10.634,0,21.268a6.81,6.81,0,0,1-.071.7l-.257.3h-4.988l-.2-.316" transform="translate(-174.095 -25.583)" fill="#4eb1fc"/>
    <path id="Trazado_838175" data-name="Trazado 838175" d="M155.148,69.839q0-9.432.009-18.865c0-1.068,0-1.069,1.042-1.07,1.246,0,2.491,0,3.737,0,.862,0,.867.006.867.887q0,9.21,0,18.42c0,.208,0,.415.007.623l-5.664,0" transform="translate(-127.483 -41.005)" fill="#2dd62d"/>
    <path id="Trazado_838176" data-name="Trazado 838176" d="M145.136,161.64l5.664,0,4.422-.01.227,0h4.988l.334.007c.712.009,1.424.006,2.135.032a1.039,1.039,0,0,1,1.125,1.008,1.079,1.079,0,0,1-1.043,1.2,3.656,3.656,0,0,1-.445.01q-9.434,0-18.868,0c-.235,0-.469-.042-.7-.065q0-1.056-.007-2.113l2.173-.064" transform="translate(-117.471 -132.806)" fill="#334658"/>
    <path id="Trazado_838177" data-name="Trazado 838177" d="M268.85,314.057l1.436-1.237,2.353,2.545-1.264,1.225-2.524-2.533" transform="translate(-220.911 -257.041)" fill="#c5c2d7"/>
    <path id="Trazado_838178" data-name="Trazado 838178" d="M241.287,160.277l-.334-.007.257-.3.077.308" transform="translate(-197.989 -131.445)" fill="#53a3ee"/>
    <path id="Trazado_838179" data-name="Trazado 838179" d="M211.936,160.2l-.227,0,.03-.312.2.316" transform="translate(-173.959 -131.371)" fill="#53a3ee"/>
    <path id="Trazado_838180" data-name="Trazado 838180" d="M211.888,31.966c0,.062-.01.124-.015.185,0-.062.01-.124.015-.185" transform="translate(-174.094 -26.266)" fill="#53a3ee"/>
    <path id="Trazado_838181" data-name="Trazado 838181" d="M242,32.137l-.024-.173a.406.406,0,0,1,.024.173" transform="translate(-198.831 -26.264)" fill="#53a3ee"/>
    <path id="Trazado_838182" data-name="Trazado 838182" d="M195.969,222.054c0-.056,0-.112.005-.168a8.768,8.768,0,0,1,3.8-2,7.863,7.863,0,0,1,8.517,11.726c-.321.526-.727,1-1.094,1.5l-.168,0c-.131-.159-.25-.33-.4-.475q-5.091-5.1-10.19-10.19c-.145-.145-.316-.263-.476-.394" transform="translate(-161.026 -180.532)" fill="#8ad7f8"/>
    <path id="Trazado_838183" data-name="Trazado 838183" d="M185.456,232.858c.159.131.331.249.476.394q5.1,5.091,10.19,10.19c.145.145.264.316.4.475a6.982,6.982,0,0,1-3.965,2.133,7.864,7.864,0,0,1-9.14-5.9,7.473,7.473,0,0,1,2.044-7.3" transform="translate(-150.512 -191.337)" fill="#b1e4fa"/>
  </g>
</svg>
