<svg id="Grupo_1084058" data-name="Grupo 1084058" xmlns="http://www.w3.org/2000/svg" xmlns:xlink="http://www.w3.org/1999/xlink" width="64.826" height="62.082" viewBox="0 0 64.826 62.082">
  <defs>
    <clipPath id="clip-path">
      <rect id="Rect치ngulo_385138" data-name="Rect치ngulo 385138" width="64.826" height="62.082" fill="none"/>
    </clipPath>
  </defs>
  <g id="Grupo_1084057" data-name="Grupo 1084057" clip-path="url(#clip-path)">
    <path id="Trazado_838115" data-name="Trazado 838115" d="M37.43,24.463c1.153.066,1.154.066,1.154,1.239q0,1.925,0,3.85c0,1.156,0,1.156-1.152,1.257q-3.915-.022-7.829-.043c-1.838-.007-3.677-.021-5.515.008-.642.01-.955-.194-.906-.865a13.076,13.076,0,0,1,.08-2.066l3.273,0c2.183,0,4.365.008,6.547,0,1.219-.006,1.616-.418,1.618-1.618q0-.838.005-1.677l2.724-.086" transform="translate(-19.458 -20.538)" fill="#efeef2"/>
    <path id="Trazado_838116" data-name="Trazado 838116" d="M94.566,199.1c-.259-.236-.566-.52-.566-.8q-.007-11.436,0-22.871c0-.372-.045-.753.319-1.008,2.191-.138,4.392.107,6.581-.15.159.014.317.039.476.039q10.953,0,21.906,0a7.308,7.308,0,0,0,.869-.1q.013,3.192.026,6.384c-.2.084-.388.174-.586.251a12.073,12.073,0,0,0-7.844,9.11,13.878,13.878,0,0,0,.1,5.321c-6.843,0-13.687.021-20.529-.013-.83,0-1.034.229-1.02,1.031.016.943.629,1.88.277,2.811m16.128-4.756a.837.837,0,0,0,.715-1.056.948.948,0,0,0-1.071-.758q-4.882.007-9.765,0c-.5,0-.907.18-1,.725-.086.529.059.958.664,1.083a3.133,3.133,0,0,0,.54.094q4.686.009,9.372,0a3.223,3.223,0,0,0,.541-.092m-1.937-14.97h7.7a4.535,4.535,0,0,0,.641-.012.943.943,0,0,0,.912-.947.909.909,0,0,0-.9-.943,4.633,4.633,0,0,0-.561-.011H100.986a3.793,3.793,0,0,0-.64.02.885.885,0,0,0-.83.922.942.942,0,0,0,.822.949,3.215,3.215,0,0,0,.64.021h7.779m-1.845,5.006c2,0,4.006,0,6.009,0,.859,0,1.3-.332,1.3-.955s-.441-.955-1.3-.956q-6.049-.006-12.1,0c-.814,0-1.3.37-1.312.968s.465.942,1.319.943c2.03,0,4.059,0,6.089,0m-1.36,3.085c-1.521,0-3.042,0-4.563,0-.963,0-1.473.34-1.486.97s.495.978,1.459,1h.16q4.4,0,8.805,0a2.848,2.848,0,0,0,.867-.1.886.886,0,0,0,.653-.907.871.871,0,0,0-.629-.842,2.9,2.9,0,0,0-.863-.113c-1.467-.011-2.935,0-4.4,0" transform="translate(-78.913 -146.257)" fill="#d6eafd"/>
    <path id="Trazado_838117" data-name="Trazado 838117" d="M143.052,28.8h19.441a14.024,14.024,0,0,0,2.861-.143q-.007,8.35-.014,16.7a14.1,14.1,0,0,0-2.695-.185q0-3.126,0-6.252c0-.971-.128-1.09-1.123-1.1-.454,0-.908,0-1.363,0-1.084,0-1.213.127-1.214,1.18q0,3.086,0,6.171l-4.358,0c0-1.493-.019-2.986.007-4.478.012-.706-.25-1.047-.982-1.013-.585.027-1.174.028-1.759,0-.735-.036-.99.307-.978,1.013.025,1.492,0,2.985,0,4.478l-4.339,0c0-2.748,0-5.5.009-8.244,0-.7-.209-1.123-1.012-1.086-.825.038-1.654.008-2.481.008q0-3.527,0-7.054" transform="translate(-120.1 -24.057)" fill="#d7ebfd"/>
    <path id="Trazado_838118" data-name="Trazado 838118" d="M232.315,187.5a9.289,9.289,0,0,1,4.351.855,16.082,16.082,0,0,1-3.518,30.967c-6.667.814-11.943-1.737-15.748-7.282a1.15,1.15,0,0,1-.335-.791l4.631-.03a2.587,2.587,0,0,0,1.114.987.941.941,0,0,0,.469.614,11.941,11.941,0,0,0,12.322,1.766,12.1,12.1,0,0,0-.59-22.6,18.042,18.042,0,0,0-2.685-.657q-.005-1.916-.01-3.831" transform="translate(-182.233 -157.391)" fill="#fdb238"/>
    <path id="Trazado_838119" data-name="Trazado 838119" d="M286.739,54.1q.005,1.916.01,3.831a16.113,16.113,0,0,0-4.832.393q-.013-3.192-.026-6.384a1.093,1.093,0,0,0-.006-1.631q0-1.689,0-3.377a1.1,1.1,0,0,0,.011-1.646q.007-8.35.014-16.7c1.041,0,2.083-.024,3.124-.005a1.5,1.5,0,0,1,1.682,1.73q0,11.334,0,22.668c0,.374.014.747.021,1.121" transform="translate(-236.657 -23.988)" fill="#c3e1fe"/>
    <path id="Trazado_838120" data-name="Trazado 838120" d="M118.4,310.252l-4.631.03-17.8-.021a1.946,1.946,0,0,1-1.944-1.947v-2.888s15,.015,21.84.013a13.9,13.9,0,0,0,2.538,4.813" transform="translate(-78.932 -256.421)" fill="#c3e1fe"/>
    <path id="Trazado_838121" data-name="Trazado 838121" d="M231.015,231.27a11.621,11.621,0,0,1-2.633-10.134,12.072,12.072,0,0,1,7.844-9.11c.2-.077.391-.168.586-.251a16.131,16.131,0,0,1,4.833-.392,18.067,18.067,0,0,1,2.685.657c.072.648.651.951.975,1.428a11.929,11.929,0,0,1,2.05,9.323,11.475,11.475,0,0,1-6.092,8.329,4.315,4.315,0,0,0,.014-.561,1.2,1.2,0,0,1,.948-1.5,3.231,3.231,0,0,0,2.262-2.941,3.128,3.128,0,0,0-1.9-3.072,31.11,31.11,0,0,0-3.019-1.278c-.584-.23-1.093-.486-1-1.239a1.585,1.585,0,0,1,1.481-1.126,4.238,4.238,0,0,1,2.626.815.9.9,0,0,0,1.334-.265.9.9,0,0,0-.29-1.323,4.149,4.149,0,0,0-1.706-.858c-.65-.118-.822-.464-.737-1.058a1.984,1.984,0,0,0-.017-.639.975.975,0,0,0-1.231-.837c-.674.134-.706.676-.659,1.187a1.255,1.255,0,0,1-.925,1.492,2.913,2.913,0,0,0-1.8,2.721,2.624,2.624,0,0,0,1.686,2.659c1.045.473,2.114.891,3.167,1.345.653.281,1.186.68,1.051,1.5a1.91,1.91,0,0,1-1.728,1.3,3.67,3.67,0,0,1-3.068-1.063.876.876,0,0,0-1.4-.026.919.919,0,0,0,.077,1.411,5.181,5.181,0,0,0,2.318,1.378.712.712,0,0,1,.616.839c-.026.635-.117,1.3.508,1.754-.056.056-.1.141-.17.163a11.555,11.555,0,0,1-5.139.717c-.814-.1-1.614-.3-2.432-.36a2.59,2.59,0,0,1-1.114-.987" transform="translate(-191.552 -177.439)" fill="#fee076"/>
    <path id="Trazado_838122" data-name="Trazado 838122" d="M160.252,163.453a1.093,1.093,0,0,1,.006,1.631,7.39,7.39,0,0,1-.869.1q-10.953.009-21.906,0c-.159,0-.317-.026-.476-.039a4.258,4.258,0,0,0,.978-1.806h21.157a3.1,3.1,0,0,1,1.11.112" transform="translate(-115.024 -137.132)" fill="#27a6fd"/>
    <path id="Trazado_838123" data-name="Trazado 838123" d="M137.65,196.4h-7.779a3.227,3.227,0,0,1-.64-.021.942.942,0,0,1-.822-.949.884.884,0,0,1,.83-.922,3.8,3.8,0,0,1,.64-.02h15.558a4.6,4.6,0,0,1,.561.011.909.909,0,0,1,.9.943.944.944,0,0,1-.912.947,4.535,4.535,0,0,1-.641.011h-7.7" transform="translate(-107.806 -163.279)" fill="#2aa7fd"/>
    <path id="Trazado_838124" data-name="Trazado 838124" d="M135.743,227.6c-2.03,0-4.059,0-6.089,0-.853,0-1.327-.35-1.319-.943s.5-.967,1.311-.968q6.049,0,12.1,0c.862,0,1.3.335,1.3.956s-.437.953-1.3.955c-2,0-4.006,0-6.009,0" transform="translate(-107.744 -189.475)" fill="#2aa7fd"/>
    <path id="Trazado_838125" data-name="Trazado 838125" d="M134.372,256.842c1.467,0,2.935-.006,4.4,0a2.9,2.9,0,0,1,.863.113.871.871,0,0,1,.629.842.886.886,0,0,1-.653.907,2.847,2.847,0,0,1-.867.1q-4.4.01-8.805,0h-.16c-.964-.018-1.472-.365-1.459-1s.523-.968,1.486-.97c1.521,0,3.042,0,4.563,0" transform="translate(-107.733 -215.631)" fill="#2aa7fd"/>
    <path id="Trazado_838126" data-name="Trazado 838126" d="M129.33,290.229c-.606-.125-.75-.554-.664-1.083.089-.544.493-.724,1-.725q4.883,0,9.765,0a.948.948,0,0,1,1.071.758.837.837,0,0,1-.715,1.056c-.2-.263-.483-.184-.74-.185q-4.487-.007-8.973,0c-.257,0-.544-.079-.741.182" transform="translate(-108.002 -242.142)" fill="#27a6fd"/>
    <path id="Trazado_838127" data-name="Trazado 838127" d="M132.924,298.7c.2-.261.484-.181.741-.182q4.487-.007,8.973,0c.257,0,.544-.078.74.185a3.208,3.208,0,0,1-.541.092q-4.686.009-9.372,0a3.126,3.126,0,0,1-.54-.095" transform="translate(-111.597 -250.61)" fill="#2aa7fd"/>
    <path id="Trazado_838128" data-name="Trazado 838128" d="M49.75,141.617l-.026.163c-.124-.075-.1-.127.026-.163" transform="translate(-41.677 -118.895)" fill="#0693fb"/>
    <path id="Trazado_838129" data-name="Trazado 838129" d="M165.25,131.767a1.1,1.1,0,0,1-.011,1.646,3.649,3.649,0,0,1-1.27.112h-21l-.021-1.921,3.5-.02,4.339,0h3.71l4.358-.005,3.7,0a14.1,14.1,0,0,1,2.695.185" transform="translate(-120.011 -110.47)" fill="#2aa7fd"/>
    <path id="Trazado_838130" data-name="Trazado 838130" d="M146.449,82.779l-3.5.02q.009-4.671.018-9.342c.827,0,1.656.03,2.481-.008.8-.037,1.015.388,1.012,1.086-.011,2.748-.007,5.5-.009,8.244" transform="translate(-120.011 -61.662)" fill="#fee076"/>
    <path id="Trazado_838131" data-name="Trazado 838131" d="M245.789,93.125l-3.7,0q0-3.086,0-6.171c0-1.053.13-1.176,1.214-1.18.454,0,.908,0,1.362,0,1,.006,1.122.125,1.124,1.1q.006,3.126,0,6.252" transform="translate(-203.244 -72.013)" fill="#08e29c"/>
    <path id="Trazado_838132" data-name="Trazado 838132" d="M195.513,102.886H191.8c0-1.493.023-2.986,0-4.478-.012-.705.242-1.049.978-1.013.585.029,1.174.028,1.759,0,.732-.034.994.307.982,1.013-.026,1.492-.007,2.985-.007,4.478" transform="translate(-161.027 -81.766)" fill="#fc646f"/>
    <path id="Trazado_838133" data-name="Trazado 838133" d="M262.03,234.724a11.475,11.475,0,0,0,6.092-8.329,11.929,11.929,0,0,0-2.05-9.323c-.324-.476-.9-.78-.975-1.427a12.091,12.091,0,0,1,.59,22.6,11.941,11.941,0,0,1-12.322-1.767.942.942,0,0,1-.469-.614c.818.065,1.618.255,2.432.36a11.552,11.552,0,0,0,5.139-.717c.067-.022.114-.107.17-.163.641.192.985-.285,1.393-.618" transform="translate(-212.319 -181.044)" fill="#fed05a"/>
    <path id="Trazado_838134" data-name="Trazado 838134" d="M143.078,143.112q10.5,0,21,0a3.649,3.649,0,0,0,1.27-.112q0,1.688,0,3.377a3.108,3.108,0,0,0-1.11-.112H143.082q0-1.576,0-3.153" transform="translate(-120.121 -120.054)" fill="#d2e9fd"/>
    <path id="Trazado_838135" data-name="Trazado 838135" d="M282.568,251.31c-.408.333-.752.81-1.393.618-.625-.452-.533-1.119-.507-1.754a.712.712,0,0,0-.616-.839,5.181,5.181,0,0,1-2.318-1.378.919.919,0,0,1-.077-1.411.876.876,0,0,1,1.4.026,3.671,3.671,0,0,0,3.068,1.063,1.91,1.91,0,0,0,1.727-1.3c.135-.82-.4-1.219-1.051-1.5-1.053-.454-2.123-.872-3.167-1.345a2.624,2.624,0,0,1-1.686-2.659,2.912,2.912,0,0,1,1.8-2.721,1.255,1.255,0,0,0,.925-1.492c-.047-.511-.015-1.053.658-1.187a.975.975,0,0,1,1.231.837,1.984,1.984,0,0,1,.017.639c-.086.594.087.94.737,1.058a4.147,4.147,0,0,1,1.706.858.9.9,0,0,1,.29,1.323.9.9,0,0,1-1.334.265,4.237,4.237,0,0,0-2.626-.815,1.585,1.585,0,0,0-1.48,1.126c-.1.753.412,1.008,1,1.238a31.17,31.17,0,0,1,3.019,1.278,3.128,3.128,0,0,1,1.9,3.072,3.231,3.231,0,0,1-2.261,2.941,1.2,1.2,0,0,0-.948,1.5,4.324,4.324,0,0,1-.014.561" transform="translate(-232.857 -197.631)" fill="#fdb238"/>
    <path id="Trazado_838136" data-name="Trazado 838136" d="M20.748,28.166H2.213A2.213,2.213,0,0,1,0,25.953V2.213A2.213,2.213,0,0,1,2.213,0H20.748a2.213,2.213,0,0,1,2.213,2.213V25.953a2.213,2.213,0,0,1-2.213,2.213" fill="#0693fb"/>
    <path id="Trazado_838137" data-name="Trazado 838137" d="M37.737,30.866H23.976a.8.8,0,0,1-.8-.8V25.262a.8.8,0,0,1,.8-.8H37.737a.8.8,0,0,1,.8.8v4.806a.8.8,0,0,1-.8.8" transform="translate(-19.459 -20.539)" fill="#fff"/>
    <path id="Trazado_838138" data-name="Trazado 838138" d="M25.29,83.581a1.056,1.056,0,1,1-1.056-1.056,1.056,1.056,0,0,1,1.056,1.056" transform="translate(-19.458 -69.284)" fill="#d7ebfd"/>
    <path id="Trazado_838139" data-name="Trazado 838139" d="M52.8,83.581a1.056,1.056,0,1,1-1.056-1.056A1.056,1.056,0,0,1,52.8,83.581" transform="translate(-42.559 -69.284)" fill="#d7ebfd"/>
    <path id="Trazado_838140" data-name="Trazado 838140" d="M80.32,83.581a1.056,1.056,0,1,1-1.056-1.056,1.056,1.056,0,0,1,1.056,1.056" transform="translate(-65.659 -69.284)" fill="#d7ebfd"/>
    <path id="Trazado_838141" data-name="Trazado 838141" d="M107.835,83.581a1.056,1.056,0,1,1-1.056-1.056,1.056,1.056,0,0,1,1.056,1.056" transform="translate(-88.759 -69.284)" fill="#d7ebfd"/>
    <path id="Trazado_838142" data-name="Trazado 838142" d="M25.29,112.118a1.056,1.056,0,1,1-1.056-1.056,1.056,1.056,0,0,1,1.056,1.056" transform="translate(-19.458 -93.242)" fill="#d7ebfd"/>
    <path id="Trazado_838143" data-name="Trazado 838143" d="M52.8,112.118a1.056,1.056,0,1,1-1.056-1.056,1.056,1.056,0,0,1,1.056,1.056" transform="translate(-42.559 -93.242)" fill="#d7ebfd"/>
    <path id="Trazado_838144" data-name="Trazado 838144" d="M80.32,112.118a1.056,1.056,0,1,1-1.056-1.056,1.056,1.056,0,0,1,1.056,1.056" transform="translate(-65.659 -93.242)" fill="#d7ebfd"/>
    <path id="Trazado_838145" data-name="Trazado 838145" d="M107.835,112.118a1.056,1.056,0,1,1-1.056-1.056,1.056,1.056,0,0,1,1.056,1.056" transform="translate(-88.759 -93.242)" fill="#d7ebfd"/>
    <path id="Trazado_838146" data-name="Trazado 838146" d="M25.29,139.413a1.056,1.056,0,1,1-1.056-1.056,1.056,1.056,0,0,1,1.056,1.056" transform="translate(-19.458 -116.158)" fill="#d7ebfd"/>
    <path id="Trazado_838147" data-name="Trazado 838147" d="M52.8,139.413a1.056,1.056,0,1,1-1.056-1.056,1.056,1.056,0,0,1,1.056,1.056" transform="translate(-42.559 -116.158)" fill="#d7ebfd"/>
    <path id="Trazado_838148" data-name="Trazado 838148" d="M80.32,139.413a1.056,1.056,0,1,1-1.056-1.056,1.056,1.056,0,0,1,1.056,1.056" transform="translate(-65.659 -116.158)" fill="#d7ebfd"/>
    <path id="Trazado_838149" data-name="Trazado 838149" d="M107.835,139.413a1.056,1.056,0,1,1-1.056-1.056,1.056,1.056,0,0,1,1.056,1.056" transform="translate(-88.759 -116.158)" fill="#d7ebfd"/>
    <rect id="Rect치ngulo_385137" data-name="Rect치ngulo 385137" width="2.113" height="4.379" transform="translate(16.963 18.876)" fill="#d7ebfd"/>
  </g>
</svg>
