<svg xmlns="http://www.w3.org/2000/svg" xmlns:xlink="http://www.w3.org/1999/xlink" width="116.999" height="115" viewBox="0 0 116.999 115">
  <defs>
    <clipPath id="clip-path">
      <rect id="Rectángulo_384721" data-name="Rectángulo 384721" width="64.638" height="72.768" fill="none"/>
    </clipPath>
    <clipPath id="clip-path-2">
      <rect id="Rectángulo_384720" data-name="Rectángulo 384720" width="64.637" height="72.767" fill="none"/>
    </clipPath>
    <clipPath id="clip-path-3">
      <rect id="Rectángulo_384705" data-name="Rectángulo 384705" width="32.156" height="24.302" fill="none"/>
    </clipPath>
    <clipPath id="clip-path-4">
      <rect id="Rectángulo_384708" data-name="Rectángulo 384708" width="29.104" height="14.611" fill="none"/>
    </clipPath>
    <clipPath id="clip-path-5">
      <rect id="Rectángulo_384709" data-name="Rectángulo 384709" width="15.434" height="19.587" fill="none"/>
    </clipPath>
    <clipPath id="clip-path-6">
      <rect id="Rectángulo_384710" data-name="Rectángulo 384710" width="9.557" height="14.342" fill="none"/>
    </clipPath>
    <clipPath id="clip-path-7">
      <rect id="Rectángulo_384712" data-name="Rectángulo 384712" width="11.78" height="17.891" fill="none"/>
    </clipPath>
    <clipPath id="clip-path-8">
      <rect id="Rectángulo_384713" data-name="Rectángulo 384713" width="17.14" height="3.5" fill="none"/>
    </clipPath>
    <clipPath id="clip-path-9">
      <rect id="Rectángulo_384719" data-name="Rectángulo 384719" width="8.471" height="15.414" fill="none"/>
    </clipPath>
  </defs>
  <g id="Grupo_1083908" data-name="Grupo 1083908" transform="translate(-952 -4857.239)">
    <g id="Grupo_1083531" data-name="Grupo 1083531" transform="translate(526.562 -2641.231)">
      <g id="Grupo_1015374" data-name="Grupo 1015374" transform="translate(425.927 7498.205)">
        <g id="Grupo_1015448" data-name="Grupo 1015448" transform="translate(0 0)">
          <g id="Grupo_1014855" data-name="Grupo 1014855" transform="translate(0 0)">
            <path id="Unión_12" data-name="Unión 12" d="M58.5,0C90.809,0,117,25.744,117,57.5S90.809,115,58.5,115,0,89.256,0,57.5,26.192,0,58.5,0Z" transform="translate(-0.49 0.265)" fill="#eba325"/>
            <path id="Trazado_608395" data-name="Trazado 608395" d="M49,0C76.062,0,98,22.162,98,49.5S76.062,99,49,99,0,76.838,0,49.5,21.938,0,49,0Z" transform="translate(9.51 7.265)" fill="#fef5e5"/>
          </g>
        </g>
      </g>
    </g>
    <g id="Grupo_1083583" data-name="Grupo 1083583" transform="translate(984.683 4875.112)">
      <g id="Grupo_1083582" data-name="Grupo 1083582" clip-path="url(#clip-path)">
        <rect id="Rectángulo_384703" data-name="Rectángulo 384703" width="14.209" height="28.909" transform="translate(29.657 43.201) rotate(-67.199)" fill="#75bd38"/>
        <g id="Grupo_1083581" data-name="Grupo 1083581" transform="translate(0 0)">
          <g id="Grupo_1083580" data-name="Grupo 1083580" clip-path="url(#clip-path-2)">
            <path id="Trazado_837537" data-name="Trazado 837537" d="M37.841,37.967l-2.068,4.92c.918.5,2.488,1.3,1.722,4.07l17.837,7.5c1.53-2.642,3.345-1.892,4.291-1.56l2.062-4.9c-.919-.451-2.776-1.264-1.838-4.345L42.6,36.393c-1.784,3.263-4.08,1.9-4.755,1.574" transform="translate(-3.036 -3.089)" fill="#ffffd0"/>
            <path id="Trazado_837538" data-name="Trazado 837538" d="M43.366,43.3a1.745,1.745,0,1,1-.933-2.287,1.745,1.745,0,0,1,.933,2.287" transform="translate(-3.396 -3.469)" fill="#75bd38"/>
            <path id="Trazado_837539" data-name="Trazado 837539" d="M58.715,49.753a1.745,1.745,0,1,1-.93-2.285,1.745,1.745,0,0,1,.93,2.285" transform="translate(-4.699 -4.017)" fill="#75bd38"/>
            <path id="Trazado_837540" data-name="Trazado 837540" d="M53.641,47.478A4.382,4.382,0,1,1,51.3,41.741a4.38,4.38,0,0,1,2.342,5.737" transform="translate(-3.838 -3.514)" fill="#75bd38"/>
            <path id="Trazado_837541" data-name="Trazado 837541" d="M51.281,47.688a1.435,1.435,0,0,0-.662-1.722c-.162-.071-.3-.143-.434-.214l.7-1.659a.64.64,0,0,1,.091.96l1,.421A1.536,1.536,0,0,0,51.3,43.1l.058-.137a.38.38,0,0,0-.7-.295l-.049.118a1.6,1.6,0,0,0-2.35,1.068c-.224.591-.416,1.375.934,2.3l-.7,1.657c-.512-.476-.027-1.213-.027-1.213l-1.153-.485c-.271.514-.66,1.535.9,2.363l-.118.279a.381.381,0,0,0,.7.3l.113-.269a1.6,1.6,0,0,0,2.367-1.09m-2.012-3.352a.854.854,0,0,1,.914-.543l-.628,1.493c-.509-.526-.286-.951-.286-.951M49.2,48.108l.64-1.524a.837.837,0,0,1-.64,1.524" transform="translate(-3.994 -3.602)" fill="#ffffd0"/>
            <g id="Grupo_1083561" data-name="Grupo 1083561" transform="translate(29.657 30.102)" style="mix-blend-mode: multiply;isolation: isolate">
              <g id="Grupo_1083560" data-name="Grupo 1083560">
                <g id="Grupo_1083559" data-name="Grupo 1083559" clip-path="url(#clip-path-3)">
                  <rect id="Rectángulo_384704" data-name="Rectángulo 384704" width="14.209" height="28.909" transform="translate(0 13.099) rotate(-67.2)" fill="#b1c0c0"/>
                </g>
              </g>
            </g>
            <rect id="Rectángulo_384706" data-name="Rectángulo 384706" width="28.908" height="14.21" transform="translate(35.534 50.487) rotate(-0.8)" fill="#75bd38"/>
            <path id="Trazado_837542" data-name="Trazado 837542" d="M40.56,59.773l.073,5.336c1.043.1,2.8.2,3.208,3.039l19.347-.27c.343-3.033,2.306-3.073,3.306-3.147l-.074-5.32c-1.022-.046-3.049-.047-3.423-3.246l-18.712.262c-.329,3.7-2.978,3.375-3.726,3.346" transform="translate(-3.442 -4.767)" fill="#ffffd0"/>
            <path id="Trazado_837543" data-name="Trazado 837543" d="M47.574,62.648A1.745,1.745,0,1,1,45.8,60.927a1.746,1.746,0,0,1,1.772,1.721" transform="translate(-3.741 -5.171)" fill="#75bd38"/>
            <path id="Trazado_837544" data-name="Trazado 837544" d="M64.223,62.416a1.745,1.745,0,1,1-1.768-1.721,1.745,1.745,0,0,1,1.768,1.721" transform="translate(-5.154 -5.151)" fill="#75bd38"/>
            <path id="Trazado_837545" data-name="Trazado 837545" d="M58.74,62.245A4.382,4.382,0,1,1,54.3,57.926a4.381,4.381,0,0,1,4.442,4.319" transform="translate(-4.242 -4.916)" fill="#75bd38"/>
            <path id="Trazado_837546" data-name="Trazado 837546" d="M56.685,63.429c-.028-1.169-1.3-1.314-1.3-1.314-.176,0-.336-.008-.482-.022l-.025-1.8a.64.64,0,0,1,.467.843l1.087-.016a1.537,1.537,0,0,0-1.569-1.907l0-.148a.381.381,0,0,0-.761.01l0,.128c-1.747.128-1.757,1.271-1.725,1.919.031.632.168,1.428,1.776,1.732l.025,1.8c-.661-.232-.511-1.1-.511-1.1l-1.252.017c-.042.58.01,1.671,1.773,1.8l0,.3a.381.381,0,0,0,.761-.011l0-.292c1.246-.085,1.766-.61,1.732-1.946M53.5,61.162a.852.852,0,0,1,.62-.863l.022,1.62c-.676-.278-.642-.757-.642-.757m1.442,3.488L54.92,63a.837.837,0,0,1,.023,1.653" transform="translate(-4.445 -4.982)" fill="#ffffd0"/>
            <g id="Grupo_1083564" data-name="Grupo 1083564" transform="translate(35.534 50.083)" style="mix-blend-mode: multiply;isolation: isolate">
              <g id="Grupo_1083563" data-name="Grupo 1083563">
                <g id="Grupo_1083562" data-name="Grupo 1083562" clip-path="url(#clip-path-4)">
                  <rect id="Rectángulo_384707" data-name="Rectángulo 384707" width="28.908" height="14.21" transform="matrix(1, -0.014, 0.014, 1, 0, 0.404)" fill="#c5d6d6"/>
                </g>
              </g>
            </g>
            <g id="Grupo_1083567" data-name="Grupo 1083567" transform="translate(29.657 30.102)" style="mix-blend-mode: multiply;isolation: isolate">
              <g id="Grupo_1083566" data-name="Grupo 1083566">
                <g id="Grupo_1083565" data-name="Grupo 1083565" clip-path="url(#clip-path-5)">
                  <path id="Trazado_837547" data-name="Trazado 837547" d="M47.841,37.067l-9.927-4.173-5.506,13.1,15.434,6.488Z" transform="translate(-32.408 -32.894)" fill="#c5d6d6"/>
                </g>
              </g>
            </g>
            <g id="Grupo_1083570" data-name="Grupo 1083570" transform="translate(35.534 50.353)" style="mix-blend-mode: multiply;isolation: isolate">
              <g id="Grupo_1083569" data-name="Grupo 1083569">
                <g id="Grupo_1083568" data-name="Grupo 1083568" clip-path="url(#clip-path-6)">
                  <path id="Trazado_837548" data-name="Trazado 837548" d="M48.386,55.023l-9.557.134.2,14.208,9.359-.131Z" transform="translate(-38.829 -55.023)" fill="#c5d6d6"/>
                </g>
              </g>
            </g>
            <rect id="Rectángulo_384711" data-name="Rectángulo 384711" width="28.908" height="14.209" transform="translate(31.215 51.476) rotate(-21.704)" fill="#75bd38"/>
            <path id="Trazado_837549" data-name="Trazado 837549" d="M37.488,59.191l1.974,4.958c1.008-.284,2.687-.815,4.081,1.695l17.977-7.155c-.76-2.956,1.059-3.694,1.967-4.12l-1.968-4.943c-.971.322-2.865,1.044-4.356-1.811l-17.387,6.92c1.015,3.577-1.577,4.216-2.288,4.456" transform="translate(-3.182 -4.058)" fill="#e8f2de"/>
            <path id="Trazado_837550" data-name="Trazado 837550" d="M44.995,60.048a1.745,1.745,0,1,1-2.269-.976,1.746,1.746,0,0,1,2.269.976" transform="translate(-3.533 -5.003)" fill="#75bd38"/>
            <path id="Trazado_837551" data-name="Trazado 837551" d="M60.465,53.891a1.745,1.745,0,1,1-2.265-.978,1.745,1.745,0,0,1,2.265.978" transform="translate(-4.846 -4.48)" fill="#75bd38"/>
            <path id="Trazado_837552" data-name="Trazado 837552" d="M55.352,55.584a4.382,4.382,0,1,1-5.691-2.45,4.38,4.38,0,0,1,5.691,2.45" transform="translate(-3.98 -4.483)" fill="#75bd38"/>
            <path id="Trazado_837553" data-name="Trazado 837553" d="M53.949,57.457a1.435,1.435,0,0,0-1.693-.736c-.163.066-.315.118-.456.16l-.695-1.661a.64.64,0,0,1,.748.608l1-.419a1.536,1.536,0,0,0-2.167-1.184l-.058-.137a.381.381,0,0,0-.7.294l.049.119a1.6,1.6,0,0,0-.884,2.424c.264.575.689,1.261,2.294.943l.695,1.659c-.7.032-.885-.83-.885-.83l-1.155.483c.178.554.633,1.546,2.318,1.012l.117.28a.381.381,0,0,0,.7-.295l-.113-.269a1.6,1.6,0,0,0,.881-2.452m-3.8-.915a.852.852,0,0,1,.253-1.032l.625,1.5c-.732-.006-.879-.463-.879-.463m2.639,2.7-.638-1.525a.837.837,0,0,1,.638,1.525" transform="translate(-4.145 -4.572)" fill="#e8f2de"/>
            <g id="Grupo_1083573" data-name="Grupo 1083573" transform="translate(31.215 46.787)" style="mix-blend-mode: multiply;isolation: isolate">
              <g id="Grupo_1083572" data-name="Grupo 1083572">
                <g id="Grupo_1083571" data-name="Grupo 1083571" clip-path="url(#clip-path-7)">
                  <path id="Trazado_837554" data-name="Trazado 837554" d="M45.889,51.126,34.11,55.815l5.255,13.2,6.525-2.6Z" transform="translate(-34.11 -51.126)" fill="#b1c0c0"/>
                </g>
              </g>
            </g>
            <path id="Trazado_837555" data-name="Trazado 837555" d="M29.324,25.76l-17.14-.085v-3.79a2.551,2.551,0,0,1,2.369-2.715l12.4.061a2.583,2.583,0,0,1,2.37,2.74Z" transform="translate(-1.034 -1.627)" fill="#ccc"/>
            <g id="Grupo_1083576" data-name="Grupo 1083576" transform="translate(11.15 20.633)" opacity="0.5" style="mix-blend-mode: multiply;isolation: isolate">
              <g id="Grupo_1083575" data-name="Grupo 1083575">
                <g id="Grupo_1083574" data-name="Grupo 1083574" clip-path="url(#clip-path-8)">
                  <path id="Trazado_837556" data-name="Trazado 837556" d="M12.184,22.547v3.414l17.139.085V22.728c-3.36-.056-15.013-.162-17.14-.181" transform="translate(-12.184 -22.547)" fill="#a5a7ab"/>
                </g>
              </g>
            </g>
            <path id="Trazado_837557" data-name="Trazado 837557" d="M37.55,74.781,1.818,74.6A1.973,1.973,0,0,1,.007,72.51L0,25.8a1.949,1.949,0,0,1,1.81-2.075l35.733.178A1.975,1.975,0,0,1,39.354,26l.006,46.707a1.95,1.95,0,0,1-1.81,2.076" transform="translate(0 -2.014)" fill="#474656"/>
            <path id="Trazado_837558" data-name="Trazado 837558" d="M37.088,71.839,2.745,71.668l-.006-44.4,34.343.171Z" transform="translate(-0.232 -2.315)" fill="#fff"/>
            <rect id="Rectángulo_384714" data-name="Rectángulo 384714" width="3.251" height="10.464" transform="translate(5.246 55.05)" fill="#d7d7d7"/>
            <rect id="Rectángulo_384715" data-name="Rectángulo 384715" width="3.251" height="13.715" transform="translate(11.651 51.799)" fill="#bebebe"/>
            <rect id="Rectángulo_384716" data-name="Rectángulo 384716" width="3.251" height="20.029" transform="translate(18.055 45.485)" fill="#83828d"/>
            <rect id="Rectángulo_384717" data-name="Rectángulo 384717" width="3.251" height="18.274" transform="translate(24.46 47.24)" fill="#8ac757"/>
            <rect id="Rectángulo_384718" data-name="Rectángulo 384718" width="3.251" height="24.73" transform="translate(30.864 40.785)" fill="#1db2cc"/>
            <path id="Trazado_837559" data-name="Trazado 837559" d="M7.687,52.575l-.393-.695L13.64,48.29l6.542-7.482,6.378,2.431L32.784,34.6l.647.466L26.848,44.2l-6.432-2.454-6.325,7.2Z" transform="translate(-0.619 -2.937)" fill="#f65138"/>
            <path id="Trazado_837560" data-name="Trazado 837560" d="M8.6,53.752a1.2,1.2,0,1,1-1.2-1.2,1.2,1.2,0,0,1,1.2,1.2" transform="translate(-0.526 -4.46)" fill="#f65138"/>
            <path id="Trazado_837561" data-name="Trazado 837561" d="M15.6,49.792a1.2,1.2,0,1,1-1.2-1.2,1.2,1.2,0,0,1,1.2,1.2" transform="translate(-1.12 -4.124)" fill="#f65138"/>
            <path id="Trazado_837562" data-name="Trazado 837562" d="M22.414,42.077a1.2,1.2,0,1,1-1.2-1.2,1.2,1.2,0,0,1,1.2,1.2" transform="translate(-1.699 -3.469)" fill="#f65138"/>
            <path id="Trazado_837563" data-name="Trazado 837563" d="M29.592,44.311a1.2,1.2,0,1,1-1.2-1.2,1.2,1.2,0,0,1,1.2,1.2" transform="translate(-2.308 -3.659)" fill="#f65138"/>
            <path id="Trazado_837564" data-name="Trazado 837564" d="M36.59,34.864a1.2,1.2,0,1,1-1.2-1.2,1.2,1.2,0,0,1,1.2,1.2" transform="translate(-2.902 -2.857)" fill="#f65138"/>
            <g id="Grupo_1083579" data-name="Grupo 1083579" transform="translate(30.886 29.372)" opacity="0.55" style="mix-blend-mode: multiply;isolation: isolate">
              <g id="Grupo_1083578" data-name="Grupo 1083578">
                <g id="Grupo_1083577" data-name="Grupo 1083577" clip-path="url(#clip-path-9)">
                  <path id="Trazado_837565" data-name="Trazado 837565" d="M42.221,47.51V35.63L33.751,32.1Z" transform="translate(-33.75 -32.097)" fill="#969696"/>
                </g>
              </g>
            </g>
            <path id="Trazado_837566" data-name="Trazado 837566" d="M12.7,1.219v16.1a1.219,1.219,0,0,0,1.219,1.219H27.235l4.729,10.9,4.728-10.9H50a1.219,1.219,0,0,0,1.22-1.219V1.219A1.219,1.219,0,0,0,50,0H13.924A1.219,1.219,0,0,0,12.7,1.219" transform="translate(-1.078 0)" fill="#1db2cc"/>
            <path id="Trazado_837567" data-name="Trazado 837567" d="M23.333,12.513q0,2-1.55,2.307v1.428H20.9V14.869a1.953,1.953,0,0,1-1.452-.671,3.2,3.2,0,0,1-.5-2.031v-.6h1.532v.745q0,1.23.627,1.231a.538.538,0,0,0,.48-.219,1.377,1.377,0,0,0,.147-.741,2.313,2.313,0,0,0-.849-1.71c-.016-.016-.148-.135-.4-.357s-.392-.353-.433-.394a3.21,3.21,0,0,1-1.138-2.442q0-2.135,1.932-2.258V4.065h.886V5.481a1.65,1.65,0,0,1,.948.554,3.217,3.217,0,0,1,.5,2.023V8.6H21.715V7.991a2.329,2.329,0,0,0-.142-.933.484.484,0,0,0-.47-.3.6.6,0,0,0-.486.19,1.038,1.038,0,0,0-.157.652,1.868,1.868,0,0,0,.652,1.36l.874.793a3.731,3.731,0,0,1,1.347,2.763" transform="translate(-1.605 -0.345)" fill="#fff"/>
            <path id="Trazado_837568" data-name="Trazado 837568" d="M26.033,14.893V6.107a1.338,1.338,0,0,1-.591.391,2.182,2.182,0,0,1-.75.138V5.411a2.143,2.143,0,0,0,.994-.425,2.2,2.2,0,0,0,.717-.929h1.28V14.893Z" transform="translate(-2.096 -0.345)" fill="#fff"/>
            <path id="Trazado_837569" data-name="Trazado 837569" d="M33.975,14.236a2.179,2.179,0,0,1-1.867.775,2.182,2.182,0,0,1-1.868-.775,3.762,3.762,0,0,1-.581-2.277V6.785a3.326,3.326,0,0,1,.588-2.144,2.27,2.27,0,0,1,1.861-.717,2.27,2.27,0,0,1,1.861.717,3.326,3.326,0,0,1,.588,2.144v5.174a3.756,3.756,0,0,1-.582,2.277m-1.882-.646a.69.69,0,0,0,.6-.3,2.566,2.566,0,0,0,.212-1.295V6.717q-.007-1.2-.56-1.347a1.8,1.8,0,0,0-.354-.025.642.642,0,0,0-.467.24A1.822,1.822,0,0,0,31.3,6.711V11.99a2.7,2.7,0,0,0,.2,1.3.666.666,0,0,0,.59.3" transform="translate(-2.517 -0.333)" fill="#fff"/>
            <path id="Trazado_837570" data-name="Trazado 837570" d="M40.766,14.236a2.637,2.637,0,0,1-3.735,0,3.762,3.762,0,0,1-.581-2.277V6.785a3.326,3.326,0,0,1,.588-2.144A2.27,2.27,0,0,1,38.9,3.924a2.27,2.27,0,0,1,1.861.717,3.326,3.326,0,0,1,.588,2.144v5.174a3.756,3.756,0,0,1-.582,2.277m-1.882-.646a.692.692,0,0,0,.6-.3A2.577,2.577,0,0,0,39.7,11.99V6.717q-.007-1.2-.56-1.347a1.8,1.8,0,0,0-.354-.025.642.642,0,0,0-.467.24,1.822,1.822,0,0,0-.225,1.126V11.99a2.7,2.7,0,0,0,.2,1.3.666.666,0,0,0,.59.3" transform="translate(-3.094 -0.333)" fill="#fff"/>
            <path id="Trazado_837571" data-name="Trazado 837571" d="M47.557,14.236a2.637,2.637,0,0,1-3.735,0,3.756,3.756,0,0,1-.581-2.277V6.785a3.326,3.326,0,0,1,.587-2.144,2.777,2.777,0,0,1,3.724,0,3.326,3.326,0,0,1,.587,2.144v5.174a3.756,3.756,0,0,1-.581,2.277m-1.882-.646a.689.689,0,0,0,.6-.3,2.553,2.553,0,0,0,.213-1.295V6.717q-.008-1.2-.56-1.347a1.812,1.812,0,0,0-.354-.025.639.639,0,0,0-.467.24,1.82,1.82,0,0,0-.226,1.126V11.99a2.694,2.694,0,0,0,.2,1.3.665.665,0,0,0,.59.3" transform="translate(-3.67 -0.333)" fill="#fff"/>
          </g>
        </g>
      </g>
    </g>
  </g>
</svg>
