<svg xmlns="http://www.w3.org/2000/svg" xmlns:xlink="http://www.w3.org/1999/xlink" width="116.999" height="115" viewBox="0 0 116.999 115">
  <defs>
    <clipPath id="clip-path">
      <rect id="Rectángulo_384702" data-name="Rectángulo 384702" width="85.817" height="66.019" fill="none"/>
    </clipPath>
    <clipPath id="clip-path-2">
      <rect id="Rectángulo_384701" data-name="Rectángulo 384701" width="85.817" height="66.019" transform="translate(0 0)" fill="none"/>
    </clipPath>
    <clipPath id="clip-path-3">
      <rect id="Rectángulo_384697" data-name="Rectángulo 384697" width="24.716" height="62.232" transform="translate(61.101 3.08)" fill="none"/>
    </clipPath>
    <clipPath id="clip-path-4">
      <rect id="Rectángulo_384698" data-name="Rectángulo 384698" width="24.282" height="43.199" transform="translate(31.951 22.813)" fill="none"/>
    </clipPath>
    <clipPath id="clip-path-5">
      <rect id="Rectángulo_384699" data-name="Rectángulo 384699" width="15.144" height="16.486" transform="translate(24.042 43.016)" fill="none"/>
    </clipPath>
  </defs>
  <g id="Grupo_1083907" data-name="Grupo 1083907" transform="translate(-532 -4857.239)">
    <g id="Grupo_1083530" data-name="Grupo 1083530" transform="translate(106.562 -2641.231)">
      <g id="Grupo_1015374" data-name="Grupo 1015374" transform="translate(425.927 7498.205)">
        <g id="Grupo_1015448" data-name="Grupo 1015448" transform="translate(0 0)">
          <g id="Grupo_1014855" data-name="Grupo 1014855" transform="translate(0 0)">
            <path id="Unión_12" data-name="Unión 12" d="M58.5,0C90.809,0,117,25.744,117,57.5S90.809,115,58.5,115,0,89.256,0,57.5,26.192,0,58.5,0Z" transform="translate(-0.49 0.265)" fill="#eba325"/>
            <path id="Trazado_608395" data-name="Trazado 608395" d="M49,0C76.062,0,98,22.162,98,49.5S76.062,99,49,99,0,76.838,0,49.5,21.938,0,49,0Z" transform="translate(9.51 7.265)" fill="#fef5e5"/>
          </g>
        </g>
      </g>
    </g>
    <g id="Grupo_1083558" data-name="Grupo 1083558" transform="translate(547.092 4875.112)">
      <g id="Grupo_1083557" data-name="Grupo 1083557" clip-path="url(#clip-path)">
        <g id="Grupo_1083556" data-name="Grupo 1083556">
          <g id="Grupo_1083555" data-name="Grupo 1083555" clip-path="url(#clip-path-2)">
            <path id="Trazado_837520" data-name="Trazado 837520" d="M51.522,17.008c-.549-.545-1.1-2.68-1.647-3.248-3.337-3.481-6.369-7.232-6.174-9.214.423-4.318,9.8,2.273,9.8,2.273S53.089,0,58.171,0s4.668,6.819,4.668,6.819,9.379-6.591,9.8-2.273c.194,1.975-2.818,5.71-6.143,9.182-.556.579-1.119,2.725-1.678,3.28,11.268,3.333,18.638,10.74,20.5,25.128.633,4.891.967,11.613-.914,15.7-1.515,3.3-3.582,5.684-7.32,6.75-.538.154-4.031.246-4.585.323A122.319,122.319,0,0,1,56.428,66.02a66.663,66.663,0,0,1-12.66-1.057,11.932,11.932,0,0,1-1.394-.361c-4.028-1.329-5.775-3.161-7.294-6.341a32.652,32.652,0,0,1-3.144-14.094c0-13.8,8.317-23.826,19.586-27.159" fill="#75bd38"/>
            <path id="Trazado_837521" data-name="Trazado 837521" d="M43.868,41.491A11.564,11.564,0,1,0,55.431,29.929,11.561,11.561,0,0,0,43.868,41.491" fill="#474656"/>
            <path id="Trazado_837522" data-name="Trazado 837522" d="M60.993,44.358c-.03-3.085-3.37-3.515-3.37-3.515-.464-.007-.887-.034-1.272-.075v-4.75a1.688,1.688,0,0,1,1.2,2.241h2.869s1.175-4.456-4.07-5.09v-.393a1,1,0,0,0-2.009,0v.338c-4.614.274-4.682,3.289-4.623,5,.058,1.669.392,3.772,4.623,4.635V47.5c-1.735-.634-1.308-2.922-1.308-2.922h-3.3C49.6,46.1,49.7,48.982,54.342,49.4v.8a1,1,0,0,0,2.009,0v-.771c3.293-.181,4.684-1.546,4.642-5.071m-8.32-6.1A2.252,2.252,0,0,1,54.342,36v4.277c-1.776-.761-1.669-2.022-1.669-2.022m3.678,9.256V43.154c2.74.923,2.2,3.7,0,4.361" fill="#e5e5e5"/>
            <g id="Grupo_1083548" data-name="Grupo 1083548" opacity="0.5" style="mix-blend-mode: multiply;isolation: isolate">
              <g id="Grupo_1083547" data-name="Grupo 1083547">
                <g id="Grupo_1083546" data-name="Grupo 1083546" clip-path="url(#clip-path-3)">
                  <path id="Trazado_837523" data-name="Trazado 837523" d="M85.318,42.135c-1.64-12.7-7.578-19.952-16.694-23.774-.151-.031-.294-.075-.446-.1h.037a28.356,28.356,0,0,0-3.394-1.25,7.381,7.381,0,0,0,.949-1.891l.011-.029.007-.014a5.106,5.106,0,0,1,.711-1.346q.406-.424.8-.853l0,0q.512-.552,1.015-1.115c.048-.053.093-.107.141-.161.241-.272.478-.549.713-.827.1-.115.195-.231.289-.345.288-.349.571-.7.845-1.062l.054-.071q.465-.613.894-1.253l.094-.142a6.016,6.016,0,0,0,1.291-3.349,1.637,1.637,0,0,0-.431-1.031,1.511,1.511,0,0,0-.151-.135,1.635,1.635,0,0,0-.227-.135c-1.041-.478-2.91.158-4.678,1.021l-.115.057c.264,1.382-.754,2.854-1.489,3.93a41.553,41.553,0,0,1-4.17,5.005h0c-.778,1.027.186,4.185,1.321,5h-.088A27.011,27.011,0,0,1,77.238,34.189a31.514,31.514,0,0,1,1.5,12.721c-.37,4.563-1.589,9.479-4.2,13.3a15.589,15.589,0,0,1-5.293,5.1c1.427-.153,2.545-.3,3.257-.4.555-.078,4.047-.17,4.585-.323,3.738-1.067,5.805-3.456,7.32-6.751,1.881-4.092,1.546-10.813.914-15.705" fill="#598e38"/>
                </g>
              </g>
            </g>
            <g id="Grupo_1083551" data-name="Grupo 1083551" opacity="0.55" style="mix-blend-mode: multiply;isolation: isolate">
              <g id="Grupo_1083550" data-name="Grupo 1083550">
                <g id="Grupo_1083549" data-name="Grupo 1083549" clip-path="url(#clip-path-4)">
                  <path id="Trazado_837524" data-name="Trazado 837524" d="M41.224,22.813C35.646,27.9,32.066,35.447,31.95,44.664v0a33.519,33.519,0,0,0,.862,7.108c.008.033.018.066.025.1q.189.8.413,1.578c.03.1.066.2.1.305.135.449.274.9.427,1.335.077.218.163.429.244.644.12.321.236.644.366.959q.321.779.68,1.532l.015.034a23.009,23.009,0,0,0,3.289,4.328A13.2,13.2,0,0,0,42.374,64.6a11.738,11.738,0,0,0,1.394.361,64.871,64.871,0,0,0,11.584,1.05c1.864-7.416.525-18.181-1.753-25.726-2.717-9-6.052-13.778-12.375-17.473" fill="#598e38"/>
                </g>
              </g>
            </g>
            <path id="Trazado_837525" data-name="Trazado 837525" d="M47.632,46.157c-1.4,9.328-6.158,15.994-16.018,18.371-1.086.262-8.185.185-8.185.185S9.717,53.63,11.185,41.68,27.353,21.436,27.353,21.436A87.527,87.527,0,0,1,36.6,24.265c7.867,3.17,12.571,11.617,11.031,21.892" fill="#d21b00"/>
            <path id="Trazado_837526" data-name="Trazado 837526" d="M42.609,45.269c-1.468,11.95-10.817,20.635-20.881,19.4S4.7,52.742,6.163,40.792s10.816-20.635,20.881-19.4S44.077,33.319,42.609,45.269" fill="#f65138"/>
            <path id="Trazado_837527" data-name="Trazado 837527" d="M38.388,44.751c-1.128,9.182-8.312,15.856-16.045,14.906S9.255,50.493,10.383,41.311s8.311-15.856,16.045-14.906,13.088,9.164,11.96,18.346" fill="#fff"/>
            <path id="Trazado_837528" data-name="Trazado 837528" d="M34.818,44.312c-.84,6.841-6.193,11.813-11.954,11.106s-9.752-6.828-8.911-13.669,6.192-11.814,11.954-11.106,9.751,6.828,8.911,13.669" fill="#f65138"/>
            <path id="Trazado_837529" data-name="Trazado 837529" d="M31.418,43.9c-.567,4.612-4.175,7.964-8.059,7.486s-6.573-4.6-6.007-9.214,4.175-7.963,8.059-7.486,6.573,4.6,6.007,9.214" fill="#fff"/>
            <path id="Trazado_837530" data-name="Trazado 837530" d="M28.045,43.48c-.3,2.4-2.172,4.144-4.194,3.9s-3.421-2.4-3.126-4.795,2.173-4.145,4.194-3.9,3.421,2.4,3.126,4.795" fill="#f65138"/>
            <g id="Grupo_1083554" data-name="Grupo 1083554" opacity="0.67" style="mix-blend-mode: multiply;isolation: isolate">
              <g id="Grupo_1083553" data-name="Grupo 1083553">
                <g id="Grupo_1083552" data-name="Grupo 1083552" clip-path="url(#clip-path-5)">
                  <path id="Trazado_837531" data-name="Trazado 837531" d="M33.385,49.388l-.251.272L24.65,43.016c-.147.05-.293.1-.438.158l-.17.082,6.536,9.257-.311.338L35.813,59.5a22.177,22.177,0,0,0,3.373-4.266Z" fill="#b35c45"/>
                </g>
              </g>
            </g>
            <path id="Trazado_837532" data-name="Trazado 837532" d="M24.542,43.213c.049-.016.1-.033.145-.05l-5.839-8.525-1.5,1.219L24.17,43.3c.124-.027.248-.056.372-.088" fill="#5c5248"/>
            <rect id="Rectángulo_384700" data-name="Rectángulo 384700" width="2.335" height="22.064" transform="translate(4.356 20.208) rotate(-39.173)" fill="#51555d"/>
            <path id="Trazado_837533" data-name="Trazado 837533" d="M4.313,18.308s-1.1-4.188,2.52-3.869,5.257,9.014,4.57,12.569Z" fill="#f65138"/>
            <path id="Trazado_837534" data-name="Trazado 837534" d="M4.313,18.308S.433,16.387.016,20,7.781,26.964,11.4,27.008Z" fill="#d21b00"/>
            <path id="Trazado_837535" data-name="Trazado 837535" d="M1.931,15.384S3.583,19.61,11.4,27.008C5.736,17.856,1.931,15.384,1.931,15.384" fill="#f86f5b"/>
            <path id="Trazado_837536" data-name="Trazado 837536" d="M68.267,18.258H48.078c1.135-.815,2.1-3.974,1.321-5H66.944c-.778,1.026.188,4.185,1.323,5" fill="#474656"/>
          </g>
        </g>
      </g>
    </g>
  </g>
</svg>
