<svg xmlns="http://www.w3.org/2000/svg" xmlns:xlink="http://www.w3.org/1999/xlink" width="1030" height="608" viewBox="0 0 1030 608">
  <defs>
    <linearGradient id="linear-gradient" x1="0.5" x2="0.5" y2="1" gradientUnits="objectBoundingBox">
      <stop offset="0" stop-color="#fff"/>
      <stop offset="1" stop-color="#eff6f9"/>
    </linearGradient>
    <clipPath id="clip-path">
      <rect id="Rectángulo_384419" data-name="Rectángulo 384419" width="182.043" height="49.691" fill="#b9dfb7"/>
    </clipPath>
    <clipPath id="clip-path-2">
      <rect id="Rectángulo_384420" data-name="Rectángulo 384420" width="102.638" height="158.51" fill="#6debff"/>
    </clipPath>
    <clipPath id="clip-path-3">
      <rect id="Rectángulo_384421" data-name="Rectángulo 384421" width="102.637" height="158.51" fill="#dbe5f3"/>
    </clipPath>
  </defs>
  <g id="Grupo_1082734" data-name="Grupo 1082734" transform="translate(-285 -5665)">
    <g id="Grupo_1072598" data-name="Grupo 1072598" transform="translate(105 3035.6)">
      <rect id="Rectángulo_292178" data-name="Rectángulo 292178" width="1030" height="608" transform="translate(1210 3237.4) rotate(180)" fill="url(#linear-gradient)"/>
      <g id="Grupo_872027" data-name="Grupo 872027" transform="translate(1196.611 3124.07)">
        <path id="Trazado_214670" data-name="Trazado 214670" d="M0,0H9.688l9.688,13.039H9.688Z" transform="translate(0 92.039) rotate(-90)" fill="#3ae3fe"/>
        <path id="Trazado_214675" data-name="Trazado 214675" d="M0,0H9.688l9.688,13.039H9.688Z" transform="translate(0 48.442) rotate(-90)" fill="#3ae3fe"/>
        <path id="Trazado_214671" data-name="Trazado 214671" d="M0,0H9.688l9.688,13.039H9.688Z" transform="translate(0 77.506) rotate(-90)" fill="#3ae3fe"/>
        <path id="Trazado_214674" data-name="Trazado 214674" d="M0,0H9.688l9.688,13.039H9.688Z" transform="translate(0 33.909) rotate(-90)" fill="#3ae3fe"/>
        <path id="Trazado_214672" data-name="Trazado 214672" d="M0,0H9.688l9.688,13.039H9.688Z" transform="translate(0 62.974) rotate(-90)" fill="#3ae3fe"/>
        <path id="Trazado_214673" data-name="Trazado 214673" d="M0,0H9.688l9.688,13.039H9.688Z" transform="translate(0 19.377) rotate(-90)" fill="#3ae3fe"/>
      </g>
      <g id="Grupo_872028" data-name="Grupo 872028" transform="translate(180 2655.086)">
        <path id="Trazado_214670-2" data-name="Trazado 214670" d="M0,0H9.688l9.688,13.039H9.688Z" transform="translate(0 92.039) rotate(-90)" fill="#03386e"/>
        <path id="Trazado_214675-2" data-name="Trazado 214675" d="M0,0H9.688l9.688,13.039H9.688Z" transform="translate(0 48.442) rotate(-90)" fill="#03386e"/>
        <path id="Trazado_214671-2" data-name="Trazado 214671" d="M0,0H9.688l9.688,13.039H9.688Z" transform="translate(0 77.506) rotate(-90)" fill="#03386e"/>
        <path id="Trazado_214674-2" data-name="Trazado 214674" d="M0,0H9.688l9.688,13.039H9.688Z" transform="translate(0 33.909) rotate(-90)" fill="#03386e"/>
        <path id="Trazado_214672-2" data-name="Trazado 214672" d="M0,0H9.688l9.688,13.039H9.688Z" transform="translate(0 62.974) rotate(-90)" fill="#03386e"/>
        <path id="Trazado_214673-2" data-name="Trazado 214673" d="M0,0H9.688l9.688,13.039H9.688Z" transform="translate(0 19.377) rotate(-90)" fill="#03386e"/>
      </g>
    </g>
    <path id="Trazado_832677" data-name="Trazado 832677" d="M322.307,489.438A97.5,97.5,0,0,1,259.686,317.2L92.134,413.937A97.513,97.513,0,0,1,180.807,587.35l.252.436L370.821,476.531l-.014-.025a97.014,97.014,0,0,1-48.5,12.931" transform="translate(478.751 5626.905)" fill="#6debff"/>
    <path id="Trazado_832678" data-name="Trazado 832678" d="M353.954,20.3a97.509,97.509,0,1,0,97.509,97.51A97.51,97.51,0,0,0,353.954,20.3m0,176.831a79.321,79.321,0,1,1,79.321-79.321,79.32,79.32,0,0,1-79.321,79.321" transform="translate(447.104 5684.09)" fill="#0c5e46"/>
    <path id="Trazado_832679" data-name="Trazado 832679" d="M278.972,122.149a79.321,79.321,0,1,1,79.321,79.321,79.32,79.32,0,0,1-79.321-79.321" transform="translate(442.766 5679.751)" fill="#b9dfb7"/>
    <g id="Grupo_1082706" data-name="Grupo 1082706" transform="translate(710.036 5688)" opacity="0.7">
      <g id="Grupo_1082705" data-name="Grupo 1082705">
        <g id="Grupo_1082704" data-name="Grupo 1082704" clip-path="url(#clip-path)">
          <path id="Trazado_832680" data-name="Trazado 832680" d="M379.642,3.188A3.188,3.188,0,1,1,376.454,0a3.188,3.188,0,0,1,3.188,3.188" transform="translate(-285.432)" fill="#b9dfb7"/>
          <path id="Trazado_832681" data-name="Trazado 832681" d="M361.716,3.946A3.188,3.188,0,1,1,358.139,1.2a3.187,3.187,0,0,1,3.577,2.744" transform="translate(-281.984 -0.226)" fill="#b9dfb7"/>
          <path id="Trazado_832682" data-name="Trazado 832682" d="M344.044,7.035a3.188,3.188,0,1,1-3.905-2.254,3.188,3.188,0,0,1,3.905,2.254" transform="translate(-278.596 -0.9)" fill="#b9dfb7"/>
          <path id="Trazado_832683" data-name="Trazado 832683" d="M326.925,12.406a3.188,3.188,0,1,1-4.165-1.725,3.187,3.187,0,0,1,4.165,1.725" transform="translate(-275.325 -2.01)" fill="#b9dfb7"/>
          <path id="Trazado_832684" data-name="Trazado 832684" d="M310.653,19.965A3.188,3.188,0,1,1,306.3,18.8a3.189,3.189,0,0,1,4.355,1.167" transform="translate(-272.226 -3.538)" fill="#b9dfb7"/>
          <path id="Trazado_832685" data-name="Trazado 832685" d="M295.508,29.583a3.188,3.188,0,1,1-4.47-.589,3.187,3.187,0,0,1,4.47.589" transform="translate(-269.354 -5.458)" fill="#b9dfb7"/>
          <path id="Trazado_832686" data-name="Trazado 832686" d="M281.748,41.1a3.188,3.188,0,1,1-4.509,0,3.186,3.186,0,0,1,4.509,0" transform="translate(-266.757 -7.736)" fill="#b9dfb7"/>
          <path id="Trazado_832687" data-name="Trazado 832687" d="M269.608,54.307a3.188,3.188,0,1,1-4.471.589,3.189,3.189,0,0,1,4.471-.589" transform="translate(-264.479 -10.333)" fill="#b9dfb7"/>
          <path id="Trazado_832688" data-name="Trazado 832688" d="M281.748,41.1a3.188,3.188,0,1,1-4.509,0,3.186,3.186,0,0,1,4.509,0" transform="translate(-266.757 -7.736)" fill="#b9dfb7"/>
          <path id="Trazado_832689" data-name="Trazado 832689" d="M269.608,54.307a3.188,3.188,0,1,1-4.471.589,3.189,3.189,0,0,1,4.471-.589" transform="translate(-264.479 -10.333)" fill="#b9dfb7"/>
          <path id="Trazado_832690" data-name="Trazado 832690" d="M391.19,3.946A3.188,3.188,0,1,0,394.767,1.2a3.188,3.188,0,0,0-3.577,2.744" transform="translate(-288.879 -0.226)" fill="#b9dfb7"/>
          <path id="Trazado_832691" data-name="Trazado 832691" d="M408.865,7.035a3.188,3.188,0,1,0,3.9-2.254,3.188,3.188,0,0,0-3.9,2.254" transform="translate(-292.267 -0.9)" fill="#b9dfb7"/>
          <path id="Trazado_832692" data-name="Trazado 832692" d="M425.983,12.406a3.188,3.188,0,1,0,4.165-1.725,3.188,3.188,0,0,0-4.165,1.725" transform="translate(-295.539 -2.01)" fill="#b9dfb7"/>
          <path id="Trazado_832693" data-name="Trazado 832693" d="M442.253,19.965a3.188,3.188,0,1,0,4.356-1.167,3.189,3.189,0,0,0-4.356,1.167" transform="translate(-298.637 -3.538)" fill="#b9dfb7"/>
          <path id="Trazado_832694" data-name="Trazado 832694" d="M457.4,29.583a3.189,3.189,0,1,0,4.47-.589,3.189,3.189,0,0,0-4.47.589" transform="translate(-301.51 -5.458)" fill="#b9dfb7"/>
          <path id="Trazado_832695" data-name="Trazado 832695" d="M471.159,41.1a3.188,3.188,0,1,0,4.509,0,3.188,3.188,0,0,0-4.509,0" transform="translate(-304.107 -7.736)" fill="#b9dfb7"/>
          <path id="Trazado_832696" data-name="Trazado 832696" d="M483.3,54.307a3.188,3.188,0,1,0,4.47.589,3.187,3.187,0,0,0-4.47-.589" transform="translate(-306.385 -10.333)" fill="#b9dfb7"/>
        </g>
      </g>
    </g>
    <path id="Trazado_832697" data-name="Trazado 832697" d="M635.77,439.52a97.51,97.51,0,1,0,35.691,133.2,97.509,97.509,0,0,0-35.691-133.2M655.7,563.62a79.308,79.308,0,1,1-29.029-108.338A79.309,79.309,0,0,1,655.7,563.62" transform="translate(402.219 5605.865)" fill="#b0c0d2"/>
    <path id="Trazado_832698" data-name="Trazado 832698" d="M551.7,596.992a79.308,79.308,0,1,1,108.337-29.028A79.309,79.309,0,0,1,551.7,596.992" transform="translate(397.876 5601.522)" fill="#dbe5f3"/>
    <path id="Trazado_832699" data-name="Trazado 832699" d="M82.952,459.626A79.308,79.308,0,1,1,53.923,567.964,79.308,79.308,0,0,1,82.952,459.626" transform="translate(488.16 5601.522)" fill="#6debff"/>
    <g id="Grupo_1082709" data-name="Grupo 1082709" transform="translate(496.497 6084.488)" opacity="0.7">
      <g id="Grupo_1082708" data-name="Grupo 1082708">
        <g id="Grupo_1082707" data-name="Grupo 1082707" clip-path="url(#clip-path-2)">
          <path id="Trazado_832700" data-name="Trazado 832700" d="M19.965,612.535A3.188,3.188,0,1,1,18.8,616.89a3.187,3.187,0,0,1,1.167-4.355" transform="translate(-3.538 -514.383)" fill="#6debff"/>
          <path id="Trazado_832701" data-name="Trazado 832701" d="M29.583,627.681a3.188,3.188,0,1,1-.589,4.47,3.187,3.187,0,0,1,.589-4.47" transform="translate(-5.458 -517.256)" fill="#6debff"/>
          <path id="Trazado_832702" data-name="Trazado 832702" d="M41.1,641.441a3.188,3.188,0,1,1,0,4.508,3.189,3.189,0,0,1,0-4.508" transform="translate(-7.735 -519.853)" fill="#6debff"/>
          <path id="Trazado_832703" data-name="Trazado 832703" d="M54.306,653.581a3.188,3.188,0,1,1,.589,4.469,3.188,3.188,0,0,1-.589-4.469" transform="translate(-10.333 -522.131)" fill="#6debff"/>
          <path id="Trazado_832704" data-name="Trazado 832704" d="M68.988,663.893a3.188,3.188,0,1,1,1.167,4.354,3.186,3.186,0,0,1-1.167-4.354" transform="translate(-13.205 -524.05)" fill="#6debff"/>
          <path id="Trazado_832705" data-name="Trazado 832705" d="M84.89,672.2a3.188,3.188,0,1,1,1.725,4.164A3.187,3.187,0,0,1,84.89,672.2" transform="translate(-16.303 -525.578)" fill="#6debff"/>
          <path id="Trazado_832706" data-name="Trazado 832706" d="M101.741,678.36a3.188,3.188,0,1,1,2.254,3.9,3.189,3.189,0,0,1-2.254-3.9" transform="translate(-19.575 -526.688)" fill="#6debff"/>
          <path id="Trazado_832707" data-name="Trazado 832707" d="M119.251,682.268A3.188,3.188,0,1,1,122,685.845a3.189,3.189,0,0,1-2.744-3.578" transform="translate(-22.963 -527.363)" fill="#6debff"/>
          <path id="Trazado_832708" data-name="Trazado 832708" d="M101.741,678.36a3.188,3.188,0,1,1,2.254,3.9,3.189,3.189,0,0,1-2.254-3.9" transform="translate(-19.575 -526.688)" fill="#6debff"/>
          <path id="Trazado_832709" data-name="Trazado 832709" d="M119.251,682.268A3.188,3.188,0,1,1,122,685.845a3.189,3.189,0,0,1-2.744-3.578" transform="translate(-22.963 -527.363)" fill="#6debff"/>
          <path id="Trazado_832710" data-name="Trazado 832710" d="M14.846,602.155a3.188,3.188,0,1,0-4.166-1.725,3.19,3.19,0,0,0,4.166,1.725" transform="translate(-2.01 -511.285)" fill="#6debff"/>
          <path id="Trazado_832711" data-name="Trazado 832711" d="M8.685,585.3a3.188,3.188,0,1,0-3.9-2.254,3.187,3.187,0,0,0,3.9,2.254" transform="translate(-0.9 -508.014)" fill="#6debff"/>
          <path id="Trazado_832712" data-name="Trazado 832712" d="M4.777,567.793A3.188,3.188,0,1,0,1.2,565.049a3.188,3.188,0,0,0,3.577,2.744" transform="translate(-0.226 -504.625)" fill="#6debff"/>
          <path id="Trazado_832713" data-name="Trazado 832713" d="M3.188,549.922A3.188,3.188,0,1,0,0,546.735a3.188,3.188,0,0,0,3.188,3.187" transform="translate(0 -501.178)" fill="#6debff"/>
          <path id="Trazado_832714" data-name="Trazado 832714" d="M3.946,532A3.188,3.188,0,1,0,1.2,528.42,3.187,3.187,0,0,0,3.946,532" transform="translate(-0.226 -497.731)" fill="#6debff"/>
          <path id="Trazado_832715" data-name="Trazado 832715" d="M7.035,514.325a3.188,3.188,0,1,0-2.254-3.905,3.189,3.189,0,0,0,2.254,3.905" transform="translate(-0.9 -494.342)" fill="#6debff"/>
          <path id="Trazado_832716" data-name="Trazado 832716" d="M12.405,497.207a3.189,3.189,0,1,0-1.725-4.165,3.188,3.188,0,0,0,1.725,4.165" transform="translate(-2.01 -491.071)" fill="#6debff"/>
        </g>
      </g>
    </g>
    <g id="Grupo_1082712" data-name="Grupo 1082712" transform="translate(1000.866 6084.488)" opacity="0.7">
      <g id="Grupo_1082711" data-name="Grupo 1082711">
        <g id="Grupo_1082710" data-name="Grupo 1082710" clip-path="url(#clip-path-3)">
          <path id="Trazado_832717" data-name="Trazado 832717" d="M727.135,618.057a3.188,3.188,0,1,1,4.354-1.167,3.188,3.188,0,0,1-4.354,1.167" transform="translate(-644.112 -514.383)" fill="#dbe5f3"/>
          <path id="Trazado_832718" data-name="Trazado 832718" d="M735.441,602.155a3.188,3.188,0,1,1,4.165-1.725,3.187,3.187,0,0,1-4.165,1.725" transform="translate(-645.64 -511.285)" fill="#dbe5f3"/>
          <path id="Trazado_832719" data-name="Trazado 832719" d="M741.6,585.3a3.188,3.188,0,1,1,3.9-2.254,3.188,3.188,0,0,1-3.9,2.254" transform="translate(-646.75 -508.014)" fill="#dbe5f3"/>
          <path id="Trazado_832720" data-name="Trazado 832720" d="M745.51,567.793a3.188,3.188,0,1,1,3.577-2.744,3.188,3.188,0,0,1-3.577,2.744" transform="translate(-647.424 -504.625)" fill="#dbe5f3"/>
          <path id="Trazado_832721" data-name="Trazado 832721" d="M747.1,549.922a3.188,3.188,0,1,1,3.187-3.187,3.186,3.186,0,0,1-3.187,3.187" transform="translate(-647.65 -501.178)" fill="#dbe5f3"/>
          <path id="Trazado_832722" data-name="Trazado 832722" d="M746.342,532a3.188,3.188,0,1,1,2.743-3.578A3.189,3.189,0,0,1,746.342,532" transform="translate(-647.424 -497.731)" fill="#dbe5f3"/>
          <path id="Trazado_832723" data-name="Trazado 832723" d="M743.252,514.325a3.188,3.188,0,1,1,2.253-3.905,3.189,3.189,0,0,1-2.253,3.905" transform="translate(-646.75 -494.342)" fill="#dbe5f3"/>
          <path id="Trazado_832724" data-name="Trazado 832724" d="M737.881,497.207a3.188,3.188,0,1,1,1.726-4.165,3.187,3.187,0,0,1-1.726,4.165" transform="translate(-645.64 -491.071)" fill="#dbe5f3"/>
          <path id="Trazado_832725" data-name="Trazado 832725" d="M743.252,514.325a3.188,3.188,0,1,1,2.253-3.905,3.189,3.189,0,0,1-2.253,3.905" transform="translate(-646.75 -494.342)" fill="#dbe5f3"/>
          <path id="Trazado_832726" data-name="Trazado 832726" d="M737.881,497.207a3.188,3.188,0,1,1,1.726-4.165,3.187,3.187,0,0,1-1.726,4.165" transform="translate(-645.64 -491.071)" fill="#dbe5f3"/>
          <path id="Trazado_832727" data-name="Trazado 832727" d="M720.7,627.681a3.188,3.188,0,1,0,.589,4.47,3.187,3.187,0,0,0-.589-4.47" transform="translate(-642.193 -517.256)" fill="#dbe5f3"/>
          <path id="Trazado_832728" data-name="Trazado 832728" d="M709.192,641.441a3.188,3.188,0,1,0,0,4.508,3.188,3.188,0,0,0,0-4.508" transform="translate(-639.915 -519.853)" fill="#dbe5f3"/>
          <path id="Trazado_832729" data-name="Trazado 832729" d="M695.981,653.581a3.188,3.188,0,1,0-.589,4.469,3.186,3.186,0,0,0,.589-4.469" transform="translate(-637.318 -522.131)" fill="#dbe5f3"/>
          <path id="Trazado_832730" data-name="Trazado 832730" d="M681.3,663.892a3.188,3.188,0,1,0-1.167,4.354,3.187,3.187,0,0,0,1.167-4.354" transform="translate(-634.445 -524.05)" fill="#dbe5f3"/>
          <path id="Trazado_832731" data-name="Trazado 832731" d="M665.4,672.2a3.188,3.188,0,1,0-1.725,4.164A3.188,3.188,0,0,0,665.4,672.2" transform="translate(-631.346 -525.578)" fill="#dbe5f3"/>
          <path id="Trazado_832732" data-name="Trazado 832732" d="M648.546,678.36a3.188,3.188,0,1,0-2.253,3.9,3.187,3.187,0,0,0,2.253-3.9" transform="translate(-628.075 -526.688)" fill="#dbe5f3"/>
          <path id="Trazado_832733" data-name="Trazado 832733" d="M631.036,682.268a3.188,3.188,0,1,0-2.744,3.578,3.189,3.189,0,0,0,2.744-3.578" transform="translate(-624.687 -527.363)" fill="#dbe5f3"/>
        </g>
      </g>
    </g>
    <path id="Trazado_832734" data-name="Trazado 832734" d="M202.709,475.213a97.509,97.509,0,1,0-35.691,133.2,97.51,97.51,0,0,0,35.691-133.2M157.917,592.65a79.308,79.308,0,1,1,29.028-108.336A79.308,79.308,0,0,1,157.917,592.65" transform="translate(492.503 5605.865)" fill="#03386e"/>
    <path id="Trazado_832735" data-name="Trazado 832735" d="M451.462,141.071a97.509,97.509,0,1,1-195.019,0V358.006a97.509,97.509,0,0,1,163.013-72.231l32.006,18.479Z" transform="translate(447.104 5660.829)" fill="#b9dfb7"/>
    <path id="Trazado_832736" data-name="Trazado 832736" d="M609.231,416.456,442.672,320.293a97.494,97.494,0,0,1-17,156.809l.015.025-48.7,28.554,139.994,82.7.09-.155c-.157-.089-.318-.166-.474-.257a97.5,97.5,0,0,1,92.64-171.512" transform="translate(423.888 5626.31)" fill="#dbe5f3"/>
    <path id="Trazado_832737" data-name="Trazado 832737" d="M334.478,337.433a61.552,61.552,0,0,1,87.655,29.522l11.534,3.586,4.951-10.646a79.339,79.339,0,0,0-122.261-31.329l11.1,2.019.01,11.577a62.325,62.325,0,0,1,7.014-4.73" transform="translate(435.565 5628.008)" fill="#b9dfb7"/>
    <path id="Trazado_832738" data-name="Trazado 832738" d="M327.384,451.713a61.558,61.558,0,0,1-18.26-90.674l-2.661-11.78-11.7,1.036a79.342,79.342,0,0,0,34,121.545l-3.8-10.621,10.021-5.8a62.38,62.38,0,0,1-7.6-3.708" transform="translate(442.811 5620.731)" fill="#6debff"/>
    <path id="Trazado_832739" data-name="Trazado 832739" d="M435.385,406.782a61.554,61.554,0,0,1-69.395,61.15l-8.872,8.2,6.746,9.611a79.338,79.338,0,0,0,88.26-90.217l-7.3,8.6-10.031-5.78a62.174,62.174,0,0,1,.589,8.439" transform="translate(427.714 5611.82)" fill="#dbe5f3"/>
    <path id="Trazado_838061" data-name="Trazado 838061" d="M40.652,6.585H36.812V17H33.727V6.585H29.956V4.2h10.7Zm4.983,10.591a4.889,4.889,0,0,1-3.542-1.305,4.507,4.507,0,0,1-1.354-3.4v-.246a5.84,5.84,0,0,1,.541-2.575,3.955,3.955,0,0,1,1.578-1.727,4.763,4.763,0,0,1,2.461-.611,4.117,4.117,0,0,1,3.164,1.244,4.887,4.887,0,0,1,1.16,3.467v1.151H43.755a2.135,2.135,0,0,0,.694,1.257,2.066,2.066,0,0,0,1.389.457,2.662,2.662,0,0,0,2.2-.984l1.354,1.6a3.784,3.784,0,0,1-1.569,1.217A5.3,5.3,0,0,1,45.636,17.176ZM45.3,9.6q-1.3,0-1.547,1.723h2.988v-.229a1.467,1.467,0,0,0-.36-1.1A1.434,1.434,0,0,0,45.3,9.6Zm-.035-6.108H48.4l-2.443,2.76-2.417,0Zm9.589,11.4a1.317,1.317,0,0,0,.967-.338,1.241,1.241,0,0,0,.334-.945h2.777a3.288,3.288,0,0,1-1.121,2.566,4.168,4.168,0,0,1-2.887,1,4.22,4.22,0,0,1-3.27-1.3,5.125,5.125,0,0,1-1.2-3.6v-.123A5.792,5.792,0,0,1,50.993,9.6a3.872,3.872,0,0,1,1.534-1.7A4.573,4.573,0,0,1,54.9,7.314a4.116,4.116,0,0,1,2.944,1.028,3.647,3.647,0,0,1,1.09,2.786H56.156A1.626,1.626,0,0,0,55.8,10a1.244,1.244,0,0,0-.967-.4q-1.151,0-1.345,1.468a10.357,10.357,0,0,0-.062,1.283,4.068,4.068,0,0,0,.343,1.986A1.187,1.187,0,0,0,54.855,14.891Zm8.051-7.4L63,8.606a3.225,3.225,0,0,1,2.716-1.292,2.713,2.713,0,0,1,2.219.888,4.226,4.226,0,0,1,.76,2.672V17H65.728V11a1.6,1.6,0,0,0-.29-1.059A1.342,1.342,0,0,0,64.383,9.6a1.413,1.413,0,0,0-1.292.686V17H60.129V7.49ZM73.462,17H70.491V7.49h2.971ZM70.315,5.038A1.322,1.322,0,0,1,70.772,4a1.943,1.943,0,0,1,2.373,0A1.322,1.322,0,0,1,73.6,5.038a1.322,1.322,0,0,1-.457,1.037,1.943,1.943,0,0,1-2.373,0A1.322,1.322,0,0,1,70.315,5.038Zm8.991,9.853a1.317,1.317,0,0,0,.967-.338,1.241,1.241,0,0,0,.334-.945h2.777a3.288,3.288,0,0,1-1.121,2.566,4.168,4.168,0,0,1-2.887,1,4.22,4.22,0,0,1-3.27-1.3,5.125,5.125,0,0,1-1.2-3.6v-.123A5.792,5.792,0,0,1,75.444,9.6a3.872,3.872,0,0,1,1.534-1.7,4.573,4.573,0,0,1,2.373-.593,4.116,4.116,0,0,1,2.944,1.028,3.647,3.647,0,0,1,1.09,2.786H80.607A1.626,1.626,0,0,0,80.247,10a1.244,1.244,0,0,0-.967-.4q-1.151,0-1.345,1.468a10.357,10.357,0,0,0-.062,1.283,4.068,4.068,0,0,0,.343,1.986A1.187,1.187,0,0,0,79.307,14.891ZM89.994,17a3.344,3.344,0,0,1-.281-.853,2.754,2.754,0,0,1-2.285,1.028,3.374,3.374,0,0,1-2.285-.813,2.588,2.588,0,0,1-.94-2.043,2.66,2.66,0,0,1,1.143-2.338,5.821,5.821,0,0,1,3.322-.791h.914v-.5q0-1.316-1.134-1.316a.927.927,0,0,0-1.055,1.042H84.431A2.655,2.655,0,0,1,85.6,8.175a4.931,4.931,0,0,1,2.993-.86,4.323,4.323,0,0,1,2.874.888,3.086,3.086,0,0,1,1.081,2.435v4.21a4.311,4.311,0,0,0,.4,2V17ZM88.14,15.066a1.652,1.652,0,0,0,.918-.237,1.487,1.487,0,0,0,.523-.536V12.772H88.72q-1.547,0-1.547,1.389a.848.848,0,0,0,.272.655A.986.986,0,0,0,88.14,15.066Z" transform="translate(741.5 5803.665)" fill="#12263f"/>
    <path id="Trazado_838062" data-name="Trazado 838062" d="M51.986,14.609H47.758L47.02,17h-3.3L48.417,4.2h2.9L56.046,17H52.733ZM48.5,12.228h2.751l-1.38-4.438Zm14.1-2.057-.976-.07a1.752,1.752,0,0,0-1.793.879V17H56.864V7.49h2.777l.1,1.222a2.294,2.294,0,0,1,2.083-1.4,2.888,2.888,0,0,1,.826.105Zm4.957-5.045V7.49h1.564V9.547H67.551V13.9a1.111,1.111,0,0,0,.193.747,1.037,1.037,0,0,0,.765.211,4.345,4.345,0,0,0,.738-.053v2.118a5.466,5.466,0,0,1-1.67.255,3.1,3.1,0,0,1-2.259-.721,2.954,2.954,0,0,1-.729-2.188V9.547H63.376V7.49h1.213V5.126Zm7.33,12.05a4.889,4.889,0,0,1-3.542-1.305,4.507,4.507,0,0,1-1.354-3.4v-.246a5.84,5.84,0,0,1,.541-2.575A3.955,3.955,0,0,1,72.1,7.925a4.763,4.763,0,0,1,2.461-.611,4.117,4.117,0,0,1,3.164,1.244,4.887,4.887,0,0,1,1.16,3.467v1.151H73a2.135,2.135,0,0,0,.694,1.257,2.066,2.066,0,0,0,1.389.457,2.662,2.662,0,0,0,2.2-.984l1.354,1.6a3.784,3.784,0,0,1-1.569,1.217A5.3,5.3,0,0,1,74.881,17.176ZM74.547,9.6q-1.3,0-1.547,1.723h2.988v-.229a1.467,1.467,0,0,0-.36-1.1A1.434,1.434,0,0,0,74.547,9.6Z" transform="translate(929.184 6152.743)" fill="#12263f"/>
    <path id="Trazado_838063" data-name="Trazado 838063" d="M42.538,12.667a4.673,4.673,0,0,1-.721,2.36,4.35,4.35,0,0,1-1.85,1.586,6.3,6.3,0,0,1-2.72.563,5.025,5.025,0,0,1-3.973-1.644,6.786,6.786,0,0,1-1.45-4.641v-.633a7.746,7.746,0,0,1,.655-3.292,4.961,4.961,0,0,1,1.885-2.18,5.26,5.26,0,0,1,2.848-.769,5.516,5.516,0,0,1,3.744,1.226,4.844,4.844,0,0,1,1.608,3.379H39.488A2.292,2.292,0,0,0,38.9,6.945a2.422,2.422,0,0,0-1.687-.51,1.843,1.843,0,0,0-1.687.861,5.536,5.536,0,0,0-.562,2.751v.905a6.126,6.126,0,0,0,.514,2.927,1.882,1.882,0,0,0,1.771.879,2.369,2.369,0,0,0,1.626-.5,2.126,2.126,0,0,0,.6-1.591ZM46.985,17H44.014V7.49h2.971ZM43.838,5.038A1.322,1.322,0,0,1,44.3,4a1.943,1.943,0,0,1,2.373,0,1.322,1.322,0,0,1,.457,1.037,1.322,1.322,0,0,1-.457,1.037,1.943,1.943,0,0,1-2.373,0A1.322,1.322,0,0,1,43.838,5.038ZM53.41,17.176a4.889,4.889,0,0,1-3.542-1.305,4.507,4.507,0,0,1-1.354-3.4v-.246a5.84,5.84,0,0,1,.541-2.575,3.955,3.955,0,0,1,1.578-1.727,4.763,4.763,0,0,1,2.461-.611,4.117,4.117,0,0,1,3.164,1.244,4.887,4.887,0,0,1,1.16,3.467v1.151H51.529a2.135,2.135,0,0,0,.694,1.257,2.066,2.066,0,0,0,1.389.457,2.662,2.662,0,0,0,2.2-.984l1.354,1.6a3.784,3.784,0,0,1-1.569,1.217A5.3,5.3,0,0,1,53.41,17.176ZM53.076,9.6q-1.3,0-1.547,1.723h2.988v-.229a1.467,1.467,0,0,0-.36-1.1A1.434,1.434,0,0,0,53.076,9.6ZM61.329,7.49l.1,1.116a3.225,3.225,0,0,1,2.716-1.292A2.713,2.713,0,0,1,66.36,8.2a4.226,4.226,0,0,1,.76,2.672V17H64.15V11a1.6,1.6,0,0,0-.29-1.059A1.342,1.342,0,0,0,62.805,9.6a1.413,1.413,0,0,0-1.292.686V17H58.551V7.49Zm11.452,7.4a1.317,1.317,0,0,0,.967-.338,1.241,1.241,0,0,0,.334-.945h2.777a3.288,3.288,0,0,1-1.121,2.566,4.168,4.168,0,0,1-2.887,1,4.22,4.22,0,0,1-3.27-1.3,5.125,5.125,0,0,1-1.2-3.6v-.123A5.792,5.792,0,0,1,68.918,9.6a3.872,3.872,0,0,1,1.534-1.7,4.573,4.573,0,0,1,2.373-.593,4.116,4.116,0,0,1,2.944,1.028,3.647,3.647,0,0,1,1.09,2.786H74.082A1.626,1.626,0,0,0,73.721,10a1.244,1.244,0,0,0-.967-.4q-1.151,0-1.345,1.468a10.357,10.357,0,0,0-.062,1.283,4.068,4.068,0,0,0,.343,1.986A1.187,1.187,0,0,0,72.781,14.891ZM81.236,17H78.265V7.49h2.971ZM78.089,5.038A1.322,1.322,0,0,1,78.546,4a1.943,1.943,0,0,1,2.373,0,1.322,1.322,0,0,1,.457,1.037,1.322,1.322,0,0,1-.457,1.037,1.943,1.943,0,0,1-2.373,0A1.322,1.322,0,0,1,78.089,5.038ZM88.417,17a3.344,3.344,0,0,1-.281-.853,2.754,2.754,0,0,1-2.285,1.028,3.374,3.374,0,0,1-2.285-.813,2.588,2.588,0,0,1-.94-2.043,2.66,2.66,0,0,1,1.143-2.338,5.821,5.821,0,0,1,3.322-.791H88v-.5q0-1.316-1.134-1.316a.927.927,0,0,0-1.055,1.042H82.853a2.655,2.655,0,0,1,1.173-2.239,4.931,4.931,0,0,1,2.993-.86,4.323,4.323,0,0,1,2.874.888,3.086,3.086,0,0,1,1.081,2.435v4.21a4.311,4.311,0,0,0,.4,2V17Zm-1.854-1.934a1.652,1.652,0,0,0,.918-.237A1.487,1.487,0,0,0,88,14.293V12.772h-.861q-1.547,0-1.547,1.389a.848.848,0,0,0,.272.655A.986.986,0,0,0,86.562,15.066Z" transform="translate(549.05 6152.165)" fill="#12263f"/>
    <g id="Grupo_1082731" data-name="Grupo 1082731" transform="translate(776.616 5745.27)">
      <path id="Trazado_836277" data-name="Trazado 836277" d="M393.934,1181.238c-.548-1.412-1.061-2.756-1.6-4.088a.567.567,0,0,0-.439-.23c-1.12-.019-2.24-.007-3.361-.012-.807,0-1.16-.353-1.161-1.157q0-4.02,0-8.04c0-.8.359-1.144,1.171-1.147,1.088,0,2.176-.013,3.263.006a.54.54,0,0,0,.618-.431c.438-1.167.921-2.317,1.43-3.454a.478.478,0,0,0-.117-.656c-.782-.756-1.545-1.532-2.312-2.3-.624-.629-.632-1.1-.02-1.714q2.821-2.829,5.649-5.65a1,1,0,0,1,1.643-.008c.868.855,1.727,1.718,2.59,2.577a.281.281,0,0,0,.056.031c.769-.349,1.539-.717,2.326-1.049a12.576,12.576,0,0,1,1.468-.51.515.515,0,0,0,.457-.6c-.029-1.1-.014-2.209-.009-3.313,0-.778.358-1.144,1.123-1.146q4.043-.007,8.085,0c.77,0,1.124.364,1.13,1.14,0,.595,0,1.19,0,1.793.76-.528,1.449-1.1,2.217-1.525a10.5,10.5,0,0,1,9.009-.733.99.99,0,0,1,.394,1.78c-1.143,1.153-2.3,2.3-3.442,3.448a2.487,2.487,0,0,0-.006,3.782c.126.127.252.254.379.379a2.482,2.482,0,0,0,3.748-.014c1.14-1.133,2.273-2.274,3.411-3.41.744-.741,1.516-.579,1.851.421a10.622,10.622,0,0,1-2,10.717c-.1.121-.2.241-.365.439.68,0,1.272,0,1.864,0,.8.007,1.149.36,1.15,1.17q0,4,0,7.991c0,.836-.348,1.181-1.185,1.184-1.1,0-2.208.007-3.312,0a.459.459,0,0,0-.526.349c-.466,1.208-.972,2.4-1.486,3.588a.4.4,0,0,0,.084.541c.8.783,1.591,1.578,2.38,2.374a1.026,1.026,0,0,1,0,1.715q-2.8,2.812-5.614,5.616a1.026,1.026,0,0,1-1.714-.011c-.784-.778-1.57-1.554-2.338-2.347-.207-.214-.354-.206-.619-.089q-1.755.773-3.542,1.471c-.258.1-.352.2-.349.473.015,1.137.01,2.274,0,3.411a.993.993,0,0,1-1.138,1.131q-4.043.005-8.085,0a.982.982,0,0,1-1.114-1.1c-.007-1.137.007-2.274-.012-3.411a.572.572,0,0,0-.223-.444c-1.332-.543-2.676-1.055-4.094-1.606-.754.755-1.59,1.593-2.427,2.43-.74.739-1.157.741-1.887.011q-2.739-2.739-5.476-5.479c-.687-.688-.687-1.128,0-1.818C392.313,1182.856,393.162,1182.009,393.934,1181.238Zm13.6-30.925c0,1.124,0,2.209,0,3.294,0,.982-.179,1.208-1.133,1.453a16.617,16.617,0,0,0-4.3,1.774c-.941.552-1.15.529-1.936-.26-.754-.757-1.5-1.517-2.209-2.227l-4.581,4.557c.77.772,1.561,1.562,2.349,2.355.618.622.66.923.219,1.67a16.994,16.994,0,0,0-1.875,4.523c-.217.865-.476,1.059-1.362,1.06h-3.354v6.448h3.332c.916,0,1.165.19,1.391,1.086a16.823,16.823,0,0,0,1.783,4.352c.554.954.53,1.151-.256,1.937-.755.755-1.512,1.51-2.226,2.223l4.569,4.567c.759-.762,1.547-1.555,2.338-2.345.626-.625.918-.669,1.667-.227a17.417,17.417,0,0,0,4.566,1.892c.825.211,1.019.476,1.02,1.343,0,1.116,0,2.231,0,3.362h6.444c0-1.128,0-2.229,0-3.33,0-.92.187-1.17,1.082-1.394a16.8,16.8,0,0,0,4.434-1.832c.839-.493,1.093-.461,1.783.23.778.779,1.553,1.561,2.3,2.315l4.563-4.582c-.786-.784-1.6-1.594-2.414-2.409a1.035,1.035,0,0,1-.188-1.554,17.371,17.371,0,0,0,1.915-4.611c.21-.829.476-1.025,1.338-1.025h3.371v-6.448c-.589,0-1.153.017-1.717,0a5.408,5.408,0,0,0-3.238.583,1.126,1.126,0,0,1-.367.126c-1.167.243-2.335.481-3.507.721a12.687,12.687,0,1,1-25.241,2.223,12.351,12.351,0,0,1,3.445-9.087,12.559,12.559,0,0,1,11.128-3.89.932.932,0,0,0,.036-.163,10.782,10.782,0,0,1,1.174-4.827.654.654,0,0,0,.091-.272c.006-1.2,0-2.392,0-3.608Zm17.635.135c-.493-.059-.842-.12-1.192-.14a8.762,8.762,0,0,0-8.819,11.641,1.391,1.391,0,0,1-.384,1.647c-3.388,3.362-6.753,6.747-10.137,10.113a.563.563,0,0,0-.138.75,6.92,6.92,0,0,0,3.485,3.515.618.618,0,0,0,.833-.143c3.348-3.378,6.723-6.731,10.071-10.11a1.414,1.414,0,0,1,1.647-.4,9.365,9.365,0,0,0,2.465.49,8.712,8.712,0,0,0,9.155-8.08,19.767,19.767,0,0,0-.058-2.274l-.206-.055c-.848.871-1.67,1.77-2.55,2.607a4.228,4.228,0,0,1-3.676,1.132,5.075,5.075,0,0,1-2.922-1.7,4.438,4.438,0,0,1,0-6.578C423.5,1152.09,424.278,1151.329,425.166,1150.448Zm-14.4,32.071c.754-.1,1.52-.148,2.259-.316a10.677,10.677,0,0,0,8.361-11.694c-.091-.91-.091-.91-.855-1.116a.954.954,0,0,0-1.127.969,15.534,15.534,0,0,1,.022,2.473,8.755,8.755,0,1,1-7.577-9.8c.286.034.567.158.859-.125a1.007,1.007,0,0,0,.345-1.217.691.691,0,0,0-.648-.558,11.2,11.2,0,0,0-3.537.05,10.752,10.752,0,0,0,1.9,21.332Zm-6.806-11.121,6.466-6.459A6.706,6.706,0,0,0,403.962,1171.4Zm7,7.138c4.091-.049,6.762-3.834,6.532-6.536Z" transform="translate(-387.368 -1148.334)" fill="#12263f"/>
      <path id="Trazado_836278" data-name="Trazado 836278" d="M625.309,1235.532a1.072,1.072,0,0,1-.621,1.021.9.9,0,0,1-1.034-.191c-.517-.491-1.015-1-1.52-1.506-.757-.756-1.516-1.51-2.268-2.271a.987.987,0,1,1,1.364-1.391c1.22,1.211,2.439,2.422,3.641,3.651A3.427,3.427,0,0,1,625.309,1235.532Z" transform="translate(-589.242 -1220.058)" fill="#12263f"/>
    </g>
    <g id="Grupo_1082732" data-name="Grupo 1082732" transform="translate(967.709 6092.857)">
      <path id="Trazado_836279" data-name="Trazado 836279" d="M876.106,1359.479c.593.118,1.2.2,1.776.36,3.135.865,4.845,3.067,5.606,6.1a20.423,20.423,0,0,1,.163,7.907,1.508,1.508,0,0,1-.038.2,1.519,1.519,0,0,0,.432,1.643,2.989,2.989,0,0,1,.494,3.486,3.211,3.211,0,0,1-2.961,1.947c-.292.015-.586,0-.906,0-.079.435-.135.846-.231,1.247a9.376,9.376,0,0,1-1.982,3.9,1.189,1.189,0,0,0-.259.685c-.027,1.092,0,2.186-.019,3.279a.591.591,0,0,0,.359.6,35.859,35.859,0,0,1,3.152,1.817c1.718,1.194,3.733,1.409,5.669,1.9a12.935,12.935,0,0,1,3.742,1.2,7.222,7.222,0,0,1,3.723,6.286c.073,3.243.022,6.488.019,9.733,0,.7-.31,1-1.031,1q-4.528,0-9.057,0H849.468c-1.054,0-1.265-.214-1.265-1.286q0-4.5,0-9a7.476,7.476,0,0,1,6.146-7.618q2.359-.521,4.709-1.083a3.8,3.8,0,0,0,.957-.382c1.5-.839,2.979-1.7,4.476-2.542a.634.634,0,0,0,.378-.649c-.021-1.093,0-2.186-.016-3.279a.935.935,0,0,0-.179-.56,9.232,9.232,0,0,1-2.247-5.052.7.7,0,0,0-.063-.156,11.819,11.819,0,0,1-1.486-.117,3.3,3.3,0,0,1-2.079-5.155,1.346,1.346,0,0,0,.221-.708c.016-2.568-.028-5.136.03-7.7a9.938,9.938,0,0,1,.434-2.8c.825-2.552,3.54-3.235,5.4-3.065a2.968,2.968,0,0,0,1.414-.167,27.031,27.031,0,0,1,7.372-1.9,1.3,1.3,0,0,0,.247-.073Zm-.634,41.529c-.423,1.05-.839,2.037-1.209,3.041a1.14,1.14,0,0,0,.013.772c.852,1.971,1.742,3.926,2.6,5.9a.6.6,0,0,0,.66.411c2.55-.014,5.1-.008,7.65-.008h.5v-.558c0-1.145,0-2.29,0-3.435,0-.619.313-.99.815-1,.52-.011.843.374.848,1.021,0,.59,0,1.18,0,1.769v2.166h5.816c0-3.124.075-6.212-.024-9.295a5.591,5.591,0,0,0-4.25-5.135c-1.626-.419-3.273-.759-4.9-1.161a.719.719,0,0,0-.84.264c-1.651,1.92-3.326,3.819-4.994,5.724-.49.559-.787.608-1.446.236C876.316,1401.5,875.927,1401.269,875.472,1401.008Zm-18.109,10.057a.871.871,0,0,0,.162.048c2.723,0,5.447.01,8.17-.007a.611.611,0,0,0,.425-.324c.91-2,1.8-4.013,2.69-6.025a.681.681,0,0,0,.084-.439c-.42-1.094-.864-2.18-1.3-3.261a.747.747,0,0,0-.147.034q-.522.29-1.043.584c-.76.429-1,.388-1.562-.255-1.667-1.906-3.34-3.807-5-5.722a.608.608,0,0,0-.71-.216c-1.514.368-3.035.708-4.554,1.056a5.8,5.8,0,0,0-4.715,5.9q-.006,4.085,0,8.17v.488h5.83v-.534q0-1.613,0-3.226c0-.121-.006-.243,0-.364a.834.834,0,0,1,.816-.841.819.819,0,0,1,.84.868C857.372,1408.346,857.364,1409.7,857.364,1411.065Zm21.657-39.727c-1.475.313-2.886.585-4.283.914a17.286,17.286,0,0,1-7.829.233c-.957-.214-1.892-.521-2.881-.8v.508c0,2.653,0,5.306,0,7.959a9.811,9.811,0,0,0,.093,1.294,7.485,7.485,0,0,0,14.8-.013,10.288,10.288,0,0,0,.093-1.346C879.025,1377.195,879.021,1374.3,879.021,1371.338Zm2.794,3.122a.993.993,0,0,0,.083-.2,20.485,20.485,0,0,0,.125-7.347,7.268,7.268,0,0,0-2.035-4.073,6.709,6.709,0,0,0-4.781-1.7,20.284,20.284,0,0,0-7.052,1.4,8.71,8.71,0,0,1-4,.765,2.908,2.908,0,0,0-3.224,2.295,7.262,7.262,0,0,0-.221,1.747c-.025,2.256-.011,4.511-.009,6.767,0,.145.021.291.031.413l1.634-.087c0-1.34-.026-2.656.019-3.969a1.375,1.375,0,0,1,.426-.868c.33-.3.717-.064,1.064.1a14.141,14.141,0,0,0,8.763,1.236c2.3-.411,4.582-.94,6.873-1.414.755-.156,1.174.178,1.178.947.005,1.006,0,2.013,0,3.019v.964Zm-15.287,13.55c0,.849-.023,1.627.013,2.4a1.288,1.288,0,0,0,.285.728c1.389,1.619,2.8,3.219,4.205,4.825.155.177.315.349.475.525a1.748,1.748,0,0,0,.167-.139q2.334-2.66,4.664-5.323c.068-.077.166-.169.167-.255.012-.9.008-1.807.008-2.756A9.362,9.362,0,0,1,866.527,1388.01Zm11.009,4.182-4.711,5.38c1.419.811,2.793,1.6,4.181,2.373.082.046.314-.068.407-.17.629-.691,1.241-1.4,1.857-2.1.861-.985,1.721-1.971,2.616-3Zm-16.371,2.49,4.71,5.38,4.352-2.487-4.709-5.38Zm14.066,16.423c-.638-1.439-1.236-2.8-1.843-4.155-.247-.551-.379-1.3-.81-1.578s-1.176-.056-1.781-.09a.515.515,0,0,0-.57.385c-.735,1.683-1.488,3.357-2.232,5.036-.053.12-.083.25-.133.4Zm-6.184-10.936c.362.914.7,1.779,1.048,2.644.323.811.325.811,1.2.811,1.33,0,1.33,0,1.831-1.25l.881-2.2c-.782-.447-1.495-.87-2.226-1.259a.627.627,0,0,0-.509.007C870.538,1399.307,869.824,1399.727,869.047,1400.17Zm11.666-20.731a2.021,2.021,0,0,0,2.226-.778,1.551,1.551,0,0,0-.034-1.765,2.04,2.04,0,0,0-2.191-.727Zm-18.376-3.271a2.026,2.026,0,0,0-2.219.783,1.531,1.531,0,0,0,0,1.718,2.025,2.025,0,0,0,2.22.768Z" transform="translate(-848.202 -1359.479)" fill="#12263f"/>
    </g>
    <g id="Grupo_1082733" data-name="Grupo 1082733" transform="translate(587.706 6097.165)">
      <path id="Trazado_836280" data-name="Trazado 836280" d="M1432.155,1357.538a5.323,5.323,0,0,1-2.567-1.152,21.808,21.808,0,0,1-1.428-1.731,1.308,1.308,0,0,0-.473-.424,3.191,3.191,0,0,1-2.228-3.143c-.005-1.4-.013-2.79,0-4.185a4.058,4.058,0,0,0-1.783-3.533,15.909,15.909,0,0,1-5.556-7.114,15.722,15.722,0,0,1,3.645-16.972c.395-.377.809-.413,1.129-.1a.775.775,0,0,1-.113,1.167,13.518,13.518,0,0,0-3.968,7.273,13.954,13.954,0,0,0,5.335,14.227,6.392,6.392,0,0,1,2.73,4.083h6.015c.115,0,.23,0,.345,0,.505.027.8.3.8.743s-.3.722-.809.724c-1.658.007-3.315,0-4.973,0h-1.306c0,1.385-.049,2.728.018,4.064a1.59,1.59,0,0,0,1.634,1.421q4.234.027,8.469,0a1.646,1.646,0,0,0,1.665-1.614c.029-1.263.007-2.526.007-3.87h-1.371c-.312,0-.624,0-.936,0-.574-.007-.913-.286-.9-.74s.355-.725.929-.729c.768-.005,1.536,0,2.338,0a6.154,6.154,0,0,1,2.842-4.161,10.538,10.538,0,0,0,1.834-1.7c3.655-4.265,4.721-9.132,2.816-14.409a14.294,14.294,0,0,0-20.974-7.317c-.056.034-.11.072-.168.1a.749.749,0,0,1-1.076-.2.728.728,0,0,1,.305-1.051,15.291,15.291,0,0,1,4.293-1.916,15.713,15.713,0,0,1,19.665,12.224c1.144,6.22-.9,11.4-5.779,15.448-.278.23-.58.43-.857.661a3.871,3.871,0,0,0-1.472,3.041c-.016,1.444,0,2.889-.006,4.333a3.19,3.19,0,0,1-2.276,3.255.679.679,0,0,0-.36.278,5.175,5.175,0,0,1-3.93,2.951.492.492,0,0,0-.129.067Zm3.806-3.132h-6.233a3.77,3.77,0,0,0,6.233,0Z" transform="translate(-1409.999 -1307.118)" fill="#12263f"/>
      <path id="Trazado_836281" data-name="Trazado 836281" d="M1487.374,1381.093a3.782,3.782,0,0,1-.213.486c-.121.194-.269.372-.406.556-.825,1.1-.829,1.1-.234,2.3a.5.5,0,0,0,.324.219c.548.1,1.1.182,1.651.259a.761.761,0,0,1,.722.837c.008.935.011,1.871,0,2.806-.007.53-.216.762-.756.857s-1.072.147-1.6.255a.71.71,0,0,0-.367.3,1.573,1.573,0,0,0,.309,2.3,2.688,2.688,0,0,1,.357.469.73.73,0,0,1-.077,1.024q-1.02,1.034-2.053,2.054a.756.756,0,0,1-1.1.058c-.366-.278-.749-.534-1.1-.832-.281-.241-.543-.345-.865-.1a.2.2,0,0,1-.089.042c-.909.12-1.054.757-1.122,1.53-.124,1.417-.189,1.444-1.621,1.444-.706,0-1.411,0-2.117,0-.563-.005-.793-.217-.877-.78a2.629,2.629,0,0,1-.072-.486,1.552,1.552,0,0,0-1.327-1.814c-.241-.052-.409-.107-.618.062-.408.33-.837.634-1.257.948a.754.754,0,0,1-1.1-.083c-.661-.662-1.328-1.317-1.985-1.984a.745.745,0,0,1-.091-1.134c.307-.426.648-.828.932-1.268.091-.14.047-.367.063-.555,0-.014-.019-.028-.021-.043-.157-1.081-.916-1.323-1.848-1.336a4.051,4.051,0,0,1-.535-.073.745.745,0,0,1-.69-.813q-.013-1.427,0-2.855a.741.741,0,0,1,.689-.813c.5-.072,1-.157,1.509-.211.309-.033.532-.129.571-.473a.289.289,0,0,1,.058-.135c.542-.719.22-1.269-.272-1.875-.937-1.153-.908-1.177.156-2.239.488-.487.978-.971,1.464-1.46a.751.751,0,0,1,1.1-.086c.433.324.856.666,1.307.962a.771.771,0,0,0,.516.048,1.537,1.537,0,0,0,1.382-1.807,2.465,2.465,0,0,1,.082-.583.748.748,0,0,1,.81-.693c.968,0,1.936,0,2.9,0a.747.747,0,0,1,.8.706,2.4,2.4,0,0,1,.081.583,1.535,1.535,0,0,0,1.394,1.8.755.755,0,0,0,.515-.058c.451-.3.873-.639,1.306-.964a.735.735,0,0,1,1.061.069c.688.681,1.377,1.361,2.05,2.057A2.474,2.474,0,0,1,1487.374,1381.093Zm.368,5.21c-.583-.088-1.129-.19-1.679-.248a.91.91,0,0,1-.83-.708,14.866,14.866,0,0,0-.712-1.718.939.939,0,0,1,.106-1.13c.339-.418.648-.86.916-1.218l-1.211-1.279c-.413.307-.845.606-1.25.938a.955.955,0,0,1-1.173.095,10.354,10.354,0,0,0-1.673-.693.936.936,0,0,1-.737-.862c-.067-.533-.148-1.063-.224-1.6h-1.747c-.078.563-.156,1.1-.226,1.635a.928.928,0,0,1-.716.83,12.837,12.837,0,0,0-1.719.71.938.938,0,0,1-1.13-.1c-.418-.337-.859-.646-1.239-.929l-1.284,1.2c.315.42.6.84.927,1.228a.984.984,0,0,1,.1,1.257,4.657,4.657,0,0,0-.58,1.347,1.237,1.237,0,0,1-1.295,1.076c-1.345.142-1.331.168-1.314,1.523,0,.325.122.423.422.449.423.037.842.134,1.265.172a.9.9,0,0,1,.83.708,16.039,16.039,0,0,0,.713,1.718.927.927,0,0,1-.077,1.092c-.344.435-.667.886-.939,1.249l1.2,1.289c.429-.321.869-.635,1.292-.971a.908.908,0,0,1,1.088-.086,10.727,10.727,0,0,0,1.671.7.988.988,0,0,1,.791.93c.056.517.143,1.031.216,1.548h1.747c.076-.55.156-1.068.219-1.588a.941.941,0,0,1,.729-.871,12.038,12.038,0,0,0,1.718-.712.914.914,0,0,1,1.089.076c.435.342.885.664,1.271.952l1.287-1.2c-.345-.46-.674-.909-1.014-1.35a.851.851,0,0,1-.1-.96c.29-.639.511-1.311.828-1.935a1.2,1.2,0,0,1,.658-.551c.466-.139.971-.14,1.451-.239a.477.477,0,0,0,.316-.313C1487.763,1387.289,1487.742,1386.814,1487.742,1386.3Z" transform="translate(-1455.558 -1362.69)" fill="#12263f"/>
      <path id="Trazado_836282" data-name="Trazado 836282" d="M1348.638,1462.812c-.688,0-1.376.006-2.064,0a.741.741,0,1,1,0-1.47q2.064-.016,4.129,0a.741.741,0,1,1,0,1.47C1350.014,1462.818,1349.326,1462.812,1348.638,1462.812Z" transform="translate(-1345.739 -1439.266)" fill="#12263f"/>
      <path id="Trazado_836283" data-name="Trazado 836283" d="M1752.844,1462.812c-.688,0-1.376.006-2.064,0a.741.741,0,1,1-.008-1.47q2.064-.017,4.129,0a.741.741,0,1,1,.008,1.47C1754.22,1462.818,1753.532,1462.812,1752.844,1462.812Z" transform="translate(-1710.054 -1439.266)" fill="#12263f"/>
      <path id="Trazado_836284" data-name="Trazado 836284" d="M1571.2,1240.6c0,.671.007,1.342,0,2.012-.008.568-.3.909-.746.9s-.723-.34-.726-.923q-.01-1.987,0-3.975c0-.572.293-.906.747-.9s.718.335.725.92C1571.2,1239.293,1571.2,1239.948,1571.2,1240.6Z" transform="translate(-1547.615 -1237.719)" fill="#12263f"/>
      <path id="Trazado_836285" data-name="Trazado 836285" d="M1697.687,1307.923a3.128,3.128,0,0,1-.591-.532.64.64,0,0,1,.171-.84q1.073-1.08,2.153-2.153c.29-.289.571-.587.873-.863a.732.732,0,0,1,1.019-.024.713.713,0,0,1,.015,1.053q-1.511,1.545-3.058,3.054A2.57,2.57,0,0,1,1697.687,1307.923Z" transform="translate(-1662.338 -1296.842)" fill="#12263f"/>
      <path id="Trazado_836286" data-name="Trazado 836286" d="M1412,1302.305a3.861,3.861,0,0,1,.638.4q1.456,1.425,2.887,2.876a.734.734,0,0,1,.094,1.123.744.744,0,0,1-1.128-.079c-.978-.966-1.946-1.943-2.92-2.913a.69.69,0,0,1-.184-.886A2.661,2.661,0,0,1,1412,1302.305Z" transform="translate(-1404.82 -1295.932)" fill="#12263f"/>
      <path id="Trazado_836287" data-name="Trazado 836287" d="M1638.024,1278.951c-.327.764-.57,1.441-.905,2.069a.572.572,0,0,1-.865.153.967.967,0,0,1-.357-.758,10.17,10.17,0,0,1,.677-1.781.605.605,0,0,1,.837-.3C1637.651,1278.449,1637.813,1278.729,1638.024,1278.951Z" transform="translate(-1607.257 -1274.265)" fill="#12263f"/>
      <path id="Trazado_836288" data-name="Trazado 836288" d="M1500.486,1281.277c-.209.214-.382.538-.618.592a.9.9,0,0,1-.793-.26,7.946,7.946,0,0,1-.721-1.861.7.7,0,0,1,1.217-.539A20.269,20.269,0,0,1,1500.486,1281.277Z" transform="translate(-1483.289 -1274.923)" fill="#12263f"/>
      <path id="Trazado_836289" data-name="Trazado 836289" d="M1737.607,1391.152a1.767,1.767,0,0,1,.466-.5,10.477,10.477,0,0,1,1.453-.586.725.725,0,0,1,1,.443.716.716,0,0,1-.49.931c-.45.193-.905.379-1.368.539C1738.1,1392.17,1737.616,1391.859,1737.607,1391.152Z" transform="translate(-1698.939 -1374.977)" fill="#12263f"/>
      <path id="Trazado_836290" data-name="Trazado 836290" d="M1389.056,1392.094c-.76-.327-1.435-.573-2.063-.908a.6.6,0,0,1-.169-.835.632.632,0,0,1,.766-.388,15.615,15.615,0,0,1,1.779.686.586.586,0,0,1,.29.8A2.9,2.9,0,0,1,1389.056,1392.094Z" transform="translate(-1382.686 -1374.914)" fill="#12263f"/>
      <path id="Trazado_836291" data-name="Trazado 836291" d="M1533.468,1446.852a4.778,4.778,0,1,1,4.815-4.762A4.8,4.8,0,0,1,1533.468,1446.852Zm.022-1.477a3.3,3.3,0,1,0-3.307-3.279A3.314,3.314,0,0,0,1533.49,1445.375Z" transform="translate(-1510.651 -1417.603)" fill="#12263f"/>
    </g>
  </g>
</svg>
